<svg width="1363" height="167" viewBox="0 0 1363 167" fill="none" xmlns="http://www.w3.org/2000/svg">
<rect width="1363" height="167" rx="15" fill="#F0F0F0"/>
<path d="M0 15C0 6.71573 6.71573 0 15 0H37V167H15C6.71573 167 0 160.284 0 152V15Z" fill="#424241"/>
<path d="M100.906 50.9219L93.3945 48.2383V45.0859L103.602 49.375V51.6367L100.906 50.9219ZM93.3945 53.1719L100.918 50.4297L103.602 49.7852V52.0352L93.3945 56.3242V53.1719ZM111.898 40.9375H118.262C119.566 40.9375 120.688 41.1328 121.625 41.5234C122.57 41.9141 123.297 42.4922 123.805 43.2578C124.312 44.0234 124.566 44.9648 124.566 46.082C124.566 46.9961 124.41 47.7812 124.098 48.4375C123.793 49.0859 123.359 49.6289 122.797 50.0664C122.242 50.4961 121.59 50.8398 120.84 51.0977L119.727 51.6836H114.195L114.172 48.9414H118.285C118.902 48.9414 119.414 48.832 119.82 48.6133C120.227 48.3945 120.531 48.0898 120.734 47.6992C120.945 47.3086 121.051 46.8555 121.051 46.3398C121.051 45.793 120.949 45.3203 120.746 44.9219C120.543 44.5234 120.234 44.2188 119.82 44.0078C119.406 43.7969 118.887 43.6914 118.262 43.6914H115.414V58H111.898V40.9375ZM121.438 58L117.547 50.3945L121.262 50.3711L125.199 57.8359V58H121.438ZM132.898 58.2344C131.914 58.2344 131.031 58.0781 130.25 57.7656C129.469 57.4453 128.805 57.0039 128.258 56.4414C127.719 55.8789 127.305 55.2266 127.016 54.4844C126.727 53.7344 126.582 52.9375 126.582 52.0938V51.625C126.582 50.6641 126.719 49.7852 126.992 48.9883C127.266 48.1914 127.656 47.5 128.164 46.9141C128.68 46.3281 129.305 45.8789 130.039 45.5664C130.773 45.2461 131.602 45.0859 132.523 45.0859C133.422 45.0859 134.219 45.2344 134.914 45.5312C135.609 45.8281 136.191 46.25 136.66 46.7969C137.137 47.3438 137.496 48 137.738 48.7656C137.98 49.5234 138.102 50.3672 138.102 51.2969V52.7031H128.023V50.4531H134.785V50.1953C134.785 49.7266 134.699 49.3086 134.527 48.9414C134.363 48.5664 134.113 48.2695 133.777 48.0508C133.441 47.832 133.012 47.7227 132.488 47.7227C132.043 47.7227 131.66 47.8203 131.34 48.0156C131.02 48.2109 130.758 48.4844 130.555 48.8359C130.359 49.1875 130.211 49.6016 130.109 50.0781C130.016 50.5469 129.969 51.0625 129.969 51.625V52.0938C129.969 52.6016 130.039 53.0703 130.18 53.5C130.328 53.9297 130.535 54.3008 130.801 54.6133C131.074 54.9258 131.402 55.168 131.785 55.3398C132.176 55.5117 132.617 55.5977 133.109 55.5977C133.719 55.5977 134.285 55.4805 134.809 55.2461C135.34 55.0039 135.797 54.6406 136.18 54.1562L137.82 55.9375C137.555 56.3203 137.191 56.6875 136.73 57.0391C136.277 57.3906 135.73 57.6797 135.09 57.9062C134.449 58.125 133.719 58.2344 132.898 58.2344ZM143.398 47.9453V58H140.012V45.3203H143.188L143.398 47.9453ZM142.93 51.2148H141.992C141.992 50.332 142.098 49.5195 142.309 48.7773C142.527 48.0273 142.844 47.3789 143.258 46.832C143.68 46.2773 144.199 45.8477 144.816 45.543C145.434 45.2383 146.148 45.0859 146.961 45.0859C147.523 45.0859 148.039 45.1719 148.508 45.3438C148.977 45.5078 149.379 45.7695 149.715 46.1289C150.059 46.4805 150.324 46.9414 150.512 47.5117C150.699 48.0742 150.793 48.75 150.793 49.5391V58H147.418V49.9141C147.418 49.3359 147.34 48.8906 147.184 48.5781C147.027 48.2656 146.805 48.0469 146.516 47.9219C146.234 47.7969 145.895 47.7344 145.496 47.7344C145.059 47.7344 144.676 47.8242 144.348 48.0039C144.027 48.1836 143.762 48.4336 143.551 48.7539C143.34 49.0664 143.184 49.4336 143.082 49.8555C142.98 50.2773 142.93 50.7305 142.93 51.2148ZM150.477 50.8281L149.27 50.9805C149.27 50.1523 149.371 49.3828 149.574 48.6719C149.785 47.9609 150.094 47.3359 150.5 46.7969C150.914 46.2578 151.426 45.8398 152.035 45.543C152.645 45.2383 153.348 45.0859 154.145 45.0859C154.754 45.0859 155.309 45.1758 155.809 45.3555C156.309 45.5273 156.734 45.8047 157.086 46.1875C157.445 46.5625 157.719 47.0547 157.906 47.6641C158.102 48.2734 158.199 49.0195 158.199 49.9023V58H154.812V49.9023C154.812 49.3164 154.734 48.8711 154.578 48.5664C154.43 48.2539 154.211 48.0391 153.922 47.9219C153.641 47.7969 153.305 47.7344 152.914 47.7344C152.508 47.7344 152.152 47.8164 151.848 47.9805C151.543 48.1367 151.289 48.3555 151.086 48.6367C150.883 48.918 150.73 49.2461 150.629 49.6211C150.527 49.9883 150.477 50.3906 150.477 50.8281ZM160.273 51.7891V51.543C160.273 50.6133 160.406 49.7578 160.672 48.9766C160.938 48.1875 161.324 47.5039 161.832 46.9258C162.34 46.3477 162.965 45.8984 163.707 45.5781C164.449 45.25 165.301 45.0859 166.262 45.0859C167.223 45.0859 168.078 45.25 168.828 45.5781C169.578 45.8984 170.207 46.3477 170.715 46.9258C171.23 47.5039 171.621 48.1875 171.887 48.9766C172.152 49.7578 172.285 50.6133 172.285 51.543V51.7891C172.285 52.7109 172.152 53.5664 171.887 54.3555C171.621 55.1367 171.23 55.8203 170.715 56.4062C170.207 56.9844 169.582 57.4336 168.84 57.7539C168.098 58.0742 167.246 58.2344 166.285 58.2344C165.324 58.2344 164.469 58.0742 163.719 57.7539C162.977 57.4336 162.348 56.9844 161.832 56.4062C161.324 55.8203 160.938 55.1367 160.672 54.3555C160.406 53.5664 160.273 52.7109 160.273 51.7891ZM163.648 51.543V51.7891C163.648 52.3203 163.695 52.8164 163.789 53.2773C163.883 53.7383 164.031 54.1445 164.234 54.4961C164.445 54.8398 164.719 55.1094 165.055 55.3047C165.391 55.5 165.801 55.5977 166.285 55.5977C166.754 55.5977 167.156 55.5 167.492 55.3047C167.828 55.1094 168.098 54.8398 168.301 54.4961C168.504 54.1445 168.652 53.7383 168.746 53.2773C168.848 52.8164 168.898 52.3203 168.898 51.7891V51.543C168.898 51.0273 168.848 50.543 168.746 50.0898C168.652 49.6289 168.5 49.2227 168.289 48.8711C168.086 48.5117 167.816 48.2305 167.48 48.0273C167.145 47.8242 166.738 47.7227 166.262 47.7227C165.785 47.7227 165.379 47.8242 165.043 48.0273C164.715 48.2305 164.445 48.5117 164.234 48.8711C164.031 49.2227 163.883 49.6289 163.789 50.0898C163.695 50.543 163.648 51.0273 163.648 51.543ZM180.57 45.3203V47.7109H173.188V45.3203H180.57ZM175.016 42.1914H178.391V54.1797C178.391 54.5469 178.438 54.8281 178.531 55.0234C178.633 55.2188 178.781 55.3555 178.977 55.4336C179.172 55.5039 179.418 55.5391 179.715 55.5391C179.926 55.5391 180.113 55.5312 180.277 55.5156C180.449 55.4922 180.594 55.4688 180.711 55.4453L180.723 57.9297C180.434 58.0234 180.121 58.0977 179.785 58.1523C179.449 58.207 179.078 58.2344 178.672 58.2344C177.93 58.2344 177.281 58.1133 176.727 57.8711C176.18 57.6211 175.758 57.2227 175.461 56.6758C175.164 56.1289 175.016 55.4102 175.016 54.5195V42.1914ZM188.328 58.2344C187.344 58.2344 186.461 58.0781 185.68 57.7656C184.898 57.4453 184.234 57.0039 183.688 56.4414C183.148 55.8789 182.734 55.2266 182.445 54.4844C182.156 53.7344 182.012 52.9375 182.012 52.0938V51.625C182.012 50.6641 182.148 49.7852 182.422 48.9883C182.695 48.1914 183.086 47.5 183.594 46.9141C184.109 46.3281 184.734 45.8789 185.469 45.5664C186.203 45.2461 187.031 45.0859 187.953 45.0859C188.852 45.0859 189.648 45.2344 190.344 45.5312C191.039 45.8281 191.621 46.25 192.09 46.7969C192.566 47.3438 192.926 48 193.168 48.7656C193.41 49.5234 193.531 50.3672 193.531 51.2969V52.7031H183.453V50.4531H190.215V50.1953C190.215 49.7266 190.129 49.3086 189.957 48.9414C189.793 48.5664 189.543 48.2695 189.207 48.0508C188.871 47.832 188.441 47.7227 187.918 47.7227C187.473 47.7227 187.09 47.8203 186.77 48.0156C186.449 48.2109 186.188 48.4844 185.984 48.8359C185.789 49.1875 185.641 49.6016 185.539 50.0781C185.445 50.5469 185.398 51.0625 185.398 51.625V52.0938C185.398 52.6016 185.469 53.0703 185.609 53.5C185.758 53.9297 185.965 54.3008 186.23 54.6133C186.504 54.9258 186.832 55.168 187.215 55.3398C187.605 55.5117 188.047 55.5977 188.539 55.5977C189.148 55.5977 189.715 55.4805 190.238 55.2461C190.77 55.0039 191.227 54.6406 191.609 54.1562L193.25 55.9375C192.984 56.3203 192.621 56.6875 192.16 57.0391C191.707 57.3906 191.16 57.6797 190.52 57.9062C189.879 58.125 189.148 58.2344 188.328 58.2344Z" fill="#888888"/>
<path d="M109.93 86.0078V118H102.217V86.0078H109.93ZM119.554 86.0078V91.9624H92.813V86.0078H119.554ZM132.012 118.439C130.079 118.439 128.35 118.139 126.827 117.539C125.303 116.923 124.014 116.081 122.959 115.012C121.919 113.942 121.121 112.712 120.564 111.32C120.022 109.929 119.751 108.457 119.751 106.904V106.069C119.751 104.326 119.993 102.714 120.477 101.235C120.96 99.7407 121.678 98.437 122.63 97.3237C123.582 96.2104 124.776 95.3462 126.211 94.731C127.647 94.1011 129.317 93.7861 131.221 93.7861C132.906 93.7861 134.415 94.0571 135.748 94.5991C137.081 95.1411 138.208 95.9175 139.131 96.9282C140.069 97.939 140.779 99.1621 141.263 100.598C141.761 102.033 142.01 103.645 142.01 105.432V108.442H122.586V103.806H134.781V103.234C134.795 102.443 134.656 101.77 134.363 101.213C134.085 100.656 133.675 100.231 133.133 99.9385C132.591 99.6455 131.932 99.499 131.155 99.499C130.35 99.499 129.683 99.6748 129.156 100.026C128.643 100.378 128.24 100.861 127.947 101.477C127.669 102.077 127.471 102.773 127.354 103.564C127.237 104.355 127.178 105.19 127.178 106.069V106.904C127.178 107.783 127.295 108.581 127.53 109.299C127.779 110.017 128.13 110.632 128.584 111.145C129.053 111.643 129.61 112.031 130.254 112.309C130.914 112.587 131.661 112.727 132.496 112.727C133.506 112.727 134.502 112.536 135.484 112.155C136.465 111.774 137.308 111.145 138.011 110.266L141.373 114.265C140.889 114.953 140.201 115.62 139.307 116.264C138.428 116.909 137.374 117.436 136.143 117.846C134.913 118.242 133.536 118.439 132.012 118.439ZM155.062 112.727C155.75 112.727 156.336 112.602 156.819 112.353C157.317 112.089 157.691 111.723 157.94 111.254C158.204 110.771 158.328 110.192 158.313 109.519H165.279C165.293 111.306 164.854 112.873 163.96 114.221C163.082 115.554 161.88 116.594 160.357 117.341C158.848 118.073 157.142 118.439 155.237 118.439C153.377 118.439 151.751 118.139 150.359 117.539C148.968 116.923 147.803 116.074 146.866 114.99C145.943 113.891 145.247 112.609 144.778 111.145C144.324 109.68 144.097 108.09 144.097 106.376V105.871C144.097 104.157 144.324 102.568 144.778 101.103C145.247 99.6235 145.943 98.3418 146.866 97.2578C147.803 96.1592 148.96 95.3096 150.337 94.709C151.729 94.0938 153.348 93.7861 155.193 93.7861C157.171 93.7861 158.914 94.1597 160.423 94.9067C161.946 95.6538 163.14 96.7378 164.004 98.1587C164.869 99.5796 165.293 101.301 165.279 103.322H158.313C158.328 102.604 158.218 101.96 157.984 101.389C157.75 100.817 157.383 100.363 156.885 100.026C156.402 99.6748 155.779 99.499 155.018 99.499C154.256 99.499 153.641 99.6675 153.172 100.004C152.703 100.341 152.344 100.81 152.095 101.411C151.861 101.997 151.7 102.67 151.612 103.432C151.539 104.194 151.502 105.007 151.502 105.871V106.376C151.502 107.255 151.539 108.083 151.612 108.859C151.7 109.621 151.868 110.295 152.117 110.881C152.366 111.452 152.725 111.906 153.194 112.243C153.663 112.565 154.285 112.727 155.062 112.727ZM175.694 84.25V118H168.289V84.25H175.694ZM174.815 105.3L173.079 105.344C173.079 103.674 173.284 102.136 173.694 100.729C174.104 99.3232 174.69 98.1001 175.452 97.0601C176.214 96.02 177.129 95.2144 178.199 94.6431C179.268 94.0718 180.455 93.7861 181.758 93.7861C182.93 93.7861 184 93.9546 184.966 94.2915C185.948 94.6284 186.79 95.1704 187.493 95.9175C188.211 96.6646 188.76 97.6387 189.141 98.8398C189.537 100.041 189.734 101.506 189.734 103.234V118H182.286V103.19C182.286 102.224 182.146 101.477 181.868 100.949C181.604 100.407 181.224 100.034 180.726 99.8286C180.228 99.6089 179.62 99.499 178.902 99.499C178.038 99.499 177.334 99.6455 176.792 99.9385C176.25 100.231 175.833 100.642 175.54 101.169C175.262 101.682 175.071 102.29 174.969 102.993C174.866 103.696 174.815 104.465 174.815 105.3ZM221.88 109.497C221.88 108.999 221.807 108.552 221.661 108.156C221.514 107.746 221.243 107.365 220.848 107.014C220.452 106.662 219.881 106.311 219.134 105.959C218.401 105.593 217.435 105.212 216.233 104.816C214.827 104.348 213.472 103.82 212.168 103.234C210.865 102.634 209.7 101.938 208.675 101.147C207.649 100.341 206.836 99.4038 206.236 98.3345C205.635 97.2505 205.335 95.9907 205.335 94.5552C205.335 93.1782 205.643 91.9404 206.258 90.8418C206.873 89.7285 207.73 88.7837 208.829 88.0073C209.942 87.2163 211.246 86.6157 212.74 86.2056C214.234 85.7808 215.867 85.5684 217.64 85.5684C219.983 85.5684 222.049 85.9785 223.836 86.7988C225.638 87.6045 227.044 88.7544 228.055 90.2485C229.08 91.728 229.593 93.4785 229.593 95.5H221.924C221.924 94.6943 221.756 93.9839 221.419 93.3687C221.097 92.7534 220.606 92.27 219.947 91.9185C219.288 91.5669 218.46 91.3911 217.464 91.3911C216.497 91.3911 215.684 91.5376 215.025 91.8306C214.366 92.1235 213.868 92.519 213.531 93.0171C213.194 93.5005 213.025 94.0352 213.025 94.6211C213.025 95.1045 213.157 95.5439 213.421 95.9395C213.699 96.3203 214.087 96.6792 214.585 97.0161C215.098 97.353 215.713 97.6753 216.431 97.9829C217.164 98.2905 217.984 98.5908 218.892 98.8838C220.591 99.4258 222.1 100.034 223.418 100.708C224.751 101.367 225.872 102.121 226.78 102.971C227.703 103.806 228.399 104.758 228.868 105.827C229.351 106.896 229.593 108.105 229.593 109.453C229.593 110.888 229.314 112.163 228.758 113.276C228.201 114.389 227.403 115.334 226.363 116.11C225.323 116.872 224.078 117.451 222.627 117.846C221.177 118.242 219.559 118.439 217.771 118.439C216.131 118.439 214.512 118.234 212.916 117.824C211.333 117.399 209.898 116.755 208.609 115.891C207.32 115.012 206.287 113.891 205.511 112.529C204.749 111.152 204.368 109.519 204.368 107.629H212.103C212.103 108.566 212.227 109.357 212.476 110.002C212.725 110.646 213.091 111.167 213.575 111.562C214.058 111.943 214.651 112.221 215.354 112.397C216.058 112.558 216.863 112.639 217.771 112.639C218.753 112.639 219.544 112.5 220.145 112.221C220.745 111.928 221.185 111.547 221.463 111.079C221.741 110.595 221.88 110.068 221.88 109.497ZM245.743 94.2256V99.3672H231.417V94.2256H245.743ZM234.427 88.3149H241.832V110.244C241.832 110.874 241.905 111.364 242.051 111.716C242.198 112.053 242.447 112.294 242.798 112.441C243.165 112.573 243.648 112.639 244.249 112.639C244.673 112.639 245.025 112.631 245.303 112.617C245.582 112.587 245.845 112.551 246.094 112.507V117.802C245.464 118.007 244.805 118.161 244.117 118.264C243.428 118.381 242.696 118.439 241.919 118.439C240.337 118.439 238.982 118.19 237.854 117.692C236.741 117.194 235.892 116.411 235.306 115.341C234.72 114.272 234.427 112.88 234.427 111.167V88.3149ZM261.036 112.023V102.224C261.036 101.55 260.94 100.971 260.75 100.488C260.56 100.004 260.259 99.6309 259.849 99.3672C259.439 99.0889 258.89 98.9497 258.201 98.9497C257.645 98.9497 257.168 99.0449 256.773 99.2354C256.377 99.4258 256.077 99.7114 255.872 100.092C255.667 100.473 255.564 100.957 255.564 101.542H248.16C248.16 100.444 248.401 99.4258 248.885 98.4883C249.383 97.5361 250.086 96.7085 250.994 96.0054C251.917 95.3022 253.016 94.7603 254.29 94.3794C255.579 93.9839 257.015 93.7861 258.597 93.7861C260.486 93.7861 262.171 94.1011 263.65 94.731C265.145 95.3608 266.324 96.3057 267.188 97.5654C268.052 98.8105 268.484 100.378 268.484 102.268V112.001C268.484 113.554 268.572 114.733 268.748 115.539C268.924 116.33 269.173 117.026 269.495 117.626V118H262.068C261.717 117.268 261.453 116.374 261.277 115.319C261.116 114.25 261.036 113.151 261.036 112.023ZM261.937 103.476L261.98 107.431H258.707C258.018 107.431 257.432 107.526 256.949 107.717C256.48 107.907 256.099 108.171 255.806 108.508C255.528 108.83 255.323 109.196 255.191 109.606C255.074 110.017 255.015 110.449 255.015 110.903C255.015 111.342 255.118 111.738 255.323 112.089C255.542 112.426 255.835 112.69 256.202 112.88C256.568 113.071 256.978 113.166 257.432 113.166C258.252 113.166 258.948 113.012 259.52 112.705C260.105 112.382 260.552 111.994 260.86 111.54C261.167 111.086 261.321 110.661 261.321 110.266L262.947 113.298C262.654 113.884 262.317 114.477 261.937 115.078C261.57 115.678 261.109 116.235 260.552 116.748C260.01 117.246 259.344 117.656 258.553 117.978C257.762 118.286 256.802 118.439 255.674 118.439C254.209 118.439 252.862 118.139 251.631 117.539C250.416 116.938 249.441 116.103 248.709 115.034C247.977 113.95 247.61 112.705 247.61 111.298C247.61 110.068 247.83 108.969 248.27 108.002C248.724 107.036 249.405 106.215 250.313 105.542C251.221 104.868 252.378 104.355 253.785 104.003C255.191 103.652 256.846 103.476 258.75 103.476H261.937ZM282.635 112.727C283.323 112.727 283.909 112.602 284.393 112.353C284.891 112.089 285.264 111.723 285.513 111.254C285.777 110.771 285.901 110.192 285.887 109.519H292.852C292.867 111.306 292.427 112.873 291.534 114.221C290.655 115.554 289.454 116.594 287.93 117.341C286.421 118.073 284.715 118.439 282.811 118.439C280.95 118.439 279.324 118.139 277.933 117.539C276.541 116.923 275.376 116.074 274.439 114.99C273.516 113.891 272.82 112.609 272.352 111.145C271.897 109.68 271.67 108.09 271.67 106.376V105.871C271.67 104.157 271.897 102.568 272.352 101.103C272.82 99.6235 273.516 98.3418 274.439 97.2578C275.376 96.1592 276.534 95.3096 277.911 94.709C279.302 94.0938 280.921 93.7861 282.767 93.7861C284.744 93.7861 286.487 94.1597 287.996 94.9067C289.52 95.6538 290.713 96.7378 291.578 98.1587C292.442 99.5796 292.867 101.301 292.852 103.322H285.887C285.901 102.604 285.792 101.96 285.557 101.389C285.323 100.817 284.957 100.363 284.458 100.026C283.975 99.6748 283.353 99.499 282.591 99.499C281.829 99.499 281.214 99.6675 280.745 100.004C280.276 100.341 279.917 100.81 279.668 101.411C279.434 101.997 279.273 102.67 279.185 103.432C279.112 104.194 279.075 105.007 279.075 105.871V106.376C279.075 107.255 279.112 108.083 279.185 108.859C279.273 109.621 279.441 110.295 279.69 110.881C279.939 111.452 280.298 111.906 280.767 112.243C281.236 112.565 281.858 112.727 282.635 112.727ZM303.487 84.228V118H296.082V84.228H303.487ZM318.692 94.2256L308.365 106.333L302.959 111.738L299.729 107.036L304.234 101.169L309.815 94.2256H318.692ZM310.76 118L304.41 107.167L309.881 103.278L319.241 118H310.76Z" fill="#424241"/>
<path d="M1363 15C1363 6.71573 1356.28 0 1348 0H1134V167H1348C1356.28 167 1363 160.284 1363 152V15Z" fill="url(#paint0_linear_2_49)"/>
<path fill-rule="evenodd" clip-rule="evenodd" d="M1218.5 55C1218.37 55 1218.24 55.0527 1218.15 55.1464C1218.05 55.2402 1218 55.3674 1218 55.5V111.5C1218 111.633 1218.05 111.76 1218.15 111.854C1218.24 111.947 1218.37 112 1218.5 112H1278C1278.13 112 1278.26 111.947 1278.35 111.854C1278.45 111.76 1278.5 111.633 1278.5 111.5V66C1278.5 65.8674 1278.45 65.7402 1278.35 65.6464C1278.26 65.5527 1278.13 65.5 1278 65.5H1248.25C1247.36 65.5 1246.52 65.1045 1245.95 64.4206L1238.09 55H1218.5ZM1213.9 50.9038C1215.12 49.6848 1216.78 49 1218.5 49H1239.5C1240.39 49 1241.23 49.3955 1241.8 50.0794L1249.66 59.5H1278C1279.72 59.5 1281.38 60.1848 1282.6 61.4038C1283.82 62.6228 1284.5 64.2761 1284.5 66V111.5C1284.5 113.224 1283.82 114.877 1282.6 116.096C1281.38 117.315 1279.72 118 1278 118H1218.5C1216.78 118 1215.12 117.315 1213.9 116.096C1212.68 114.877 1212 113.224 1212 111.5V55.5C1212 53.7761 1212.68 52.1228 1213.9 50.9038Z" fill="white"/>
<path fill-rule="evenodd" clip-rule="evenodd" d="M1243.72 77.5251C1245.09 78.892 1245.09 81.108 1243.72 82.4749L1237.45 88.75L1243.72 95.0251C1245.09 96.392 1245.09 98.608 1243.72 99.9749C1242.36 101.342 1240.14 101.342 1238.78 99.9749L1230.03 91.2249C1228.66 89.858 1228.66 87.642 1230.03 86.2751L1238.78 77.5251C1240.14 76.1583 1242.36 76.1583 1243.72 77.5251Z" fill="white"/>
<path fill-rule="evenodd" clip-rule="evenodd" d="M1252.03 99.9749C1250.66 98.608 1250.66 96.392 1252.03 95.0251L1258.3 88.75L1252.03 82.4749C1250.66 81.108 1250.66 78.892 1252.03 77.5251C1253.39 76.1583 1255.61 76.1583 1256.97 77.5251L1265.72 86.2751C1267.09 87.642 1267.09 89.858 1265.72 91.2249L1256.97 99.9749C1255.61 101.342 1253.39 101.342 1252.03 99.9749Z" fill="white"/>
<defs>
<linearGradient id="paint0_linear_2_49" x1="1248.5" y1="0" x2="1248.5" y2="167" gradientUnits="userSpaceOnUse">
<stop stop-color="#BD00FF"/>
<stop offset="1" stop-color="#141CCB"/>
</linearGradient>
</defs>
</svg>
