<svg width="1363" height="167" viewBox="0 0 1363 167" fill="none" xmlns="http://www.w3.org/2000/svg">
<rect width="1363" height="167" rx="15" fill="#F0F0F0"/>
<path d="M0 15C0 6.71573 6.71573 0 15 0H37V167H15C6.71573 167 0 160.284 0 152V15Z" fill="#424241"/>
<path d="M100.906 50.9219L93.3945 48.2383V45.0859L103.602 49.375V51.6367L100.906 50.9219ZM93.3945 53.1719L100.918 50.4297L103.602 49.7852V52.0352L93.3945 56.3242V53.1719ZM111.898 40.9375H118.262C119.566 40.9375 120.688 41.1328 121.625 41.5234C122.57 41.9141 123.297 42.4922 123.805 43.2578C124.312 44.0234 124.566 44.9648 124.566 46.082C124.566 46.9961 124.41 47.7812 124.098 48.4375C123.793 49.0859 123.359 49.6289 122.797 50.0664C122.242 50.4961 121.59 50.8398 120.84 51.0977L119.727 51.6836H114.195L114.172 48.9414H118.285C118.902 48.9414 119.414 48.832 119.82 48.6133C120.227 48.3945 120.531 48.0898 120.734 47.6992C120.945 47.3086 121.051 46.8555 121.051 46.3398C121.051 45.793 120.949 45.3203 120.746 44.9219C120.543 44.5234 120.234 44.2188 119.82 44.0078C119.406 43.7969 118.887 43.6914 118.262 43.6914H115.414V58H111.898V40.9375ZM121.438 58L117.547 50.3945L121.262 50.3711L125.199 57.8359V58H121.438ZM132.898 58.2344C131.914 58.2344 131.031 58.0781 130.25 57.7656C129.469 57.4453 128.805 57.0039 128.258 56.4414C127.719 55.8789 127.305 55.2266 127.016 54.4844C126.727 53.7344 126.582 52.9375 126.582 52.0938V51.625C126.582 50.6641 126.719 49.7852 126.992 48.9883C127.266 48.1914 127.656 47.5 128.164 46.9141C128.68 46.3281 129.305 45.8789 130.039 45.5664C130.773 45.2461 131.602 45.0859 132.523 45.0859C133.422 45.0859 134.219 45.2344 134.914 45.5312C135.609 45.8281 136.191 46.25 136.66 46.7969C137.137 47.3438 137.496 48 137.738 48.7656C137.98 49.5234 138.102 50.3672 138.102 51.2969V52.7031H128.023V50.4531H134.785V50.1953C134.785 49.7266 134.699 49.3086 134.527 48.9414C134.363 48.5664 134.113 48.2695 133.777 48.0508C133.441 47.832 133.012 47.7227 132.488 47.7227C132.043 47.7227 131.66 47.8203 131.34 48.0156C131.02 48.2109 130.758 48.4844 130.555 48.8359C130.359 49.1875 130.211 49.6016 130.109 50.0781C130.016 50.5469 129.969 51.0625 129.969 51.625V52.0938C129.969 52.6016 130.039 53.0703 130.18 53.5C130.328 53.9297 130.535 54.3008 130.801 54.6133C131.074 54.9258 131.402 55.168 131.785 55.3398C132.176 55.5117 132.617 55.5977 133.109 55.5977C133.719 55.5977 134.285 55.4805 134.809 55.2461C135.34 55.0039 135.797 54.6406 136.18 54.1562L137.82 55.9375C137.555 56.3203 137.191 56.6875 136.73 57.0391C136.277 57.3906 135.73 57.6797 135.09 57.9062C134.449 58.125 133.719 58.2344 132.898 58.2344ZM143.398 47.9453V58H140.012V45.3203H143.188L143.398 47.9453ZM142.93 51.2148H141.992C141.992 50.332 142.098 49.5195 142.309 48.7773C142.527 48.0273 142.844 47.3789 143.258 46.832C143.68 46.2773 144.199 45.8477 144.816 45.543C145.434 45.2383 146.148 45.0859 146.961 45.0859C147.523 45.0859 148.039 45.1719 148.508 45.3438C148.977 45.5078 149.379 45.7695 149.715 46.1289C150.059 46.4805 150.324 46.9414 150.512 47.5117C150.699 48.0742 150.793 48.75 150.793 49.5391V58H147.418V49.9141C147.418 49.3359 147.34 48.8906 147.184 48.5781C147.027 48.2656 146.805 48.0469 146.516 47.9219C146.234 47.7969 145.895 47.7344 145.496 47.7344C145.059 47.7344 144.676 47.8242 144.348 48.0039C144.027 48.1836 143.762 48.4336 143.551 48.7539C143.34 49.0664 143.184 49.4336 143.082 49.8555C142.98 50.2773 142.93 50.7305 142.93 51.2148ZM150.477 50.8281L149.27 50.9805C149.27 50.1523 149.371 49.3828 149.574 48.6719C149.785 47.9609 150.094 47.3359 150.5 46.7969C150.914 46.2578 151.426 45.8398 152.035 45.543C152.645 45.2383 153.348 45.0859 154.145 45.0859C154.754 45.0859 155.309 45.1758 155.809 45.3555C156.309 45.5273 156.734 45.8047 157.086 46.1875C157.445 46.5625 157.719 47.0547 157.906 47.6641C158.102 48.2734 158.199 49.0195 158.199 49.9023V58H154.812V49.9023C154.812 49.3164 154.734 48.8711 154.578 48.5664C154.43 48.2539 154.211 48.0391 153.922 47.9219C153.641 47.7969 153.305 47.7344 152.914 47.7344C152.508 47.7344 152.152 47.8164 151.848 47.9805C151.543 48.1367 151.289 48.3555 151.086 48.6367C150.883 48.918 150.73 49.2461 150.629 49.6211C150.527 49.9883 150.477 50.3906 150.477 50.8281ZM160.273 51.7891V51.543C160.273 50.6133 160.406 49.7578 160.672 48.9766C160.938 48.1875 161.324 47.5039 161.832 46.9258C162.34 46.3477 162.965 45.8984 163.707 45.5781C164.449 45.25 165.301 45.0859 166.262 45.0859C167.223 45.0859 168.078 45.25 168.828 45.5781C169.578 45.8984 170.207 46.3477 170.715 46.9258C171.23 47.5039 171.621 48.1875 171.887 48.9766C172.152 49.7578 172.285 50.6133 172.285 51.543V51.7891C172.285 52.7109 172.152 53.5664 171.887 54.3555C171.621 55.1367 171.23 55.8203 170.715 56.4062C170.207 56.9844 169.582 57.4336 168.84 57.7539C168.098 58.0742 167.246 58.2344 166.285 58.2344C165.324 58.2344 164.469 58.0742 163.719 57.7539C162.977 57.4336 162.348 56.9844 161.832 56.4062C161.324 55.8203 160.938 55.1367 160.672 54.3555C160.406 53.5664 160.273 52.7109 160.273 51.7891ZM163.648 51.543V51.7891C163.648 52.3203 163.695 52.8164 163.789 53.2773C163.883 53.7383 164.031 54.1445 164.234 54.4961C164.445 54.8398 164.719 55.1094 165.055 55.3047C165.391 55.5 165.801 55.5977 166.285 55.5977C166.754 55.5977 167.156 55.5 167.492 55.3047C167.828 55.1094 168.098 54.8398 168.301 54.4961C168.504 54.1445 168.652 53.7383 168.746 53.2773C168.848 52.8164 168.898 52.3203 168.898 51.7891V51.543C168.898 51.0273 168.848 50.543 168.746 50.0898C168.652 49.6289 168.5 49.2227 168.289 48.8711C168.086 48.5117 167.816 48.2305 167.48 48.0273C167.145 47.8242 166.738 47.7227 166.262 47.7227C165.785 47.7227 165.379 47.8242 165.043 48.0273C164.715 48.2305 164.445 48.5117 164.234 48.8711C164.031 49.2227 163.883 49.6289 163.789 50.0898C163.695 50.543 163.648 51.0273 163.648 51.543ZM180.57 45.3203V47.7109H173.188V45.3203H180.57ZM175.016 42.1914H178.391V54.1797C178.391 54.5469 178.438 54.8281 178.531 55.0234C178.633 55.2188 178.781 55.3555 178.977 55.4336C179.172 55.5039 179.418 55.5391 179.715 55.5391C179.926 55.5391 180.113 55.5312 180.277 55.5156C180.449 55.4922 180.594 55.4688 180.711 55.4453L180.723 57.9297C180.434 58.0234 180.121 58.0977 179.785 58.1523C179.449 58.207 179.078 58.2344 178.672 58.2344C177.93 58.2344 177.281 58.1133 176.727 57.8711C176.18 57.6211 175.758 57.2227 175.461 56.6758C175.164 56.1289 175.016 55.4102 175.016 54.5195V42.1914ZM188.328 58.2344C187.344 58.2344 186.461 58.0781 185.68 57.7656C184.898 57.4453 184.234 57.0039 183.688 56.4414C183.148 55.8789 182.734 55.2266 182.445 54.4844C182.156 53.7344 182.012 52.9375 182.012 52.0938V51.625C182.012 50.6641 182.148 49.7852 182.422 48.9883C182.695 48.1914 183.086 47.5 183.594 46.9141C184.109 46.3281 184.734 45.8789 185.469 45.5664C186.203 45.2461 187.031 45.0859 187.953 45.0859C188.852 45.0859 189.648 45.2344 190.344 45.5312C191.039 45.8281 191.621 46.25 192.09 46.7969C192.566 47.3438 192.926 48 193.168 48.7656C193.41 49.5234 193.531 50.3672 193.531 51.2969V52.7031H183.453V50.4531H190.215V50.1953C190.215 49.7266 190.129 49.3086 189.957 48.9414C189.793 48.5664 189.543 48.2695 189.207 48.0508C188.871 47.832 188.441 47.7227 187.918 47.7227C187.473 47.7227 187.09 47.8203 186.77 48.0156C186.449 48.2109 186.188 48.4844 185.984 48.8359C185.789 49.1875 185.641 49.6016 185.539 50.0781C185.445 50.5469 185.398 51.0625 185.398 51.625V52.0938C185.398 52.6016 185.469 53.0703 185.609 53.5C185.758 53.9297 185.965 54.3008 186.23 54.6133C186.504 54.9258 186.832 55.168 187.215 55.3398C187.605 55.5117 188.047 55.5977 188.539 55.5977C189.148 55.5977 189.715 55.4805 190.238 55.2461C190.77 55.0039 191.227 54.6406 191.609 54.1562L193.25 55.9375C192.984 56.3203 192.621 56.6875 192.16 57.0391C191.707 57.3906 191.16 57.6797 190.52 57.9062C189.879 58.125 189.148 58.2344 188.328 58.2344Z" fill="#888888"/>
<path d="M115.994 98.708V104.641H99.5806V98.708H115.994ZM102.151 86.0078V118H94.439V86.0078H102.151ZM121.18 86.0078V118H113.489V86.0078H121.18ZM124.805 106.354V105.893C124.805 104.15 125.054 102.546 125.552 101.081C126.05 99.6016 126.783 98.3198 127.75 97.2358C128.716 96.1519 129.91 95.3096 131.331 94.709C132.752 94.0938 134.393 93.7861 136.253 93.7861C138.128 93.7861 139.776 94.0938 141.197 94.709C142.632 95.3096 143.833 96.1519 144.8 97.2358C145.767 98.3198 146.5 99.6016 146.998 101.081C147.496 102.546 147.745 104.15 147.745 105.893V106.354C147.745 108.083 147.496 109.687 146.998 111.167C146.5 112.631 145.767 113.913 144.8 115.012C143.833 116.096 142.64 116.938 141.219 117.539C139.798 118.139 138.157 118.439 136.297 118.439C134.437 118.439 132.789 118.139 131.353 117.539C129.917 116.938 128.716 116.096 127.75 115.012C126.783 113.913 126.05 112.631 125.552 111.167C125.054 109.687 124.805 108.083 124.805 106.354ZM132.21 105.893V106.354C132.21 107.248 132.276 108.083 132.408 108.859C132.54 109.636 132.759 110.317 133.067 110.903C133.375 111.474 133.792 111.921 134.319 112.243C134.847 112.565 135.506 112.727 136.297 112.727C137.073 112.727 137.718 112.565 138.23 112.243C138.758 111.921 139.175 111.474 139.483 110.903C139.791 110.317 140.01 109.636 140.142 108.859C140.274 108.083 140.34 107.248 140.34 106.354V105.893C140.34 105.029 140.274 104.216 140.142 103.454C140.01 102.678 139.791 101.997 139.483 101.411C139.175 100.81 138.758 100.341 138.23 100.004C137.703 99.6675 137.044 99.499 136.253 99.499C135.477 99.499 134.825 99.6675 134.297 100.004C133.785 100.341 133.375 100.81 133.067 101.411C132.759 101.997 132.54 102.678 132.408 103.454C132.276 104.216 132.21 105.029 132.21 105.893ZM158.27 110.925L162.664 94.2256H167.3L165.652 102.597L161.302 118H157.588L158.27 110.925ZM156.534 94.2256L159.258 110.793L159.566 118H155.062L149.437 94.2256H156.534ZM171.211 110.441L173.958 94.2256H181.055L175.474 118H170.97L171.211 110.441ZM167.828 94.2256L172.266 110.881L172.947 118H169.19L164.927 102.641L163.345 94.2256H167.828ZM209.466 86.0078V118H201.753V86.0078H209.466ZM219.09 86.0078V91.9624H192.349V86.0078H219.09ZM216.475 106.354V105.893C216.475 104.15 216.724 102.546 217.222 101.081C217.72 99.6016 218.453 98.3198 219.419 97.2358C220.386 96.1519 221.58 95.3096 223.001 94.709C224.422 94.0938 226.062 93.7861 227.923 93.7861C229.798 93.7861 231.446 94.0938 232.867 94.709C234.302 95.3096 235.503 96.1519 236.47 97.2358C237.437 98.3198 238.169 99.6016 238.667 101.081C239.166 102.546 239.415 104.15 239.415 105.893V106.354C239.415 108.083 239.166 109.687 238.667 111.167C238.169 112.631 237.437 113.913 236.47 115.012C235.503 116.096 234.31 116.938 232.889 117.539C231.468 118.139 229.827 118.439 227.967 118.439C226.106 118.439 224.458 118.139 223.023 117.539C221.587 116.938 220.386 116.096 219.419 115.012C218.453 113.913 217.72 112.631 217.222 111.167C216.724 109.687 216.475 108.083 216.475 106.354ZM223.88 105.893V106.354C223.88 107.248 223.946 108.083 224.078 108.859C224.209 109.636 224.429 110.317 224.737 110.903C225.044 111.474 225.462 111.921 225.989 112.243C226.517 112.565 227.176 112.727 227.967 112.727C228.743 112.727 229.388 112.565 229.9 112.243C230.428 111.921 230.845 111.474 231.153 110.903C231.46 110.317 231.68 109.636 231.812 108.859C231.944 108.083 232.01 107.248 232.01 106.354V105.893C232.01 105.029 231.944 104.216 231.812 103.454C231.68 102.678 231.46 101.997 231.153 101.411C230.845 100.81 230.428 100.341 229.9 100.004C229.373 99.6675 228.714 99.499 227.923 99.499C227.146 99.499 226.495 99.6675 225.967 100.004C225.455 100.341 225.044 100.81 224.737 101.411C224.429 101.997 224.209 102.678 224.078 103.454C223.946 104.216 223.88 105.029 223.88 105.893ZM254.268 86.0078H266.858C269.319 86.0078 271.458 86.374 273.274 87.1064C275.091 87.8389 276.49 88.9229 277.471 90.3584C278.467 91.7939 278.965 93.5664 278.965 95.6758C278.965 97.5068 278.68 99.0376 278.108 100.268C277.537 101.499 276.739 102.517 275.713 103.322C274.703 104.113 273.523 104.765 272.176 105.278L269.649 106.706H259.08L259.036 100.751H266.858C267.84 100.751 268.653 100.576 269.297 100.224C269.942 99.8726 270.425 99.3745 270.748 98.73C271.084 98.0708 271.253 97.2871 271.253 96.3789C271.253 95.4561 271.084 94.665 270.748 94.0059C270.411 93.3467 269.913 92.8413 269.253 92.4897C268.609 92.1382 267.811 91.9624 266.858 91.9624H261.98V118H254.268V86.0078ZM271.78 118L264.705 103.85L272.879 103.806L280.042 117.67V118H271.78ZM297.159 112.221V94.2256H304.585V118H297.642L297.159 112.221ZM297.862 107.387L299.795 107.343C299.795 108.94 299.605 110.419 299.224 111.782C298.843 113.129 298.279 114.301 297.532 115.297C296.8 116.293 295.892 117.07 294.808 117.626C293.738 118.168 292.5 118.439 291.094 118.439C289.922 118.439 288.846 118.278 287.864 117.956C286.897 117.619 286.062 117.099 285.359 116.396C284.656 115.678 284.107 114.763 283.711 113.649C283.331 112.521 283.14 111.174 283.14 109.606V94.2256H290.545V109.65C290.545 110.178 290.611 110.632 290.743 111.013C290.875 111.394 291.065 111.716 291.314 111.979C291.563 112.229 291.871 112.419 292.237 112.551C292.618 112.668 293.05 112.727 293.533 112.727C294.646 112.727 295.518 112.492 296.148 112.023C296.778 111.555 297.217 110.917 297.466 110.112C297.73 109.306 297.862 108.398 297.862 107.387ZM315.945 99.3013V118H308.541V94.2256H315.484L315.945 99.3013ZM315.066 105.3L313.331 105.344C313.331 103.527 313.55 101.909 313.99 100.488C314.429 99.0522 315.052 97.8364 315.857 96.8403C316.663 95.8442 317.623 95.0898 318.736 94.5771C319.864 94.0498 321.116 93.7861 322.493 93.7861C323.592 93.7861 324.595 93.9473 325.503 94.2695C326.426 94.5918 327.217 95.1118 327.876 95.8296C328.55 96.5474 329.063 97.4995 329.415 98.686C329.781 99.8579 329.964 101.308 329.964 103.037V118H322.515V103.015C322.515 102.062 322.383 101.337 322.12 100.839C321.856 100.327 321.475 99.9751 320.977 99.7847C320.479 99.5942 319.871 99.499 319.153 99.499C318.392 99.499 317.747 99.6455 317.22 99.9385C316.692 100.231 316.268 100.642 315.945 101.169C315.638 101.682 315.411 102.29 315.264 102.993C315.132 103.696 315.066 104.465 315.066 105.3ZM345.85 107.871H339.544C339.544 106.582 339.632 105.446 339.808 104.465C339.998 103.469 340.32 102.575 340.774 101.784C341.229 100.993 341.844 100.261 342.62 99.5869C343.309 99.0156 343.902 98.4663 344.4 97.939C344.898 97.4116 345.279 96.877 345.542 96.335C345.806 95.793 345.938 95.2144 345.938 94.5991C345.938 93.8374 345.828 93.2148 345.608 92.7314C345.403 92.248 345.088 91.8892 344.664 91.6548C344.253 91.4058 343.733 91.2812 343.104 91.2812C342.591 91.2812 342.107 91.4058 341.653 91.6548C341.214 91.9038 340.855 92.292 340.577 92.8193C340.298 93.332 340.145 94.0132 340.115 94.8628H332.667C332.71 92.6802 333.194 90.9077 334.117 89.5454C335.054 88.1685 336.299 87.165 337.852 86.5352C339.419 85.8906 341.17 85.5684 343.104 85.5684C345.242 85.5684 347.081 85.8979 348.619 86.5571C350.157 87.2163 351.336 88.1978 352.156 89.5015C352.977 90.7905 353.387 92.3799 353.387 94.2695C353.387 95.5293 353.145 96.6279 352.662 97.5654C352.193 98.4883 351.556 99.3525 350.75 100.158C349.959 100.949 349.073 101.799 348.091 102.707C347.242 103.454 346.663 104.216 346.355 104.992C346.048 105.754 345.879 106.713 345.85 107.871ZM338.643 114.55C338.643 113.496 339.024 112.617 339.786 111.914C340.547 111.196 341.536 110.837 342.752 110.837C343.968 110.837 344.957 111.196 345.718 111.914C346.48 112.617 346.861 113.496 346.861 114.55C346.861 115.605 346.48 116.491 345.718 117.209C344.957 117.912 343.968 118.264 342.752 118.264C341.536 118.264 340.547 117.912 339.786 117.209C339.024 116.491 338.643 115.605 338.643 114.55Z" fill="#424241"/>
<path d="M1363 15C1363 6.71573 1356.28 0 1348 0H1134V167H1348C1356.28 167 1363 160.284 1363 152V15Z" fill="url(#paint0_linear_2_57)"/>
<path d="M1260.77 81.3079C1263.96 81.3079 1267.09 82.2553 1269.74 84.0303C1272.4 85.8053 1274.47 88.3282 1275.69 91.2799C1276.92 94.2316 1277.24 97.4796 1276.61 100.613C1275.99 103.747 1274.45 106.625 1272.19 108.884C1269.93 111.143 1267.05 112.682 1263.92 113.305C1260.79 113.928 1257.54 113.608 1254.59 112.386C1251.64 111.163 1249.11 109.093 1247.34 106.436C1245.56 103.78 1244.62 100.657 1244.62 97.4617C1244.62 93.1774 1246.32 89.0686 1249.35 86.0392C1252.38 83.0098 1256.48 81.3079 1260.77 81.3079ZM1260.77 75.9233C1256.51 75.9233 1252.35 77.1865 1248.8 79.5532C1245.26 81.9198 1242.5 85.2837 1240.87 89.2193C1239.24 93.1549 1238.81 97.4856 1239.64 101.664C1240.48 105.842 1242.53 109.679 1245.54 112.692C1248.55 115.704 1252.39 117.755 1256.57 118.586C1260.75 119.417 1265.08 118.991 1269.01 117.361C1272.95 115.73 1276.31 112.97 1278.68 109.428C1281.04 105.886 1282.31 101.722 1282.31 97.4617C1282.31 91.7493 1280.04 86.271 1276 82.2317C1271.96 78.1925 1266.48 75.9233 1260.77 75.9233Z" fill="white"/>
<path d="M1274.23 49H1220.38C1218.96 49 1217.59 49.5673 1216.58 50.5771C1215.57 51.5869 1215 52.9565 1215 54.3846V108.231C1215 109.659 1215.57 111.028 1216.58 112.038C1217.59 113.048 1218.96 113.615 1220.38 113.615H1231.15V108.231H1220.38V70.5384H1279.62V54.3846C1279.62 52.9565 1279.05 51.5869 1278.04 50.5771C1277.03 49.5673 1275.66 49 1274.23 49ZM1220.38 65.1538V54.3846H1274.23V65.1538H1220.38Z" fill="white"/>
<path d="M1255.38 89.3849V105.539L1268.85 97.4618L1255.38 89.3849Z" fill="white"/>
<defs>
<linearGradient id="paint0_linear_2_57" x1="1248.5" y1="0" x2="1248.5" y2="167" gradientUnits="userSpaceOnUse">
<stop stop-color="#BD00FF"/>
<stop offset="1" stop-color="#141CCB"/>
</linearGradient>
</defs>
</svg>
