<svg width="1363" height="301" viewBox="0 0 1363 301" fill="none" xmlns="http://www.w3.org/2000/svg">
<rect width="1363" height="301" rx="15" fill="#F0F0F0"/>
<path d="M0 15C0 6.71573 6.71573 0 15 0H37V301H15C6.71573 301 0 294.284 0 286V15Z" fill="url(#paint0_linear_3_60)"/>
<path d="M94.981 104.898H110.369C113.377 104.898 115.991 105.346 118.211 106.241C120.431 107.136 122.141 108.461 123.34 110.216C124.558 111.97 125.167 114.137 125.167 116.715C125.167 118.953 124.817 120.824 124.119 122.328C123.421 123.832 122.445 125.076 121.192 126.061C119.957 127.027 118.515 127.824 116.868 128.451L113.78 130.196H100.862L100.809 122.918H110.369C111.569 122.918 112.562 122.704 113.35 122.274C114.138 121.844 114.729 121.236 115.123 120.448C115.534 119.642 115.74 118.684 115.74 117.574C115.74 116.446 115.534 115.479 115.123 114.674C114.711 113.868 114.102 113.25 113.296 112.821C112.509 112.391 111.533 112.176 110.369 112.176H104.407V144H94.981V104.898ZM116.385 144L107.737 126.705L117.728 126.651L126.482 143.597V144H116.385ZM144.502 144.537C142.139 144.537 140.027 144.17 138.165 143.436C136.303 142.684 134.727 141.655 133.438 140.348C132.167 139.041 131.191 137.537 130.511 135.836C129.848 134.135 129.517 132.336 129.517 130.438V129.417C129.517 127.287 129.812 125.318 130.403 123.509C130.994 121.683 131.871 120.09 133.035 118.729C134.199 117.368 135.658 116.312 137.413 115.56C139.167 114.79 141.208 114.405 143.536 114.405C145.595 114.405 147.439 114.736 149.068 115.399C150.697 116.061 152.076 117.01 153.204 118.246C154.349 119.481 155.218 120.976 155.809 122.73C156.417 124.485 156.722 126.454 156.722 128.639V132.318H132.981V126.651H147.886V125.953C147.904 124.986 147.734 124.163 147.376 123.482C147.036 122.802 146.535 122.283 145.872 121.925C145.21 121.567 144.404 121.388 143.455 121.388C142.47 121.388 141.656 121.603 141.011 122.032C140.385 122.462 139.892 123.053 139.534 123.805C139.194 124.539 138.952 125.389 138.809 126.356C138.666 127.323 138.594 128.343 138.594 129.417V130.438C138.594 131.512 138.737 132.488 139.024 133.365C139.328 134.243 139.758 134.994 140.313 135.621C140.886 136.23 141.566 136.704 142.354 137.044C143.16 137.385 144.073 137.555 145.093 137.555C146.329 137.555 147.546 137.322 148.746 136.856C149.945 136.391 150.975 135.621 151.834 134.547L155.943 139.435C155.352 140.276 154.511 141.091 153.418 141.878C152.344 142.666 151.055 143.311 149.551 143.812C148.047 144.295 146.364 144.537 144.502 144.537ZM169.532 121.092V144H160.481V114.942H168.968L169.532 121.092ZM168.431 128.478L166.363 128.531C166.363 126.49 166.604 124.61 167.088 122.892C167.571 121.173 168.287 119.678 169.236 118.407C170.185 117.136 171.349 116.151 172.728 115.453C174.124 114.754 175.735 114.405 177.562 114.405C178.833 114.405 179.987 114.602 181.026 114.996C182.064 115.372 182.959 115.972 183.711 116.795C184.463 117.601 185.036 118.657 185.43 119.964C185.842 121.253 186.048 122.802 186.048 124.61V144H176.998V125.765C176.998 124.53 176.854 123.599 176.568 122.972C176.299 122.346 175.905 121.925 175.386 121.71C174.867 121.495 174.231 121.388 173.479 121.388C172.692 121.388 171.985 121.567 171.358 121.925C170.731 122.283 170.194 122.784 169.747 123.429C169.317 124.055 168.986 124.798 168.753 125.658C168.538 126.517 168.431 127.457 168.431 128.478ZM185.027 128.478L182.503 128.531C182.503 126.49 182.727 124.61 183.174 122.892C183.64 121.173 184.329 119.678 185.242 118.407C186.173 117.136 187.328 116.151 188.707 115.453C190.085 114.754 191.688 114.405 193.514 114.405C194.839 114.405 196.056 114.602 197.166 114.996C198.276 115.39 199.234 116.026 200.04 116.903C200.845 117.78 201.472 118.944 201.919 120.394C202.367 121.826 202.591 123.599 202.591 125.711V144H193.514V125.711C193.514 124.512 193.37 123.608 193.084 122.999C192.815 122.372 192.422 121.952 191.902 121.737C191.383 121.504 190.765 121.388 190.049 121.388C189.19 121.388 188.447 121.567 187.82 121.925C187.194 122.283 186.666 122.784 186.236 123.429C185.824 124.055 185.52 124.798 185.323 125.658C185.126 126.517 185.027 127.457 185.027 128.478ZM206.646 129.767V129.203C206.646 127.072 206.95 125.112 207.559 123.321C208.168 121.513 209.063 119.946 210.245 118.622C211.426 117.297 212.885 116.267 214.622 115.533C216.359 114.781 218.364 114.405 220.638 114.405C222.929 114.405 224.944 114.781 226.68 115.533C228.435 116.267 229.903 117.297 231.084 118.622C232.266 119.946 233.161 121.513 233.77 123.321C234.379 125.112 234.683 127.072 234.683 129.203V129.767C234.683 131.879 234.379 133.84 233.77 135.648C233.161 137.438 232.266 139.005 231.084 140.348C229.903 141.673 228.444 142.702 226.707 143.436C224.97 144.17 222.965 144.537 220.691 144.537C218.418 144.537 216.403 144.17 214.649 143.436C212.894 142.702 211.426 141.673 210.245 140.348C209.063 139.005 208.168 137.438 207.559 135.648C206.95 133.84 206.646 131.879 206.646 129.767ZM215.696 129.203V129.767C215.696 130.859 215.777 131.879 215.938 132.828C216.099 133.777 216.368 134.61 216.744 135.326C217.12 136.024 217.63 136.57 218.274 136.964C218.919 137.358 219.725 137.555 220.691 137.555C221.64 137.555 222.428 137.358 223.055 136.964C223.699 136.57 224.209 136.024 224.585 135.326C224.961 134.61 225.23 133.777 225.391 132.828C225.552 131.879 225.633 130.859 225.633 129.767V129.203C225.633 128.146 225.552 127.153 225.391 126.222C225.23 125.273 224.961 124.44 224.585 123.724C224.209 122.99 223.699 122.417 223.055 122.005C222.41 121.594 221.604 121.388 220.638 121.388C219.689 121.388 218.892 121.594 218.248 122.005C217.621 122.417 217.12 122.99 216.744 123.724C216.368 124.44 216.099 125.273 215.938 126.222C215.777 127.153 215.696 128.146 215.696 129.203ZM254.019 114.942V121.227H236.509V114.942H254.019ZM240.188 107.718H249.239V134.52C249.239 135.29 249.328 135.89 249.507 136.319C249.686 136.731 249.991 137.027 250.42 137.206C250.868 137.367 251.459 137.447 252.193 137.447C252.712 137.447 253.142 137.438 253.482 137.42C253.822 137.385 254.144 137.34 254.449 137.286V143.758C253.679 144.009 252.873 144.197 252.032 144.322C251.19 144.465 250.295 144.537 249.346 144.537C247.413 144.537 245.757 144.233 244.378 143.624C243.017 143.015 241.979 142.057 241.263 140.75C240.547 139.444 240.188 137.743 240.188 135.648V107.718ZM271.69 144.537C269.327 144.537 267.214 144.17 265.352 143.436C263.49 142.684 261.915 141.655 260.625 140.348C259.354 139.041 258.379 137.537 257.698 135.836C257.036 134.135 256.705 132.336 256.705 130.438V129.417C256.705 127.287 257 125.318 257.591 123.509C258.182 121.683 259.059 120.09 260.223 118.729C261.386 117.368 262.846 116.312 264.6 115.56C266.355 114.79 268.396 114.405 270.723 114.405C272.782 114.405 274.626 114.736 276.255 115.399C277.885 116.061 279.263 117.01 280.391 118.246C281.537 119.481 282.405 120.976 282.996 122.73C283.605 124.485 283.909 126.454 283.909 128.639V132.318H260.169V126.651H275.074V125.953C275.092 124.986 274.922 124.163 274.563 123.482C274.223 122.802 273.722 122.283 273.06 121.925C272.397 121.567 271.591 121.388 270.643 121.388C269.658 121.388 268.843 121.603 268.199 122.032C267.572 122.462 267.08 123.053 266.722 123.805C266.382 124.539 266.14 125.389 265.997 126.356C265.853 127.323 265.782 128.343 265.782 129.417V130.438C265.782 131.512 265.925 132.488 266.211 133.365C266.516 134.243 266.945 134.994 267.5 135.621C268.073 136.23 268.754 136.704 269.542 137.044C270.347 137.385 271.26 137.555 272.281 137.555C273.516 137.555 274.734 137.322 275.933 136.856C277.133 136.391 278.162 135.621 279.021 134.547L283.13 139.435C282.54 140.276 281.698 141.091 280.606 141.878C279.532 142.666 278.243 143.311 276.739 143.812C275.235 144.295 273.552 144.537 271.69 144.537Z" fill="black"/>
<path d="M96.563 55.1172H100.904L107.295 73.3862L113.687 55.1172H118.028L109.039 80H105.552L96.563 55.1172ZM94.2217 55.1172H98.5454L99.3315 72.9248V80H94.2217V55.1172ZM116.045 55.1172H120.386V80H115.259V72.9248L116.045 55.1172ZM123.787 70.9424V70.5835C123.787 69.2277 123.981 67.9801 124.368 66.8408C124.756 65.6901 125.319 64.6932 126.06 63.8501C126.801 63.007 127.712 62.3519 128.794 61.8848C129.877 61.4062 131.119 61.167 132.52 61.167C133.921 61.167 135.169 61.4062 136.263 61.8848C137.356 62.3519 138.274 63.007 139.014 63.8501C139.766 64.6932 140.336 65.6901 140.723 66.8408C141.111 67.9801 141.304 69.2277 141.304 70.5835V70.9424C141.304 72.2868 141.111 73.5343 140.723 74.6851C140.336 75.8244 139.766 76.8213 139.014 77.6758C138.274 78.5189 137.362 79.174 136.28 79.6411C135.197 80.1082 133.956 80.3418 132.554 80.3418C131.153 80.3418 129.905 80.1082 128.812 79.6411C127.729 79.174 126.812 78.5189 126.06 77.6758C125.319 76.8213 124.756 75.8244 124.368 74.6851C123.981 73.5343 123.787 72.2868 123.787 70.9424ZM128.709 70.5835V70.9424C128.709 71.7171 128.777 72.4406 128.914 73.1128C129.051 73.785 129.267 74.3774 129.563 74.8901C129.871 75.3914 130.27 75.7845 130.76 76.0693C131.25 76.3542 131.848 76.4966 132.554 76.4966C133.238 76.4966 133.825 76.3542 134.314 76.0693C134.804 75.7845 135.197 75.3914 135.494 74.8901C135.79 74.3774 136.006 73.785 136.143 73.1128C136.291 72.4406 136.365 71.7171 136.365 70.9424V70.5835C136.365 69.8315 136.291 69.1252 136.143 68.4644C136.006 67.7922 135.784 67.1997 135.477 66.687C135.18 66.1629 134.787 65.7528 134.297 65.4565C133.807 65.1603 133.215 65.0122 132.52 65.0122C131.825 65.0122 131.233 65.1603 130.743 65.4565C130.264 65.7528 129.871 66.1629 129.563 66.687C129.267 67.1997 129.051 67.7922 128.914 68.4644C128.777 69.1252 128.709 69.8315 128.709 70.5835ZM149.131 53.75V80H144.209V53.75H149.131ZM148.431 70.105H147.081C147.092 68.8175 147.263 67.6326 147.593 66.5503C147.924 65.4565 148.396 64.5109 149.012 63.7134C149.627 62.9045 150.362 62.2778 151.216 61.8335C152.082 61.3892 153.039 61.167 154.087 61.167C154.999 61.167 155.825 61.298 156.565 61.5601C157.317 61.8107 157.961 62.2209 158.497 62.7905C159.043 63.3488 159.465 64.0837 159.761 64.9951C160.057 65.9066 160.206 67.0117 160.206 68.3105V80H155.25V68.2764C155.25 67.4561 155.13 66.8123 154.891 66.3452C154.663 65.8667 154.327 65.5306 153.882 65.3369C153.449 65.1318 152.914 65.0293 152.276 65.0293C151.569 65.0293 150.966 65.1603 150.464 65.4224C149.974 65.6844 149.581 66.049 149.285 66.5161C148.989 66.9718 148.772 67.5073 148.636 68.1226C148.499 68.7378 148.431 69.3986 148.431 70.105ZM173.929 75.8301V67.5928C173.929 67.0003 173.832 66.4933 173.638 66.0718C173.444 65.6388 173.143 65.3027 172.732 65.0635C172.334 64.8242 171.815 64.7046 171.177 64.7046C170.63 64.7046 170.158 64.8014 169.759 64.9951C169.36 65.1774 169.052 65.4451 168.836 65.7983C168.619 66.1401 168.511 66.5446 168.511 67.0117H163.589C163.589 66.2256 163.772 65.4793 164.136 64.7729C164.501 64.0666 165.031 63.4456 165.726 62.9102C166.421 62.3633 167.247 61.936 168.204 61.6284C169.172 61.3208 170.254 61.167 171.451 61.167C172.886 61.167 174.162 61.4062 175.279 61.8848C176.395 62.3633 177.273 63.0811 177.911 64.0381C178.56 64.9951 178.885 66.1914 178.885 67.627V75.5396C178.885 76.5535 178.947 77.3853 179.073 78.0347C179.198 78.6727 179.38 79.231 179.62 79.7095V80H174.646C174.407 79.4987 174.225 78.8721 174.1 78.1201C173.986 77.3568 173.929 76.5934 173.929 75.8301ZM174.578 68.7378L174.612 71.5234H171.861C171.211 71.5234 170.647 71.5975 170.169 71.7456C169.69 71.8937 169.297 72.1045 168.99 72.3779C168.682 72.64 168.454 72.9476 168.306 73.3008C168.169 73.654 168.101 74.0413 168.101 74.4629C168.101 74.8844 168.198 75.2661 168.392 75.6079C168.585 75.9383 168.864 76.2004 169.229 76.394C169.594 76.5763 170.021 76.6675 170.511 76.6675C171.251 76.6675 171.895 76.5194 172.442 76.2231C172.989 75.9269 173.41 75.5623 173.707 75.1294C174.014 74.6965 174.174 74.2863 174.185 73.8989L175.484 75.9839C175.302 76.451 175.051 76.9352 174.732 77.4365C174.424 77.9378 174.031 78.4106 173.553 78.855C173.074 79.2879 172.499 79.6468 171.827 79.9316C171.154 80.2051 170.357 80.3418 169.434 80.3418C168.261 80.3418 167.195 80.1082 166.238 79.6411C165.293 79.1626 164.541 78.5075 163.982 77.6758C163.436 76.8327 163.162 75.8757 163.162 74.8047C163.162 73.8363 163.344 72.9761 163.709 72.2241C164.074 71.4722 164.609 70.8398 165.315 70.3271C166.033 69.8031 166.928 69.41 167.999 69.1479C169.069 68.8745 170.311 68.7378 171.724 68.7378H174.578ZM187.601 65.3369V80H182.662V61.5088H187.293L187.601 65.3369ZM186.917 70.105H185.55C185.55 68.8175 185.704 67.6326 186.011 66.5503C186.33 65.4565 186.792 64.5109 187.396 63.7134C188.011 62.9045 188.768 62.2778 189.668 61.8335C190.569 61.3892 191.611 61.167 192.796 61.167C193.616 61.167 194.368 61.2923 195.052 61.543C195.735 61.7822 196.322 62.1639 196.812 62.688C197.313 63.2007 197.701 63.8729 197.974 64.7046C198.248 65.5249 198.384 66.5104 198.384 67.6611V80H193.462V68.208C193.462 67.3649 193.348 66.7155 193.121 66.2598C192.893 65.804 192.568 65.485 192.146 65.3027C191.736 65.1204 191.241 65.0293 190.66 65.0293C190.022 65.0293 189.463 65.1603 188.985 65.4224C188.518 65.6844 188.13 66.049 187.823 66.5161C187.515 66.9718 187.287 67.5073 187.139 68.1226C186.991 68.7378 186.917 69.3986 186.917 70.105ZM197.923 69.541L196.163 69.7632C196.163 68.5555 196.311 67.4333 196.607 66.3965C196.915 65.3597 197.365 64.4482 197.957 63.6621C198.561 62.876 199.307 62.2664 200.196 61.8335C201.084 61.3892 202.11 61.167 203.272 61.167C204.161 61.167 204.97 61.298 205.699 61.5601C206.428 61.8107 207.049 62.2152 207.562 62.7734C208.086 63.3203 208.484 64.0381 208.758 64.9268C209.043 65.8154 209.185 66.9035 209.185 68.1909V80H204.246V68.1909C204.246 67.3364 204.132 66.687 203.904 66.2427C203.688 65.7869 203.369 65.4736 202.947 65.3027C202.537 65.1204 202.047 65.0293 201.478 65.0293C200.885 65.0293 200.367 65.1489 199.922 65.3882C199.478 65.616 199.108 65.9351 198.812 66.3452C198.515 66.7554 198.293 67.2339 198.145 67.7808C197.997 68.3162 197.923 68.903 197.923 69.541ZM222.977 75.8301V67.5928C222.977 67.0003 222.88 66.4933 222.686 66.0718C222.492 65.6388 222.19 65.3027 221.78 65.0635C221.382 64.8242 220.863 64.7046 220.225 64.7046C219.678 64.7046 219.205 64.8014 218.807 64.9951C218.408 65.1774 218.1 65.4451 217.884 65.7983C217.667 66.1401 217.559 66.5446 217.559 67.0117H212.637C212.637 66.2256 212.819 65.4793 213.184 64.7729C213.549 64.0666 214.078 63.4456 214.773 62.9102C215.468 62.3633 216.294 61.936 217.251 61.6284C218.22 61.3208 219.302 61.167 220.499 61.167C221.934 61.167 223.21 61.4062 224.327 61.8848C225.443 62.3633 226.32 63.0811 226.958 64.0381C227.608 64.9951 227.933 66.1914 227.933 67.627V75.5396C227.933 76.5535 227.995 77.3853 228.121 78.0347C228.246 78.6727 228.428 79.231 228.667 79.7095V80H223.694C223.455 79.4987 223.273 78.8721 223.147 78.1201C223.034 77.3568 222.977 76.5934 222.977 75.8301ZM223.626 68.7378L223.66 71.5234H220.909C220.259 71.5234 219.695 71.5975 219.217 71.7456C218.738 71.8937 218.345 72.1045 218.038 72.3779C217.73 72.64 217.502 72.9476 217.354 73.3008C217.217 73.654 217.149 74.0413 217.149 74.4629C217.149 74.8844 217.246 75.2661 217.439 75.6079C217.633 75.9383 217.912 76.2004 218.277 76.394C218.641 76.5763 219.069 76.6675 219.559 76.6675C220.299 76.6675 220.943 76.5194 221.49 76.2231C222.037 75.9269 222.458 75.5623 222.754 75.1294C223.062 74.6965 223.222 74.2863 223.233 73.8989L224.532 75.9839C224.349 76.451 224.099 76.9352 223.78 77.4365C223.472 77.9378 223.079 78.4106 222.601 78.855C222.122 79.2879 221.547 79.6468 220.875 79.9316C220.202 80.2051 219.405 80.3418 218.482 80.3418C217.308 80.3418 216.243 80.1082 215.286 79.6411C214.34 79.1626 213.589 78.5075 213.03 77.6758C212.483 76.8327 212.21 75.8757 212.21 74.8047C212.21 73.8363 212.392 72.9761 212.757 72.2241C213.121 71.4722 213.657 70.8398 214.363 70.3271C215.081 69.8031 215.975 69.41 217.046 69.1479C218.117 68.8745 219.359 68.7378 220.772 68.7378H223.626ZM242.647 75.9668V53.75H247.603V80H243.143L242.647 75.9668ZM230.958 70.9766V70.6177C230.958 69.2049 231.117 67.9232 231.436 66.7725C231.755 65.6104 232.222 64.6134 232.837 63.7817C233.453 62.95 234.21 62.3063 235.11 61.8506C236.01 61.3949 237.036 61.167 238.187 61.167C239.269 61.167 240.215 61.3949 241.023 61.8506C241.844 62.3063 242.539 62.9557 243.108 63.7988C243.689 64.6305 244.157 65.616 244.51 66.7554C244.863 67.8833 245.119 69.1195 245.279 70.4639V71.25C245.119 72.5374 244.863 73.7337 244.51 74.8389C244.157 75.944 243.689 76.9124 243.108 77.7441C242.539 78.5645 241.844 79.2025 241.023 79.6582C240.203 80.1139 239.246 80.3418 238.152 80.3418C237.002 80.3418 235.976 80.1082 235.076 79.6411C234.188 79.174 233.436 78.5189 232.82 77.6758C232.216 76.8327 231.755 75.8415 231.436 74.7021C231.117 73.5628 230.958 72.321 230.958 70.9766ZM235.879 70.6177V70.9766C235.879 71.7399 235.936 72.452 236.05 73.1128C236.176 73.7736 236.375 74.3604 236.648 74.873C236.933 75.3743 237.298 75.7674 237.742 76.0522C238.198 76.3257 238.75 76.4624 239.4 76.4624C240.243 76.4624 240.938 76.2744 241.485 75.8984C242.032 75.5111 242.448 74.9813 242.732 74.3091C243.029 73.6369 243.2 72.8621 243.245 71.9849V69.7461C243.211 69.0283 243.108 68.3846 242.938 67.8149C242.778 67.2339 242.539 66.7383 242.22 66.3281C241.912 65.918 241.525 65.599 241.058 65.3711C240.602 65.1432 240.061 65.0293 239.434 65.0293C238.796 65.0293 238.249 65.1774 237.793 65.4736C237.338 65.7585 236.967 66.1515 236.683 66.6528C236.409 67.1541 236.204 67.7466 236.067 68.4302C235.942 69.1024 235.879 69.8315 235.879 70.6177ZM270.674 55.1172V80H265.564V55.1172H270.674ZM278.331 55.1172V59.1333H258.028V55.1172H278.331ZM288.328 75.8301V67.5928C288.328 67.0003 288.231 66.4933 288.038 66.0718C287.844 65.6388 287.542 65.3027 287.132 65.0635C286.733 64.8242 286.215 64.7046 285.577 64.7046C285.03 64.7046 284.557 64.8014 284.158 64.9951C283.759 65.1774 283.452 65.4451 283.235 65.7983C283.019 66.1401 282.911 66.5446 282.911 67.0117H277.989C277.989 66.2256 278.171 65.4793 278.536 64.7729C278.9 64.0666 279.43 63.4456 280.125 62.9102C280.82 62.3633 281.646 61.936 282.603 61.6284C283.571 61.3208 284.654 61.167 285.85 61.167C287.286 61.167 288.562 61.4062 289.678 61.8848C290.795 62.3633 291.672 63.0811 292.31 64.0381C292.959 64.9951 293.284 66.1914 293.284 67.627V75.5396C293.284 76.5535 293.347 77.3853 293.472 78.0347C293.597 78.6727 293.78 79.231 294.019 79.7095V80H289.046C288.807 79.4987 288.624 78.8721 288.499 78.1201C288.385 77.3568 288.328 76.5934 288.328 75.8301ZM288.978 68.7378L289.012 71.5234H286.26C285.611 71.5234 285.047 71.5975 284.568 71.7456C284.09 71.8937 283.697 72.1045 283.389 72.3779C283.082 72.64 282.854 72.9476 282.706 73.3008C282.569 73.654 282.5 74.0413 282.5 74.4629C282.5 74.8844 282.597 75.2661 282.791 75.6079C282.985 75.9383 283.264 76.2004 283.628 76.394C283.993 76.5763 284.42 76.6675 284.91 76.6675C285.651 76.6675 286.294 76.5194 286.841 76.2231C287.388 75.9269 287.81 75.5623 288.106 75.1294C288.414 74.6965 288.573 74.2863 288.584 73.8989L289.883 75.9839C289.701 76.451 289.45 76.9352 289.131 77.4365C288.824 77.9378 288.431 78.4106 287.952 78.855C287.474 79.2879 286.898 79.6468 286.226 79.9316C285.554 80.2051 284.756 80.3418 283.833 80.3418C282.66 80.3418 281.595 80.1082 280.638 79.6411C279.692 79.1626 278.94 78.5075 278.382 77.6758C277.835 76.8327 277.562 75.8757 277.562 74.8047C277.562 73.8363 277.744 72.9761 278.108 72.2241C278.473 71.4722 279.008 70.8398 279.715 70.3271C280.433 69.8031 281.327 69.41 282.398 69.1479C283.469 68.8745 284.711 68.7378 286.124 68.7378H288.978ZM301.88 53.75V80H296.958V53.75H301.88ZM301.18 70.105H299.83C299.841 68.8175 300.012 67.6326 300.342 66.5503C300.673 65.4565 301.146 64.5109 301.761 63.7134C302.376 62.9045 303.111 62.2778 303.965 61.8335C304.831 61.3892 305.788 61.167 306.836 61.167C307.748 61.167 308.574 61.298 309.314 61.5601C310.066 61.8107 310.71 62.2209 311.246 62.7905C311.792 63.3488 312.214 64.0837 312.51 64.9951C312.806 65.9066 312.955 67.0117 312.955 68.3105V80H307.999V68.2764C307.999 67.4561 307.879 66.8123 307.64 66.3452C307.412 65.8667 307.076 65.5306 306.631 65.3369C306.198 65.1318 305.663 65.0293 305.025 65.0293C304.319 65.0293 303.715 65.1603 303.213 65.4224C302.723 65.6844 302.33 66.049 302.034 66.5161C301.738 66.9718 301.521 67.5073 301.385 68.1226C301.248 68.7378 301.18 69.3986 301.18 70.105ZM326.678 75.8301V67.5928C326.678 67.0003 326.581 66.4933 326.387 66.0718C326.194 65.6388 325.892 65.3027 325.481 65.0635C325.083 64.8242 324.564 64.7046 323.926 64.7046C323.379 64.7046 322.907 64.8014 322.508 64.9951C322.109 65.1774 321.801 65.4451 321.585 65.7983C321.368 66.1401 321.26 66.5446 321.26 67.0117H316.338C316.338 66.2256 316.521 65.4793 316.885 64.7729C317.25 64.0666 317.78 63.4456 318.475 62.9102C319.17 62.3633 319.996 61.936 320.953 61.6284C321.921 61.3208 323.003 61.167 324.2 61.167C325.635 61.167 326.911 61.4062 328.028 61.8848C329.144 62.3633 330.022 63.0811 330.66 64.0381C331.309 64.9951 331.634 66.1914 331.634 67.627V75.5396C331.634 76.5535 331.696 77.3853 331.822 78.0347C331.947 78.6727 332.129 79.231 332.369 79.7095V80H327.396C327.156 79.4987 326.974 78.8721 326.849 78.1201C326.735 77.3568 326.678 76.5934 326.678 75.8301ZM327.327 68.7378L327.361 71.5234H324.61C323.96 71.5234 323.396 71.5975 322.918 71.7456C322.439 71.8937 322.046 72.1045 321.739 72.3779C321.431 72.64 321.203 72.9476 321.055 73.3008C320.918 73.654 320.85 74.0413 320.85 74.4629C320.85 74.8844 320.947 75.2661 321.141 75.6079C321.334 75.9383 321.613 76.2004 321.978 76.394C322.343 76.5763 322.77 76.6675 323.26 76.6675C324 76.6675 324.644 76.5194 325.191 76.2231C325.738 75.9269 326.159 75.5623 326.456 75.1294C326.763 74.6965 326.923 74.2863 326.934 73.8989L328.233 75.9839C328.051 76.451 327.8 76.9352 327.481 77.4365C327.173 77.9378 326.78 78.4106 326.302 78.855C325.823 79.2879 325.248 79.6468 324.576 79.9316C323.903 80.2051 323.106 80.3418 322.183 80.3418C321.01 80.3418 319.944 80.1082 318.987 79.6411C318.042 79.1626 317.29 78.5075 316.731 77.6758C316.185 76.8327 315.911 75.8757 315.911 74.8047C315.911 73.8363 316.093 72.9761 316.458 72.2241C316.823 71.4722 317.358 70.8398 318.064 70.3271C318.782 69.8031 319.677 69.41 320.748 69.1479C321.819 68.8745 323.06 68.7378 324.473 68.7378H327.327ZM340.247 65.4565V80H335.325V61.5088H339.939L340.247 65.4565ZM339.529 70.105H338.196C338.196 68.7378 338.373 67.5073 338.726 66.4136C339.079 65.3084 339.575 64.3685 340.213 63.5938C340.851 62.8076 341.609 62.2095 342.486 61.7993C343.375 61.3778 344.366 61.167 345.459 61.167C346.325 61.167 347.117 61.2923 347.835 61.543C348.553 61.7936 349.168 62.1924 349.681 62.7393C350.205 63.2861 350.604 64.0096 350.877 64.9097C351.162 65.8097 351.304 66.9092 351.304 68.208V80H346.348V68.1909C346.348 67.3706 346.234 66.7326 346.006 66.2769C345.778 65.8211 345.442 65.5021 344.998 65.3198C344.565 65.1261 344.03 65.0293 343.392 65.0293C342.731 65.0293 342.155 65.1603 341.666 65.4224C341.187 65.6844 340.788 66.049 340.469 66.5161C340.162 66.9718 339.928 67.5073 339.769 68.1226C339.609 68.7378 339.529 69.3986 339.529 70.105Z" fill="#888888"/>
<rect x="92" y="181" width="1179" height="80" rx="13.3333" fill="#CCCCCC"/>
<rect x="107" y="196.333" width="208" height="49.3333" rx="4.66667" fill="#888888" stroke="#888888" stroke-width="4"/>
<path d="M166.656 213.167H169.635L173.021 223.719L176.406 213.167H179.385L174.229 228.333H171.813L166.656 213.167ZM164.844 213.167H167.927L168.5 224.792V228.333H164.844V213.167ZM178.115 213.167H181.208V228.333H177.542V224.792L178.115 213.167ZM182.948 222.812V222.594C182.948 221.767 183.066 221.007 183.302 220.312C183.538 219.611 183.885 219.003 184.344 218.49C184.802 217.976 185.368 217.576 186.042 217.292C186.715 217 187.493 216.854 188.375 216.854C189.264 216.854 190.045 217 190.719 217.292C191.399 217.576 191.969 217.976 192.427 218.49C192.885 219.003 193.233 219.611 193.469 220.312C193.705 221.007 193.823 221.767 193.823 222.594V222.812C193.823 223.632 193.705 224.392 193.469 225.094C193.233 225.788 192.885 226.396 192.427 226.917C191.969 227.431 191.403 227.83 190.729 228.115C190.056 228.399 189.278 228.542 188.396 228.542C187.514 228.542 186.733 228.399 186.052 228.115C185.372 227.83 184.802 227.431 184.344 226.917C183.885 226.396 183.538 225.788 183.302 225.094C183.066 224.392 182.948 223.632 182.948 222.812ZM186.458 222.594V222.812C186.458 223.236 186.49 223.632 186.552 224C186.615 224.368 186.719 224.691 186.865 224.969C187.01 225.24 187.208 225.451 187.458 225.604C187.708 225.757 188.021 225.833 188.396 225.833C188.764 225.833 189.069 225.757 189.313 225.604C189.563 225.451 189.76 225.24 189.906 224.969C190.052 224.691 190.156 224.368 190.219 224C190.281 223.632 190.313 223.236 190.313 222.812V222.594C190.313 222.184 190.281 221.799 190.219 221.437C190.156 221.069 190.052 220.747 189.906 220.469C189.76 220.184 189.563 219.962 189.313 219.802C189.063 219.642 188.75 219.562 188.375 219.562C188.007 219.562 187.698 219.642 187.448 219.802C187.205 219.962 187.01 220.184 186.865 220.469C186.719 220.747 186.615 221.069 186.552 221.437C186.49 221.799 186.458 222.184 186.458 222.594ZM198.833 219.469V228.333H195.323V217.062H198.615L198.833 219.469ZM198.417 222.312L197.594 222.333C197.594 221.472 197.698 220.705 197.906 220.031C198.115 219.351 198.41 218.774 198.792 218.302C199.174 217.83 199.628 217.472 200.156 217.229C200.691 216.979 201.285 216.854 201.938 216.854C202.458 216.854 202.934 216.931 203.365 217.083C203.802 217.236 204.177 217.483 204.49 217.823C204.809 218.163 205.052 218.615 205.219 219.177C205.392 219.733 205.479 220.42 205.479 221.24V228.333H201.948V221.229C201.948 220.778 201.885 220.434 201.76 220.198C201.635 219.955 201.455 219.788 201.219 219.698C200.983 219.608 200.694 219.562 200.354 219.562C199.993 219.562 199.688 219.632 199.438 219.771C199.188 219.91 198.986 220.104 198.833 220.354C198.688 220.597 198.58 220.885 198.51 221.219C198.448 221.552 198.417 221.917 198.417 222.312ZM214.51 217.062H217.698V227.896C217.698 228.937 217.458 229.819 216.979 230.542C216.5 231.271 215.83 231.823 214.969 232.198C214.115 232.58 213.115 232.771 211.969 232.771C211.462 232.771 210.944 232.705 210.417 232.573C209.889 232.448 209.396 232.26 208.938 232.01C208.479 231.76 208.094 231.451 207.781 231.083L209.25 229.021C209.535 229.34 209.892 229.611 210.323 229.833C210.753 230.062 211.26 230.177 211.844 230.177C212.351 230.177 212.774 230.087 213.115 229.906C213.462 229.726 213.726 229.462 213.906 229.115C214.087 228.774 214.177 228.361 214.177 227.875V219.729L214.51 217.062ZM207.021 222.833V222.615C207.021 221.76 207.125 220.983 207.333 220.281C207.549 219.573 207.854 218.965 208.25 218.458C208.653 217.944 209.139 217.549 209.708 217.271C210.278 216.993 210.92 216.854 211.635 216.854C212.406 216.854 213.038 217.003 213.531 217.302C214.031 217.594 214.431 218.003 214.729 218.531C215.035 219.059 215.271 219.677 215.438 220.385C215.611 221.087 215.757 221.844 215.875 222.656V222.917C215.757 223.681 215.594 224.403 215.385 225.083C215.184 225.757 214.92 226.354 214.594 226.875C214.267 227.396 213.858 227.806 213.365 228.104C212.878 228.396 212.295 228.542 211.615 228.542C210.906 228.542 210.267 228.399 209.698 228.115C209.135 227.83 208.653 227.431 208.25 226.917C207.854 226.403 207.549 225.799 207.333 225.104C207.125 224.41 207.021 223.653 207.021 222.833ZM210.531 222.615V222.833C210.531 223.257 210.569 223.649 210.646 224.01C210.729 224.372 210.854 224.691 211.021 224.969C211.188 225.24 211.392 225.451 211.635 225.604C211.885 225.757 212.177 225.833 212.51 225.833C213.017 225.833 213.427 225.726 213.74 225.51C214.052 225.295 214.278 224.99 214.417 224.594C214.556 224.198 214.615 223.733 214.594 223.198V222.375C214.608 221.917 214.576 221.514 214.5 221.167C214.424 220.812 214.302 220.517 214.135 220.281C213.976 220.045 213.76 219.868 213.49 219.75C213.226 219.625 212.906 219.562 212.531 219.562C212.205 219.562 211.917 219.639 211.667 219.792C211.417 219.944 211.208 220.16 211.042 220.437C210.875 220.708 210.747 221.031 210.656 221.406C210.573 221.774 210.531 222.177 210.531 222.615ZM219.281 222.812V222.594C219.281 221.767 219.399 221.007 219.635 220.312C219.872 219.611 220.219 219.003 220.677 218.49C221.135 217.976 221.701 217.576 222.375 217.292C223.049 217 223.826 216.854 224.708 216.854C225.597 216.854 226.378 217 227.052 217.292C227.733 217.576 228.302 217.976 228.76 218.49C229.219 219.003 229.566 219.611 229.802 220.312C230.038 221.007 230.156 221.767 230.156 222.594V222.812C230.156 223.632 230.038 224.392 229.802 225.094C229.566 225.788 229.219 226.396 228.76 226.917C228.302 227.431 227.736 227.83 227.063 228.115C226.389 228.399 225.611 228.542 224.729 228.542C223.847 228.542 223.066 228.399 222.385 228.115C221.705 227.83 221.135 227.431 220.677 226.917C220.219 226.396 219.872 225.788 219.635 225.094C219.399 224.392 219.281 223.632 219.281 222.812ZM222.792 222.594V222.812C222.792 223.236 222.823 223.632 222.885 224C222.948 224.368 223.052 224.691 223.198 224.969C223.344 225.24 223.542 225.451 223.792 225.604C224.042 225.757 224.354 225.833 224.729 225.833C225.097 225.833 225.403 225.757 225.646 225.604C225.896 225.451 226.094 225.24 226.24 224.969C226.385 224.691 226.49 224.368 226.552 224C226.615 223.632 226.646 223.236 226.646 222.812V222.594C226.646 222.184 226.615 221.799 226.552 221.437C226.49 221.069 226.385 220.747 226.24 220.469C226.094 220.184 225.896 219.962 225.646 219.802C225.396 219.642 225.083 219.562 224.708 219.562C224.34 219.562 224.031 219.642 223.781 219.802C223.538 219.962 223.344 220.184 223.198 220.469C223.052 220.747 222.948 221.069 222.885 221.437C222.823 221.799 222.792 222.184 222.792 222.594ZM236.813 228.333H233.448L233.469 225.521H236.813C237.507 225.521 238.094 225.354 238.573 225.021C239.059 224.687 239.427 224.191 239.677 223.531C239.934 222.865 240.063 222.045 240.063 221.073V220.417C240.063 219.687 239.99 219.049 239.844 218.5C239.705 217.944 239.497 217.483 239.219 217.115C238.941 216.74 238.594 216.458 238.177 216.271C237.767 216.083 237.295 215.99 236.76 215.99H233.385V213.167H236.76C237.788 213.167 238.729 213.344 239.583 213.698C240.444 214.045 241.188 214.545 241.813 215.198C242.444 215.844 242.931 216.611 243.271 217.5C243.618 218.382 243.792 219.361 243.792 220.437V221.073C243.792 222.142 243.618 223.122 243.271 224.01C242.931 224.899 242.448 225.667 241.823 226.312C241.198 226.958 240.458 227.458 239.604 227.812C238.757 228.16 237.826 228.333 236.813 228.333ZM235.542 213.167V228.333H231.885V213.167H235.542ZM251.885 221.885H247.979L247.958 219.49H251.125C251.694 219.49 252.149 219.427 252.49 219.302C252.83 219.17 253.076 218.979 253.229 218.729C253.389 218.479 253.469 218.167 253.469 217.792C253.469 217.361 253.389 217.014 253.229 216.75C253.069 216.486 252.816 216.295 252.469 216.177C252.128 216.052 251.688 215.99 251.146 215.99H249.354V228.333H245.698V213.167H251.146C252.083 213.167 252.92 213.253 253.656 213.427C254.392 213.594 255.017 213.851 255.531 214.198C256.052 214.545 256.448 214.983 256.719 215.51C256.99 216.031 257.125 216.646 257.125 217.354C257.125 217.972 256.993 218.552 256.729 219.094C256.465 219.635 256.024 220.076 255.406 220.417C254.795 220.75 253.958 220.924 252.896 220.937L251.885 221.885ZM251.74 228.333H247.094L248.344 225.521H251.74C252.24 225.521 252.639 225.444 252.938 225.292C253.243 225.132 253.462 224.924 253.594 224.667C253.733 224.403 253.802 224.111 253.802 223.792C253.802 223.403 253.736 223.066 253.604 222.781C253.479 222.497 253.278 222.278 253 222.125C252.722 221.965 252.351 221.885 251.885 221.885H248.813L248.833 219.49H252.51L253.365 220.448C254.378 220.406 255.181 220.549 255.771 220.875C256.368 221.201 256.795 221.632 257.052 222.167C257.309 222.701 257.438 223.26 257.438 223.844C257.438 224.837 257.222 225.667 256.792 226.333C256.368 227 255.733 227.5 254.885 227.833C254.038 228.167 252.99 228.333 251.74 228.333Z" fill="white"/>
<rect x="339" y="196.333" width="208" height="49.3333" rx="4.66667" fill="#888888" stroke="#888888" stroke-width="4"/>
<path d="M416.427 225.521V228.333H408.344V225.521H416.427ZM409.646 213.167V228.333H405.99V213.167H409.646ZM415.385 219.187V221.906H408.344V219.187H415.385ZM416.458 213.167V215.99H408.344V213.167H416.458ZM420.74 217.062L422.323 220.167L423.958 217.062H427.604L424.646 222.552L427.76 228.333H424.083L422.323 225L420.573 228.333H416.896L420.01 222.552L417.062 217.062H420.74ZM432.302 219.229V232.667H428.792V217.062H432.062L432.302 219.229ZM439.219 222.562V222.781C439.219 223.601 439.125 224.361 438.937 225.062C438.75 225.764 438.472 226.375 438.104 226.896C437.736 227.417 437.278 227.823 436.729 228.115C436.187 228.399 435.559 228.542 434.844 228.542C434.17 228.542 433.59 228.392 433.104 228.094C432.618 227.795 432.212 227.382 431.885 226.854C431.559 226.326 431.295 225.722 431.094 225.042C430.892 224.361 430.733 223.642 430.615 222.885V222.604C430.733 221.792 430.892 221.038 431.094 220.344C431.295 219.642 431.559 219.031 431.885 218.51C432.212 217.99 432.615 217.583 433.094 217.292C433.58 217 434.16 216.854 434.833 216.854C435.549 216.854 436.177 216.99 436.719 217.26C437.267 217.531 437.726 217.92 438.094 218.427C438.469 218.927 438.75 219.528 438.937 220.229C439.125 220.931 439.219 221.708 439.219 222.562ZM435.708 222.781V222.562C435.708 222.125 435.677 221.726 435.615 221.365C435.552 220.997 435.451 220.677 435.312 220.406C435.181 220.135 435.003 219.927 434.781 219.781C434.559 219.635 434.285 219.562 433.958 219.562C433.583 219.562 433.267 219.622 433.01 219.74C432.76 219.851 432.559 220.024 432.406 220.26C432.26 220.49 432.156 220.778 432.094 221.125C432.038 221.465 432.014 221.865 432.021 222.323V223.177C432.007 223.705 432.059 224.17 432.177 224.573C432.295 224.969 432.5 225.278 432.792 225.5C433.083 225.722 433.479 225.833 433.979 225.833C434.312 225.833 434.59 225.757 434.812 225.604C435.035 225.444 435.212 225.226 435.344 224.948C435.476 224.663 435.569 224.337 435.625 223.969C435.681 223.601 435.708 223.205 435.708 222.781ZM444.323 219.854V228.333H440.812V217.062H444.094L444.323 219.854ZM447.656 216.979L447.594 220.24C447.455 220.226 447.267 220.208 447.031 220.187C446.795 220.167 446.597 220.156 446.437 220.156C446.028 220.156 445.674 220.205 445.375 220.302C445.083 220.392 444.84 220.531 444.646 220.719C444.458 220.899 444.319 221.128 444.229 221.406C444.146 221.684 444.108 222.007 444.115 222.375L443.479 221.958C443.479 221.201 443.552 220.514 443.698 219.896C443.851 219.271 444.066 218.733 444.344 218.281C444.622 217.823 444.958 217.472 445.354 217.229C445.75 216.979 446.194 216.854 446.687 216.854C446.861 216.854 447.031 216.865 447.198 216.885C447.372 216.906 447.524 216.937 447.656 216.979ZM454.115 228.542C453.198 228.542 452.378 228.399 451.656 228.115C450.934 227.823 450.323 227.424 449.823 226.917C449.33 226.41 448.951 225.826 448.687 225.167C448.431 224.507 448.302 223.809 448.302 223.073V222.677C448.302 221.851 448.417 221.087 448.646 220.385C448.875 219.677 449.215 219.059 449.667 218.531C450.118 218.003 450.684 217.594 451.365 217.302C452.045 217.003 452.837 216.854 453.74 216.854C454.538 216.854 455.253 216.983 455.885 217.24C456.517 217.497 457.052 217.865 457.49 218.344C457.934 218.823 458.271 219.403 458.5 220.083C458.736 220.764 458.854 221.528 458.854 222.375V223.802H449.646V221.604H455.427V221.333C455.434 220.958 455.368 220.639 455.229 220.375C455.097 220.111 454.903 219.91 454.646 219.771C454.389 219.632 454.076 219.562 453.708 219.562C453.326 219.562 453.01 219.646 452.76 219.812C452.517 219.979 452.326 220.208 452.187 220.5C452.056 220.785 451.962 221.115 451.906 221.49C451.851 221.865 451.823 222.26 451.823 222.677V223.073C451.823 223.49 451.878 223.868 451.99 224.208C452.108 224.549 452.274 224.84 452.49 225.083C452.712 225.319 452.976 225.503 453.281 225.635C453.594 225.767 453.948 225.833 454.344 225.833C454.823 225.833 455.295 225.743 455.76 225.562C456.226 225.382 456.625 225.083 456.958 224.667L458.552 226.562C458.323 226.889 457.997 227.205 457.573 227.51C457.156 227.816 456.656 228.066 456.073 228.26C455.49 228.448 454.837 228.542 454.115 228.542ZM466.187 225.167C466.187 224.972 466.122 224.806 465.99 224.667C465.865 224.521 465.642 224.389 465.323 224.271C465.003 224.146 464.556 224.021 463.979 223.896C463.431 223.778 462.913 223.622 462.427 223.427C461.948 223.233 461.528 222.997 461.167 222.719C460.806 222.441 460.521 222.111 460.312 221.729C460.111 221.347 460.01 220.91 460.01 220.417C460.01 219.937 460.111 219.486 460.312 219.062C460.521 218.632 460.823 218.253 461.219 217.927C461.622 217.594 462.111 217.333 462.687 217.146C463.264 216.951 463.92 216.854 464.656 216.854C465.67 216.854 466.545 217.01 467.281 217.323C468.017 217.628 468.583 218.059 468.979 218.615C469.382 219.163 469.583 219.799 469.583 220.521H466.073C466.073 220.236 466.024 219.993 465.927 219.792C465.837 219.59 465.687 219.437 465.479 219.333C465.271 219.222 464.993 219.167 464.646 219.167C464.403 219.167 464.181 219.212 463.979 219.302C463.785 219.392 463.628 219.517 463.51 219.677C463.392 219.837 463.333 220.024 463.333 220.24C463.333 220.392 463.368 220.531 463.437 220.656C463.514 220.774 463.628 220.885 463.781 220.99C463.934 221.087 464.128 221.177 464.365 221.26C464.601 221.337 464.885 221.406 465.219 221.469C465.976 221.608 466.684 221.806 467.344 222.062C468.003 222.319 468.538 222.684 468.948 223.156C469.365 223.628 469.573 224.264 469.573 225.062C469.573 225.562 469.458 226.024 469.229 226.448C469 226.865 468.67 227.233 468.24 227.552C467.809 227.865 467.292 228.108 466.687 228.281C466.083 228.455 465.403 228.542 464.646 228.542C463.569 228.542 462.66 228.351 461.917 227.969C461.174 227.58 460.611 227.094 460.229 226.51C459.854 225.92 459.667 225.323 459.667 224.719H462.937C462.951 225.066 463.035 225.351 463.187 225.573C463.347 225.795 463.559 225.958 463.823 226.062C464.087 226.167 464.392 226.219 464.74 226.219C465.059 226.219 465.323 226.174 465.531 226.083C465.747 225.993 465.91 225.872 466.021 225.719C466.132 225.559 466.187 225.375 466.187 225.167ZM477.125 225.167C477.125 224.972 477.059 224.806 476.927 224.667C476.802 224.521 476.58 224.389 476.26 224.271C475.941 224.146 475.493 224.021 474.917 223.896C474.368 223.778 473.851 223.622 473.365 223.427C472.885 223.233 472.465 222.997 472.104 222.719C471.743 222.441 471.458 222.111 471.25 221.729C471.049 221.347 470.948 220.91 470.948 220.417C470.948 219.937 471.049 219.486 471.25 219.062C471.458 218.632 471.76 218.253 472.156 217.927C472.559 217.594 473.049 217.333 473.625 217.146C474.201 216.951 474.858 216.854 475.594 216.854C476.608 216.854 477.483 217.01 478.219 217.323C478.955 217.628 479.521 218.059 479.917 218.615C480.319 219.163 480.521 219.799 480.521 220.521H477.01C477.01 220.236 476.962 219.993 476.865 219.792C476.774 219.59 476.625 219.437 476.417 219.333C476.208 219.222 475.931 219.167 475.583 219.167C475.34 219.167 475.118 219.212 474.917 219.302C474.722 219.392 474.566 219.517 474.448 219.677C474.33 219.837 474.271 220.024 474.271 220.24C474.271 220.392 474.306 220.531 474.375 220.656C474.451 220.774 474.566 220.885 474.719 220.99C474.872 221.087 475.066 221.177 475.302 221.26C475.538 221.337 475.823 221.406 476.156 221.469C476.913 221.608 477.622 221.806 478.281 222.062C478.941 222.319 479.476 222.684 479.885 223.156C480.302 223.628 480.51 224.264 480.51 225.062C480.51 225.562 480.396 226.024 480.167 226.448C479.937 226.865 479.608 227.233 479.177 227.552C478.747 227.865 478.229 228.108 477.625 228.281C477.021 228.455 476.34 228.542 475.583 228.542C474.507 228.542 473.597 228.351 472.854 227.969C472.111 227.58 471.549 227.094 471.167 226.51C470.792 225.92 470.604 225.323 470.604 224.719H473.875C473.889 225.066 473.972 225.351 474.125 225.573C474.285 225.795 474.497 225.958 474.76 226.062C475.024 226.167 475.33 226.219 475.677 226.219C475.997 226.219 476.26 226.174 476.469 226.083C476.684 225.993 476.847 225.872 476.958 225.719C477.069 225.559 477.125 225.375 477.125 225.167Z" fill="white"/>
<rect x="571" y="196.333" width="208" height="49.3333" rx="4.66667" fill="#888888" stroke="#888888" stroke-width="4"/>
<path d="M648.5 213.167H654.469C655.635 213.167 656.649 213.34 657.51 213.687C658.372 214.035 659.035 214.549 659.5 215.229C659.972 215.91 660.208 216.75 660.208 217.75C660.208 218.618 660.073 219.344 659.802 219.927C659.531 220.51 659.153 220.993 658.667 221.375C658.188 221.75 657.628 222.059 656.99 222.302L655.792 222.979H650.781L650.76 220.156H654.469C654.934 220.156 655.319 220.073 655.625 219.906C655.931 219.74 656.16 219.503 656.313 219.198C656.472 218.885 656.552 218.514 656.552 218.083C656.552 217.646 656.472 217.271 656.313 216.958C656.153 216.646 655.917 216.406 655.604 216.24C655.299 216.073 654.92 215.99 654.469 215.99H652.156V228.333H648.5V213.167ZM656.802 228.333L653.448 221.625L657.323 221.604L660.719 228.177V228.333H656.802ZM667.708 228.542C666.792 228.542 665.972 228.399 665.25 228.115C664.528 227.823 663.917 227.424 663.417 226.917C662.924 226.41 662.545 225.826 662.281 225.167C662.024 224.507 661.896 223.809 661.896 223.073V222.677C661.896 221.851 662.01 221.087 662.24 220.385C662.469 219.677 662.809 219.059 663.26 218.531C663.712 218.003 664.278 217.594 664.958 217.302C665.639 217.003 666.431 216.854 667.333 216.854C668.132 216.854 668.847 216.983 669.479 217.24C670.111 217.497 670.646 217.865 671.083 218.344C671.528 218.823 671.865 219.403 672.094 220.083C672.33 220.764 672.448 221.528 672.448 222.375V223.802H663.24V221.604H669.021V221.333C669.028 220.958 668.962 220.639 668.823 220.375C668.691 220.111 668.497 219.91 668.24 219.771C667.983 219.632 667.67 219.562 667.302 219.562C666.92 219.562 666.604 219.646 666.354 219.812C666.111 219.979 665.92 220.208 665.781 220.5C665.649 220.785 665.556 221.115 665.5 221.49C665.444 221.865 665.417 222.26 665.417 222.677V223.073C665.417 223.49 665.472 223.868 665.583 224.208C665.701 224.549 665.868 224.84 666.083 225.083C666.306 225.319 666.569 225.503 666.875 225.635C667.187 225.767 667.542 225.833 667.937 225.833C668.417 225.833 668.889 225.743 669.354 225.562C669.819 225.382 670.219 225.083 670.552 224.667L672.146 226.562C671.917 226.889 671.59 227.205 671.167 227.51C670.75 227.816 670.25 228.066 669.667 228.26C669.083 228.448 668.431 228.542 667.708 228.542ZM679.729 225.5V220.854C679.729 220.535 679.684 220.26 679.594 220.031C679.503 219.802 679.361 219.625 679.167 219.5C678.972 219.368 678.712 219.302 678.385 219.302C678.122 219.302 677.896 219.347 677.708 219.437C677.521 219.528 677.378 219.663 677.281 219.844C677.184 220.024 677.135 220.253 677.135 220.531H673.625C673.625 220.01 673.74 219.528 673.969 219.083C674.205 218.632 674.538 218.24 674.969 217.906C675.406 217.573 675.927 217.316 676.531 217.135C677.142 216.948 677.823 216.854 678.573 216.854C679.469 216.854 680.267 217.003 680.969 217.302C681.677 217.601 682.236 218.049 682.646 218.646C683.056 219.236 683.26 219.979 683.26 220.875V225.49C683.26 226.226 683.302 226.785 683.385 227.167C683.469 227.542 683.587 227.872 683.74 228.156V228.333H680.219C680.052 227.986 679.927 227.562 679.844 227.062C679.767 226.556 679.729 226.035 679.729 225.5ZM680.156 221.448L680.177 223.323H678.625C678.299 223.323 678.021 223.368 677.792 223.458C677.569 223.549 677.389 223.674 677.25 223.833C677.118 223.986 677.021 224.16 676.958 224.354C676.903 224.549 676.875 224.753 676.875 224.969C676.875 225.177 676.924 225.365 677.021 225.531C677.125 225.691 677.264 225.816 677.438 225.906C677.611 225.997 677.806 226.042 678.021 226.042C678.41 226.042 678.74 225.969 679.01 225.823C679.288 225.67 679.5 225.486 679.646 225.271C679.792 225.056 679.865 224.854 679.865 224.667L680.635 226.104C680.497 226.382 680.337 226.663 680.156 226.948C679.983 227.233 679.764 227.497 679.5 227.74C679.243 227.976 678.927 228.17 678.552 228.323C678.177 228.469 677.722 228.542 677.188 228.542C676.493 228.542 675.854 228.399 675.271 228.115C674.694 227.83 674.233 227.434 673.885 226.927C673.538 226.413 673.365 225.823 673.365 225.156C673.365 224.573 673.469 224.052 673.677 223.594C673.892 223.135 674.215 222.747 674.646 222.427C675.076 222.108 675.625 221.865 676.292 221.698C676.958 221.531 677.743 221.448 678.646 221.448H680.156ZM689.969 225.833C690.295 225.833 690.573 225.774 690.802 225.656C691.038 225.531 691.215 225.358 691.333 225.135C691.458 224.906 691.517 224.632 691.51 224.312H694.813C694.819 225.16 694.611 225.903 694.188 226.542C693.771 227.174 693.201 227.667 692.479 228.021C691.764 228.368 690.955 228.542 690.052 228.542C689.17 228.542 688.399 228.399 687.74 228.115C687.08 227.823 686.528 227.42 686.083 226.906C685.646 226.385 685.316 225.778 685.094 225.083C684.878 224.389 684.771 223.635 684.771 222.823V222.583C684.771 221.771 684.878 221.017 685.094 220.323C685.316 219.622 685.646 219.014 686.083 218.5C686.528 217.979 687.076 217.576 687.729 217.292C688.389 217 689.156 216.854 690.031 216.854C690.969 216.854 691.795 217.031 692.51 217.385C693.233 217.74 693.799 218.253 694.208 218.927C694.618 219.601 694.819 220.417 694.813 221.375H691.51C691.517 221.035 691.465 220.729 691.354 220.458C691.243 220.187 691.069 219.972 690.833 219.812C690.604 219.646 690.309 219.562 689.948 219.562C689.587 219.562 689.295 219.642 689.073 219.802C688.851 219.962 688.681 220.184 688.563 220.469C688.451 220.747 688.375 221.066 688.333 221.427C688.299 221.788 688.281 222.174 688.281 222.583V222.823C688.281 223.24 688.299 223.632 688.333 224C688.375 224.361 688.455 224.681 688.573 224.958C688.691 225.229 688.861 225.444 689.083 225.604C689.306 225.757 689.601 225.833 689.969 225.833ZM702.25 217.062V219.5H695.458V217.062H702.25ZM696.885 214.26H700.396V224.656C700.396 224.955 700.431 225.187 700.5 225.354C700.569 225.514 700.688 225.628 700.854 225.698C701.028 225.76 701.257 225.792 701.542 225.792C701.743 225.792 701.91 225.788 702.042 225.781C702.174 225.767 702.299 225.75 702.417 225.729V228.24C702.118 228.337 701.806 228.41 701.479 228.458C701.153 228.514 700.806 228.542 700.438 228.542C699.688 228.542 699.045 228.424 698.51 228.187C697.983 227.951 697.58 227.58 697.302 227.073C697.024 226.566 696.885 225.906 696.885 225.094V214.26Z" fill="white"/>
<rect x="803" y="196.333" width="208" height="49.3333" rx="4.66667" fill="#888888" stroke="#888888" stroke-width="4"/>
<path d="M883.937 213.167V228.333H880.292L874.927 218.896V228.333H871.271V213.167H874.927L880.292 222.604V213.167H883.937ZM885.646 222.812V222.594C885.646 221.767 885.764 221.007 886 220.312C886.236 219.611 886.583 219.003 887.042 218.49C887.5 217.976 888.066 217.576 888.74 217.292C889.413 217 890.191 216.854 891.073 216.854C891.962 216.854 892.743 217 893.417 217.292C894.097 217.576 894.667 217.976 895.125 218.49C895.583 219.003 895.931 219.611 896.167 220.312C896.403 221.007 896.521 221.767 896.521 222.594V222.812C896.521 223.632 896.403 224.392 896.167 225.094C895.931 225.788 895.583 226.396 895.125 226.917C894.667 227.431 894.101 227.83 893.427 228.115C892.753 228.399 891.976 228.542 891.094 228.542C890.212 228.542 889.431 228.399 888.75 228.115C888.069 227.83 887.5 227.431 887.042 226.917C886.583 226.396 886.236 225.788 886 225.094C885.764 224.392 885.646 223.632 885.646 222.812ZM889.156 222.594V222.812C889.156 223.236 889.187 223.632 889.25 224C889.312 224.368 889.417 224.691 889.562 224.969C889.708 225.24 889.906 225.451 890.156 225.604C890.406 225.757 890.719 225.833 891.094 225.833C891.462 225.833 891.767 225.757 892.01 225.604C892.26 225.451 892.458 225.24 892.604 224.969C892.75 224.691 892.854 224.368 892.917 224C892.979 223.632 893.01 223.236 893.01 222.812V222.594C893.01 222.184 892.979 221.799 892.917 221.437C892.854 221.069 892.75 220.747 892.604 220.469C892.458 220.184 892.26 219.962 892.01 219.802C891.76 219.642 891.448 219.562 891.073 219.562C890.705 219.562 890.396 219.642 890.146 219.802C889.903 219.962 889.708 220.184 889.562 220.469C889.417 220.747 889.312 221.069 889.25 221.437C889.187 221.799 889.156 222.184 889.156 222.594ZM904.563 225.75V212.333H908.094V228.333H904.927L904.563 225.75ZM897.646 222.833V222.615C897.646 221.76 897.74 220.983 897.927 220.281C898.115 219.573 898.392 218.965 898.76 218.458C899.128 217.944 899.587 217.549 900.135 217.271C900.684 216.993 901.316 216.854 902.031 216.854C902.67 216.854 903.229 217.003 903.708 217.302C904.188 217.594 904.597 218.003 904.938 218.531C905.278 219.059 905.556 219.677 905.771 220.385C905.986 221.087 906.149 221.844 906.26 222.656V222.917C906.149 223.681 905.986 224.403 905.771 225.083C905.556 225.757 905.278 226.354 904.938 226.875C904.597 227.396 904.184 227.806 903.698 228.104C903.219 228.396 902.656 228.542 902.01 228.542C901.295 228.542 900.663 228.399 900.115 228.115C899.573 227.83 899.118 227.431 898.75 226.917C898.389 226.403 898.115 225.799 897.927 225.104C897.74 224.41 897.646 223.653 897.646 222.833ZM901.156 222.615V222.833C901.156 223.257 901.184 223.649 901.24 224.01C901.295 224.372 901.389 224.691 901.521 224.969C901.66 225.24 901.84 225.451 902.063 225.604C902.292 225.757 902.573 225.833 902.906 225.833C903.358 225.833 903.729 225.726 904.021 225.51C904.319 225.295 904.538 224.99 904.677 224.594C904.823 224.198 904.885 223.733 904.865 223.198V222.375C904.878 221.917 904.847 221.514 904.771 221.167C904.694 220.812 904.573 220.517 904.406 220.281C904.247 220.045 904.042 219.868 903.792 219.75C903.549 219.625 903.26 219.562 902.927 219.562C902.601 219.562 902.323 219.639 902.094 219.792C901.872 219.944 901.691 220.16 901.552 220.437C901.413 220.708 901.313 221.031 901.25 221.406C901.188 221.774 901.156 222.177 901.156 222.615ZM915.542 228.542C914.625 228.542 913.806 228.399 913.083 228.115C912.361 227.823 911.75 227.424 911.25 226.917C910.757 226.41 910.378 225.826 910.115 225.167C909.858 224.507 909.729 223.809 909.729 223.073V222.677C909.729 221.851 909.844 221.087 910.073 220.385C910.302 219.677 910.642 219.059 911.094 218.531C911.545 218.003 912.111 217.594 912.792 217.302C913.472 217.003 914.264 216.854 915.167 216.854C915.965 216.854 916.681 216.983 917.313 217.24C917.944 217.497 918.479 217.865 918.917 218.344C919.361 218.823 919.698 219.403 919.927 220.083C920.163 220.764 920.281 221.528 920.281 222.375V223.802H911.073V221.604H916.854V221.333C916.861 220.958 916.795 220.639 916.656 220.375C916.524 220.111 916.33 219.91 916.073 219.771C915.816 219.632 915.503 219.562 915.135 219.562C914.753 219.562 914.438 219.646 914.188 219.812C913.944 219.979 913.753 220.208 913.615 220.5C913.483 220.785 913.389 221.115 913.333 221.49C913.278 221.865 913.25 222.26 913.25 222.677V223.073C913.25 223.49 913.306 223.868 913.417 224.208C913.535 224.549 913.701 224.84 913.917 225.083C914.139 225.319 914.403 225.503 914.708 225.635C915.021 225.767 915.375 225.833 915.771 225.833C916.25 225.833 916.722 225.743 917.188 225.562C917.653 225.382 918.052 225.083 918.385 224.667L919.979 226.562C919.75 226.889 919.424 227.205 919 227.51C918.583 227.816 918.083 228.066 917.5 228.26C916.917 228.448 916.264 228.542 915.542 228.542ZM921.938 226.687C921.938 226.187 922.118 225.771 922.479 225.437C922.84 225.097 923.306 224.927 923.875 224.927C924.451 224.927 924.917 225.097 925.271 225.437C925.632 225.771 925.813 226.187 925.813 226.687C925.813 227.187 925.632 227.608 925.271 227.948C924.917 228.281 924.451 228.448 923.875 228.448C923.306 228.448 922.84 228.281 922.479 227.948C922.118 227.608 921.938 227.187 921.938 226.687ZM928.427 217.062H931.948V228.698C931.948 229.601 931.774 230.361 931.427 230.979C931.08 231.604 930.583 232.076 929.937 232.396C929.292 232.722 928.521 232.885 927.625 232.885C927.326 232.885 927.052 232.872 926.802 232.844C926.545 232.823 926.264 232.778 925.958 232.708V230.052C926.139 230.08 926.306 230.101 926.458 230.115C926.611 230.135 926.778 230.146 926.958 230.146C927.278 230.146 927.545 230.094 927.76 229.99C927.976 229.885 928.139 229.726 928.25 229.51C928.368 229.295 928.427 229.024 928.427 228.698V217.062ZM928.167 214.156C928.167 213.656 928.347 213.247 928.708 212.927C929.069 212.608 929.538 212.448 930.115 212.448C930.691 212.448 931.16 212.608 931.521 212.927C931.882 213.247 932.062 213.656 932.062 214.156C932.062 214.656 931.882 215.066 931.521 215.385C931.16 215.705 930.691 215.865 930.115 215.865C929.538 215.865 929.069 215.705 928.708 215.385C928.347 215.066 928.167 214.656 928.167 214.156ZM939.844 225.167C939.844 224.972 939.778 224.806 939.646 224.667C939.521 224.521 939.299 224.389 938.979 224.271C938.66 224.146 938.212 224.021 937.635 223.896C937.087 223.778 936.569 223.622 936.083 223.427C935.604 223.233 935.184 222.997 934.823 222.719C934.462 222.441 934.177 222.111 933.969 221.729C933.767 221.347 933.667 220.91 933.667 220.417C933.667 219.937 933.767 219.486 933.969 219.062C934.177 218.632 934.479 218.253 934.875 217.927C935.278 217.594 935.767 217.333 936.344 217.146C936.92 216.951 937.576 216.854 938.312 216.854C939.326 216.854 940.201 217.01 940.937 217.323C941.674 217.628 942.24 218.059 942.635 218.615C943.038 219.163 943.24 219.799 943.24 220.521H939.729C939.729 220.236 939.681 219.993 939.583 219.792C939.493 219.59 939.344 219.437 939.135 219.333C938.927 219.222 938.649 219.167 938.302 219.167C938.059 219.167 937.837 219.212 937.635 219.302C937.441 219.392 937.285 219.517 937.167 219.677C937.049 219.837 936.99 220.024 936.99 220.24C936.99 220.392 937.024 220.531 937.094 220.656C937.17 220.774 937.285 220.885 937.437 220.99C937.59 221.087 937.785 221.177 938.021 221.26C938.257 221.337 938.542 221.406 938.875 221.469C939.632 221.608 940.34 221.806 941 222.062C941.66 222.319 942.194 222.684 942.604 223.156C943.021 223.628 943.229 224.264 943.229 225.062C943.229 225.562 943.115 226.024 942.885 226.448C942.656 226.865 942.326 227.233 941.896 227.552C941.465 227.865 940.948 228.108 940.344 228.281C939.74 228.455 939.059 228.542 938.302 228.542C937.226 228.542 936.316 228.351 935.573 227.969C934.83 227.58 934.267 227.094 933.885 226.51C933.51 225.92 933.323 225.323 933.323 224.719H936.594C936.608 225.066 936.691 225.351 936.844 225.573C937.003 225.795 937.215 225.958 937.479 226.062C937.743 226.167 938.049 226.219 938.396 226.219C938.715 226.219 938.979 226.174 939.187 226.083C939.403 225.993 939.566 225.872 939.677 225.719C939.788 225.559 939.844 225.375 939.844 225.167Z" fill="white"/>
<defs>
<linearGradient id="paint0_linear_3_60" x1="18.5" y1="0" x2="18.5" y2="301" gradientUnits="userSpaceOnUse">
<stop stop-color="#AD00FF"/>
<stop offset="1" stop-color="#1400FC"/>
</linearGradient>
</defs>
</svg>
