<svg width="1363" height="167" viewBox="0 0 1363 167" fill="none" xmlns="http://www.w3.org/2000/svg">
<rect width="1363" height="167" rx="15" fill="#F0F0F0"/>
<path d="M0 15C0 6.71573 6.71573 0 15 0H37V167H15C6.71573 167 0 160.284 0 152V15Z" fill="#424241"/>
<path d="M100.906 54.9219L93.3945 52.2383V49.0859L103.602 53.375V55.6367L100.906 54.9219ZM93.3945 57.1719L100.918 54.4297L103.602 53.7852V56.0352L93.3945 60.3242V57.1719ZM111.898 44.9375H118.262C119.566 44.9375 120.688 45.1328 121.625 45.5234C122.57 45.9141 123.297 46.4922 123.805 47.2578C124.312 48.0234 124.566 48.9648 124.566 50.082C124.566 50.9961 124.41 51.7812 124.098 52.4375C123.793 53.0859 123.359 53.6289 122.797 54.0664C122.242 54.4961 121.59 54.8398 120.84 55.0977L119.727 55.6836H114.195L114.172 52.9414H118.285C118.902 52.9414 119.414 52.832 119.82 52.6133C120.227 52.3945 120.531 52.0898 120.734 51.6992C120.945 51.3086 121.051 50.8555 121.051 50.3398C121.051 49.793 120.949 49.3203 120.746 48.9219C120.543 48.5234 120.234 48.2188 119.82 48.0078C119.406 47.7969 118.887 47.6914 118.262 47.6914H115.414V62H111.898V44.9375ZM121.438 62L117.547 54.3945L121.262 54.3711L125.199 61.8359V62H121.438ZM132.898 62.2344C131.914 62.2344 131.031 62.0781 130.25 61.7656C129.469 61.4453 128.805 61.0039 128.258 60.4414C127.719 59.8789 127.305 59.2266 127.016 58.4844C126.727 57.7344 126.582 56.9375 126.582 56.0938V55.625C126.582 54.6641 126.719 53.7852 126.992 52.9883C127.266 52.1914 127.656 51.5 128.164 50.9141C128.68 50.3281 129.305 49.8789 130.039 49.5664C130.773 49.2461 131.602 49.0859 132.523 49.0859C133.422 49.0859 134.219 49.2344 134.914 49.5312C135.609 49.8281 136.191 50.25 136.66 50.7969C137.137 51.3438 137.496 52 137.738 52.7656C137.98 53.5234 138.102 54.3672 138.102 55.2969V56.7031H128.023V54.4531H134.785V54.1953C134.785 53.7266 134.699 53.3086 134.527 52.9414C134.363 52.5664 134.113 52.2695 133.777 52.0508C133.441 51.832 133.012 51.7227 132.488 51.7227C132.043 51.7227 131.66 51.8203 131.34 52.0156C131.02 52.2109 130.758 52.4844 130.555 52.8359C130.359 53.1875 130.211 53.6016 130.109 54.0781C130.016 54.5469 129.969 55.0625 129.969 55.625V56.0938C129.969 56.6016 130.039 57.0703 130.18 57.5C130.328 57.9297 130.535 58.3008 130.801 58.6133C131.074 58.9258 131.402 59.168 131.785 59.3398C132.176 59.5117 132.617 59.5977 133.109 59.5977C133.719 59.5977 134.285 59.4805 134.809 59.2461C135.34 59.0039 135.797 58.6406 136.18 58.1562L137.82 59.9375C137.555 60.3203 137.191 60.6875 136.73 61.0391C136.277 61.3906 135.73 61.6797 135.09 61.9062C134.449 62.125 133.719 62.2344 132.898 62.2344ZM143.398 51.9453V62H140.012V49.3203H143.188L143.398 51.9453ZM142.93 55.2148H141.992C141.992 54.332 142.098 53.5195 142.309 52.7773C142.527 52.0273 142.844 51.3789 143.258 50.832C143.68 50.2773 144.199 49.8477 144.816 49.543C145.434 49.2383 146.148 49.0859 146.961 49.0859C147.523 49.0859 148.039 49.1719 148.508 49.3438C148.977 49.5078 149.379 49.7695 149.715 50.1289C150.059 50.4805 150.324 50.9414 150.512 51.5117C150.699 52.0742 150.793 52.75 150.793 53.5391V62H147.418V53.9141C147.418 53.3359 147.34 52.8906 147.184 52.5781C147.027 52.2656 146.805 52.0469 146.516 51.9219C146.234 51.7969 145.895 51.7344 145.496 51.7344C145.059 51.7344 144.676 51.8242 144.348 52.0039C144.027 52.1836 143.762 52.4336 143.551 52.7539C143.34 53.0664 143.184 53.4336 143.082 53.8555C142.98 54.2773 142.93 54.7305 142.93 55.2148ZM150.477 54.8281L149.27 54.9805C149.27 54.1523 149.371 53.3828 149.574 52.6719C149.785 51.9609 150.094 51.3359 150.5 50.7969C150.914 50.2578 151.426 49.8398 152.035 49.543C152.645 49.2383 153.348 49.0859 154.145 49.0859C154.754 49.0859 155.309 49.1758 155.809 49.3555C156.309 49.5273 156.734 49.8047 157.086 50.1875C157.445 50.5625 157.719 51.0547 157.906 51.6641C158.102 52.2734 158.199 53.0195 158.199 53.9023V62H154.812V53.9023C154.812 53.3164 154.734 52.8711 154.578 52.5664C154.43 52.2539 154.211 52.0391 153.922 51.9219C153.641 51.7969 153.305 51.7344 152.914 51.7344C152.508 51.7344 152.152 51.8164 151.848 51.9805C151.543 52.1367 151.289 52.3555 151.086 52.6367C150.883 52.918 150.73 53.2461 150.629 53.6211C150.527 53.9883 150.477 54.3906 150.477 54.8281ZM160.273 55.7891V55.543C160.273 54.6133 160.406 53.7578 160.672 52.9766C160.938 52.1875 161.324 51.5039 161.832 50.9258C162.34 50.3477 162.965 49.8984 163.707 49.5781C164.449 49.25 165.301 49.0859 166.262 49.0859C167.223 49.0859 168.078 49.25 168.828 49.5781C169.578 49.8984 170.207 50.3477 170.715 50.9258C171.23 51.5039 171.621 52.1875 171.887 52.9766C172.152 53.7578 172.285 54.6133 172.285 55.543V55.7891C172.285 56.7109 172.152 57.5664 171.887 58.3555C171.621 59.1367 171.23 59.8203 170.715 60.4062C170.207 60.9844 169.582 61.4336 168.84 61.7539C168.098 62.0742 167.246 62.2344 166.285 62.2344C165.324 62.2344 164.469 62.0742 163.719 61.7539C162.977 61.4336 162.348 60.9844 161.832 60.4062C161.324 59.8203 160.938 59.1367 160.672 58.3555C160.406 57.5664 160.273 56.7109 160.273 55.7891ZM163.648 55.543V55.7891C163.648 56.3203 163.695 56.8164 163.789 57.2773C163.883 57.7383 164.031 58.1445 164.234 58.4961C164.445 58.8398 164.719 59.1094 165.055 59.3047C165.391 59.5 165.801 59.5977 166.285 59.5977C166.754 59.5977 167.156 59.5 167.492 59.3047C167.828 59.1094 168.098 58.8398 168.301 58.4961C168.504 58.1445 168.652 57.7383 168.746 57.2773C168.848 56.8164 168.898 56.3203 168.898 55.7891V55.543C168.898 55.0273 168.848 54.543 168.746 54.0898C168.652 53.6289 168.5 53.2227 168.289 52.8711C168.086 52.5117 167.816 52.2305 167.48 52.0273C167.145 51.8242 166.738 51.7227 166.262 51.7227C165.785 51.7227 165.379 51.8242 165.043 52.0273C164.715 52.2305 164.445 52.5117 164.234 52.8711C164.031 53.2227 163.883 53.6289 163.789 54.0898C163.695 54.543 163.648 55.0273 163.648 55.543ZM180.57 49.3203V51.7109H173.188V49.3203H180.57ZM175.016 46.1914H178.391V58.1797C178.391 58.5469 178.438 58.8281 178.531 59.0234C178.633 59.2188 178.781 59.3555 178.977 59.4336C179.172 59.5039 179.418 59.5391 179.715 59.5391C179.926 59.5391 180.113 59.5312 180.277 59.5156C180.449 59.4922 180.594 59.4688 180.711 59.4453L180.723 61.9297C180.434 62.0234 180.121 62.0977 179.785 62.1523C179.449 62.207 179.078 62.2344 178.672 62.2344C177.93 62.2344 177.281 62.1133 176.727 61.8711C176.18 61.6211 175.758 61.2227 175.461 60.6758C175.164 60.1289 175.016 59.4102 175.016 58.5195V46.1914ZM188.328 62.2344C187.344 62.2344 186.461 62.0781 185.68 61.7656C184.898 61.4453 184.234 61.0039 183.688 60.4414C183.148 59.8789 182.734 59.2266 182.445 58.4844C182.156 57.7344 182.012 56.9375 182.012 56.0938V55.625C182.012 54.6641 182.148 53.7852 182.422 52.9883C182.695 52.1914 183.086 51.5 183.594 50.9141C184.109 50.3281 184.734 49.8789 185.469 49.5664C186.203 49.2461 187.031 49.0859 187.953 49.0859C188.852 49.0859 189.648 49.2344 190.344 49.5312C191.039 49.8281 191.621 50.25 192.09 50.7969C192.566 51.3438 192.926 52 193.168 52.7656C193.41 53.5234 193.531 54.3672 193.531 55.2969V56.7031H183.453V54.4531H190.215V54.1953C190.215 53.7266 190.129 53.3086 189.957 52.9414C189.793 52.5664 189.543 52.2695 189.207 52.0508C188.871 51.832 188.441 51.7227 187.918 51.7227C187.473 51.7227 187.09 51.8203 186.77 52.0156C186.449 52.2109 186.188 52.4844 185.984 52.8359C185.789 53.1875 185.641 53.6016 185.539 54.0781C185.445 54.5469 185.398 55.0625 185.398 55.625V56.0938C185.398 56.6016 185.469 57.0703 185.609 57.5C185.758 57.9297 185.965 58.3008 186.23 58.6133C186.504 58.9258 186.832 59.168 187.215 59.3398C187.605 59.5117 188.047 59.5977 188.539 59.5977C189.148 59.5977 189.715 59.4805 190.238 59.2461C190.77 59.0039 191.227 58.6406 191.609 58.1562L193.25 59.9375C192.984 60.3203 192.621 60.6875 192.16 61.0391C191.707 61.3906 191.16 61.6797 190.52 61.9062C189.879 62.125 189.148 62.2344 188.328 62.2344Z" fill="#888888"/>
<path d="M101.822 115.1L108.194 86.0078H111.995L114.061 88.4907L107.271 118H103.074L101.822 115.1ZM100.13 86.0078L105.513 115.319L104.129 118H99.2729L92.4834 86.0078H100.13ZM117.554 115.166L122.894 86.0078H130.518L123.729 118H118.895L117.554 115.166ZM114.742 86.0078L121.268 115.275L119.949 118H115.752L108.809 88.4468L110.962 86.0078H114.742ZM141.021 94.2256V118H133.594V94.2256H141.021ZM133.155 88.0952C133.155 87.0405 133.536 86.1763 134.297 85.5024C135.059 84.8286 136.048 84.4917 137.264 84.4917C138.479 84.4917 139.468 84.8286 140.23 85.5024C140.992 86.1763 141.373 87.0405 141.373 88.0952C141.373 89.1499 140.992 90.0142 140.23 90.688C139.468 91.3618 138.479 91.6987 137.264 91.6987C136.048 91.6987 135.059 91.3618 134.297 90.688C133.536 90.0142 133.155 89.1499 133.155 88.0952ZM153.062 100.114V118H145.657V94.2256H152.579L153.062 100.114ZM160.093 94.0498L159.961 100.927C159.668 100.898 159.273 100.861 158.775 100.817C158.277 100.773 157.859 100.751 157.522 100.751C156.658 100.751 155.911 100.854 155.281 101.059C154.666 101.25 154.153 101.542 153.743 101.938C153.348 102.319 153.055 102.802 152.864 103.388C152.688 103.974 152.608 104.655 152.623 105.432L151.282 104.553C151.282 102.956 151.436 101.506 151.744 100.202C152.066 98.8838 152.52 97.7485 153.106 96.7964C153.692 95.8296 154.402 95.0898 155.237 94.5771C156.072 94.0498 157.01 93.7861 158.05 93.7861C158.416 93.7861 158.775 93.8081 159.126 93.8521C159.493 93.896 159.815 93.9619 160.093 94.0498ZM173.716 118.439C171.783 118.439 170.054 118.139 168.531 117.539C167.007 116.923 165.718 116.081 164.664 115.012C163.624 113.942 162.825 112.712 162.269 111.32C161.727 109.929 161.456 108.457 161.456 106.904V106.069C161.456 104.326 161.697 102.714 162.181 101.235C162.664 99.7407 163.382 98.437 164.334 97.3237C165.286 96.2104 166.48 95.3462 167.916 94.731C169.351 94.1011 171.021 93.7861 172.925 93.7861C174.61 93.7861 176.119 94.0571 177.452 94.5991C178.785 95.1411 179.913 95.9175 180.835 96.9282C181.773 97.939 182.483 99.1621 182.967 100.598C183.465 102.033 183.714 103.645 183.714 105.432V108.442H164.29V103.806H176.485V103.234C176.5 102.443 176.36 101.77 176.067 101.213C175.789 100.656 175.379 100.231 174.837 99.9385C174.295 99.6455 173.636 99.499 172.859 99.499C172.054 99.499 171.387 99.6748 170.86 100.026C170.347 100.378 169.944 100.861 169.651 101.477C169.373 102.077 169.175 102.773 169.058 103.564C168.941 104.355 168.882 105.19 168.882 106.069V106.904C168.882 107.783 169 108.581 169.234 109.299C169.483 110.017 169.834 110.632 170.289 111.145C170.757 111.643 171.314 112.031 171.958 112.309C172.618 112.587 173.365 112.727 174.2 112.727C175.21 112.727 176.207 112.536 177.188 112.155C178.169 111.774 179.012 111.145 179.715 110.266L183.077 114.265C182.593 114.953 181.905 115.62 181.011 116.264C180.132 116.909 179.078 117.436 177.847 117.846C176.617 118.242 175.24 118.439 173.716 118.439ZM195.799 118H188.35V92.292C188.35 90.4463 188.724 88.8936 189.471 87.6338C190.218 86.374 191.272 85.4219 192.635 84.7773C193.997 84.1182 195.608 83.7886 197.469 83.7886C198.113 83.7886 198.721 83.8325 199.292 83.9204C199.864 84.0083 200.42 84.1182 200.962 84.25L200.984 89.6992C200.721 89.626 200.45 89.5747 200.171 89.5454C199.893 89.5161 199.549 89.5015 199.139 89.5015C198.421 89.5015 197.813 89.6113 197.315 89.8311C196.817 90.0361 196.436 90.3511 196.172 90.7759C195.923 91.186 195.799 91.6914 195.799 92.292V118ZM200.413 94.2256V99.3672H184.922V94.2256H200.413ZM210.542 100.114V118H203.138V94.2256H210.059L210.542 100.114ZM217.574 94.0498L217.442 100.927C217.149 100.898 216.753 100.861 216.255 100.817C215.757 100.773 215.34 100.751 215.003 100.751C214.139 100.751 213.392 100.854 212.762 101.059C212.146 101.25 211.634 101.542 211.224 101.938C210.828 102.319 210.535 102.802 210.345 103.388C210.169 103.974 210.088 104.655 210.103 105.432L208.763 104.553C208.763 102.956 208.917 101.506 209.224 100.202C209.546 98.8838 210 97.7485 210.586 96.7964C211.172 95.8296 211.883 95.0898 212.718 94.5771C213.553 94.0498 214.49 93.7861 215.53 93.7861C215.896 93.7861 216.255 93.8081 216.607 93.8521C216.973 93.896 217.295 93.9619 217.574 94.0498ZM231.812 112.023V102.224C231.812 101.55 231.717 100.971 231.526 100.488C231.336 100.004 231.036 99.6309 230.625 99.3672C230.215 99.0889 229.666 98.9497 228.978 98.9497C228.421 98.9497 227.945 99.0449 227.549 99.2354C227.154 99.4258 226.854 99.7114 226.648 100.092C226.443 100.473 226.341 100.957 226.341 101.542H218.936C218.936 100.444 219.178 99.4258 219.661 98.4883C220.159 97.5361 220.862 96.7085 221.771 96.0054C222.693 95.3022 223.792 94.7603 225.066 94.3794C226.355 93.9839 227.791 93.7861 229.373 93.7861C231.263 93.7861 232.947 94.1011 234.427 94.731C235.921 95.3608 237.1 96.3057 237.964 97.5654C238.829 98.8105 239.261 100.378 239.261 102.268V112.001C239.261 113.554 239.349 114.733 239.524 115.539C239.7 116.33 239.949 117.026 240.271 117.626V118H232.845C232.493 117.268 232.229 116.374 232.054 115.319C231.893 114.25 231.812 113.151 231.812 112.023ZM232.713 103.476L232.757 107.431H229.483C228.794 107.431 228.208 107.526 227.725 107.717C227.256 107.907 226.875 108.171 226.583 108.508C226.304 108.83 226.099 109.196 225.967 109.606C225.85 110.017 225.792 110.449 225.792 110.903C225.792 111.342 225.894 111.738 226.099 112.089C226.319 112.426 226.612 112.69 226.978 112.88C227.344 113.071 227.754 113.166 228.208 113.166C229.029 113.166 229.725 113.012 230.296 112.705C230.882 112.382 231.329 111.994 231.636 111.54C231.944 111.086 232.098 110.661 232.098 110.266L233.724 113.298C233.431 113.884 233.094 114.477 232.713 115.078C232.347 115.678 231.885 116.235 231.329 116.748C230.787 117.246 230.12 117.656 229.329 117.978C228.538 118.286 227.579 118.439 226.451 118.439C224.986 118.439 223.638 118.139 222.408 117.539C221.192 116.938 220.218 116.103 219.485 115.034C218.753 113.95 218.387 112.705 218.387 111.298C218.387 110.068 218.606 108.969 219.046 108.002C219.5 107.036 220.181 106.215 221.089 105.542C221.998 104.868 223.155 104.355 224.561 104.003C225.967 103.652 227.623 103.476 229.527 103.476H232.713ZM250.84 99.2573V118H243.436V94.2256H250.379L250.84 99.2573ZM249.939 105.3L248.248 105.344C248.248 103.674 248.445 102.136 248.841 100.729C249.236 99.3232 249.822 98.1001 250.599 97.0601C251.375 96.02 252.327 95.2144 253.455 94.6431C254.598 94.0718 255.916 93.7861 257.41 93.7861C258.45 93.7861 259.395 93.9473 260.245 94.2695C261.094 94.5771 261.827 95.0679 262.442 95.7417C263.057 96.4009 263.526 97.2651 263.848 98.3345C264.185 99.3892 264.354 100.656 264.354 102.136V118H256.949V103.081C256.949 102.07 256.832 101.308 256.597 100.795C256.377 100.283 256.055 99.9385 255.63 99.7627C255.206 99.5869 254.686 99.499 254.07 99.499C253.426 99.499 252.847 99.6455 252.334 99.9385C251.822 100.231 251.382 100.642 251.016 101.169C250.665 101.682 250.394 102.29 250.203 102.993C250.027 103.696 249.939 104.465 249.939 105.3ZM263.519 105.3L261.453 105.344C261.453 103.674 261.636 102.136 262.002 100.729C262.383 99.3232 262.947 98.1001 263.694 97.0601C264.456 96.02 265.401 95.2144 266.529 94.6431C267.657 94.0718 268.968 93.7861 270.462 93.7861C271.546 93.7861 272.542 93.9473 273.45 94.2695C274.358 94.5918 275.142 95.1118 275.801 95.8296C276.46 96.5474 276.973 97.4995 277.339 98.686C277.706 99.8579 277.889 101.308 277.889 103.037V118H270.462V103.037C270.462 102.055 270.345 101.315 270.11 100.817C269.891 100.305 269.568 99.9604 269.144 99.7847C268.719 99.5942 268.213 99.499 267.627 99.499C266.924 99.499 266.316 99.6455 265.804 99.9385C265.291 100.231 264.859 100.642 264.507 101.169C264.17 101.682 263.921 102.29 263.76 102.993C263.599 103.696 263.519 104.465 263.519 105.3ZM293.643 118.439C291.709 118.439 289.981 118.139 288.458 117.539C286.934 116.923 285.645 116.081 284.59 115.012C283.55 113.942 282.752 112.712 282.195 111.32C281.653 109.929 281.382 108.457 281.382 106.904V106.069C281.382 104.326 281.624 102.714 282.107 101.235C282.591 99.7407 283.309 98.437 284.261 97.3237C285.213 96.2104 286.407 95.3462 287.842 94.731C289.278 94.1011 290.948 93.7861 292.852 93.7861C294.537 93.7861 296.045 94.0571 297.378 94.5991C298.711 95.1411 299.839 95.9175 300.762 96.9282C301.7 97.939 302.41 99.1621 302.894 100.598C303.392 102.033 303.641 103.645 303.641 105.432V108.442H284.217V103.806H296.412V103.234C296.426 102.443 296.287 101.77 295.994 101.213C295.716 100.656 295.306 100.231 294.764 99.9385C294.222 99.6455 293.562 99.499 292.786 99.499C291.98 99.499 291.314 99.6748 290.787 100.026C290.274 100.378 289.871 100.861 289.578 101.477C289.3 102.077 289.102 102.773 288.985 103.564C288.868 104.355 288.809 105.19 288.809 106.069V106.904C288.809 107.783 288.926 108.581 289.161 109.299C289.41 110.017 289.761 110.632 290.215 111.145C290.684 111.643 291.241 112.031 291.885 112.309C292.544 112.587 293.292 112.727 294.126 112.727C295.137 112.727 296.133 112.536 297.115 112.155C298.096 111.774 298.938 111.145 299.642 110.266L303.003 114.265C302.52 114.953 301.832 115.62 300.938 116.264C300.059 116.909 299.004 117.436 297.774 117.846C296.543 118.242 295.167 118.439 293.643 118.439ZM319.109 111.32C319.109 110.91 318.97 110.559 318.692 110.266C318.428 109.958 317.959 109.68 317.286 109.431C316.612 109.167 315.667 108.903 314.451 108.64C313.294 108.391 312.203 108.061 311.177 107.651C310.167 107.241 309.28 106.743 308.519 106.157C307.757 105.571 307.156 104.875 306.717 104.069C306.292 103.264 306.08 102.341 306.08 101.301C306.08 100.29 306.292 99.3379 306.717 98.4443C307.156 97.5361 307.793 96.7378 308.628 96.0493C309.478 95.3462 310.511 94.7969 311.727 94.4014C312.942 93.9912 314.327 93.7861 315.879 93.7861C318.018 93.7861 319.864 94.1157 321.417 94.7749C322.969 95.4194 324.163 96.3276 324.998 97.4995C325.848 98.6567 326.272 99.9971 326.272 101.521H318.868C318.868 100.92 318.765 100.407 318.56 99.9824C318.37 99.5576 318.055 99.2354 317.615 99.0156C317.176 98.7812 316.59 98.6641 315.857 98.6641C315.345 98.6641 314.876 98.7593 314.451 98.9497C314.041 99.1401 313.711 99.4038 313.462 99.7407C313.213 100.078 313.089 100.473 313.089 100.927C313.089 101.25 313.162 101.542 313.309 101.806C313.47 102.055 313.711 102.29 314.034 102.509C314.356 102.714 314.766 102.905 315.264 103.081C315.762 103.242 316.363 103.388 317.066 103.52C318.663 103.813 320.157 104.23 321.548 104.772C322.94 105.314 324.068 106.083 324.932 107.08C325.811 108.076 326.25 109.416 326.25 111.101C326.25 112.155 326.009 113.129 325.525 114.023C325.042 114.902 324.346 115.678 323.438 116.352C322.53 117.011 321.438 117.524 320.164 117.89C318.89 118.256 317.454 118.439 315.857 118.439C313.587 118.439 311.668 118.037 310.101 117.231C308.533 116.411 307.347 115.385 306.541 114.155C305.75 112.91 305.354 111.65 305.354 110.375H312.254C312.283 111.108 312.459 111.708 312.781 112.177C313.118 112.646 313.565 112.99 314.122 113.21C314.678 113.43 315.323 113.54 316.055 113.54C316.729 113.54 317.286 113.444 317.725 113.254C318.179 113.063 318.523 112.807 318.758 112.485C318.992 112.148 319.109 111.76 319.109 111.32Z" fill="#424241"/>
<path d="M1363 15C1363 6.71573 1356.28 0 1348 0H1134V167H1348C1356.28 167 1363 160.284 1363 152V15Z" fill="url(#paint0_linear_2_64)"/>
<path fill-rule="evenodd" clip-rule="evenodd" d="M1203 49C1203 47.8954 1203.9 47 1205 47H1292.5C1293.6 47 1294.5 47.8954 1294.5 49V118.996C1294.5 120.101 1293.6 120.996 1292.5 120.996H1205C1203.9 120.996 1203 120.101 1203 118.996V49ZM1207 51V55.4945H1290.5V51H1207ZM1290.5 59.4945H1235.44V116.996H1290.5V59.4945ZM1231.44 116.996V59.4945H1207V116.996H1231.44Z" fill="white"/>
<path fill-rule="evenodd" clip-rule="evenodd" d="M1209.97 64.8004C1209.97 63.6958 1210.87 62.8004 1211.97 62.8004H1225.97C1227.08 62.8004 1227.97 63.6958 1227.97 64.8004V84.1956C1227.97 85.3001 1227.08 86.1956 1225.97 86.1956H1211.97C1210.87 86.1956 1209.97 85.3001 1209.97 84.1956V64.8004ZM1213.97 66.8004V82.1956H1223.97V66.8004H1213.97ZM1239.58 65.6964C1239.58 64.5918 1240.47 63.6964 1241.58 63.6964H1284.5C1285.61 63.6964 1286.5 64.5918 1286.5 65.6964V111.905C1286.5 113.01 1285.61 113.905 1284.5 113.905H1241.58C1240.47 113.905 1239.58 113.01 1239.58 111.905V65.6964ZM1243.58 67.6964V109.905H1282.5V67.6964H1243.58ZM1209.81 95.9363C1209.81 94.8317 1210.71 93.9363 1211.81 93.9363H1220.73C1221.84 93.9363 1222.73 94.8317 1222.73 95.9363C1222.73 97.0409 1221.84 97.9363 1220.73 97.9363H1211.81C1210.71 97.9363 1209.81 97.0409 1209.81 95.9363ZM1209.81 102.936C1209.81 101.832 1210.71 100.936 1211.81 100.936H1226.35C1227.46 100.936 1228.35 101.832 1228.35 102.936C1228.35 104.041 1227.46 104.936 1226.35 104.936H1211.81C1210.71 104.936 1209.81 104.041 1209.81 102.936ZM1209.81 109.936C1209.81 108.832 1210.71 107.936 1211.81 107.936H1220.73C1221.84 107.936 1222.73 108.832 1222.73 109.936C1222.73 111.041 1221.84 111.936 1220.73 111.936H1211.81C1210.71 111.936 1209.81 111.041 1209.81 109.936Z" fill="white"/>
<defs>
<linearGradient id="paint0_linear_2_64" x1="1248.5" y1="0" x2="1248.5" y2="167" gradientUnits="userSpaceOnUse">
<stop stop-color="#BD00FF"/>
<stop offset="1" stop-color="#141CCB"/>
</linearGradient>
</defs>
</svg>
