<svg width="1363" height="301" viewBox="0 0 1363 301" fill="none" xmlns="http://www.w3.org/2000/svg">
<rect width="1363" height="301" rx="15" fill="#F0F0F0"/>
<path d="M0 15C0 6.71573 6.71573 0 15 0H37V301H15C6.71573 301 0 294.284 0 286V15Z" fill="url(#paint0_linear_3_60)"/>
<path d="M94.981 104.898H110.369C113.377 104.898 115.991 105.346 118.211 106.241C120.431 107.136 122.141 108.461 123.34 110.216C124.558 111.97 125.167 114.137 125.167 116.715C125.167 118.953 124.817 120.824 124.119 122.328C123.421 123.832 122.445 125.076 121.192 126.061C119.957 127.027 118.515 127.824 116.868 128.451L113.78 130.196H100.862L100.809 122.918H110.369C111.569 122.918 112.562 122.704 113.35 122.274C114.138 121.844 114.729 121.236 115.123 120.448C115.534 119.642 115.74 118.684 115.74 117.574C115.74 116.446 115.534 115.479 115.123 114.674C114.711 113.868 114.102 113.25 113.296 112.821C112.509 112.391 111.533 112.176 110.369 112.176H104.407V144H94.981V104.898ZM116.385 144L107.737 126.705L117.728 126.651L126.482 143.597V144H116.385ZM144.502 144.537C142.139 144.537 140.027 144.17 138.165 143.436C136.303 142.684 134.727 141.655 133.438 140.348C132.167 139.041 131.191 137.537 130.511 135.836C129.848 134.135 129.517 132.336 129.517 130.438V129.417C129.517 127.287 129.812 125.318 130.403 123.509C130.994 121.683 131.871 120.09 133.035 118.729C134.199 117.368 135.658 116.312 137.413 115.56C139.167 114.79 141.208 114.405 143.536 114.405C145.595 114.405 147.439 114.736 149.068 115.399C150.697 116.061 152.076 117.01 153.204 118.246C154.349 119.481 155.218 120.976 155.809 122.73C156.417 124.485 156.722 126.454 156.722 128.639V132.318H132.981V126.651H147.886V125.953C147.904 124.986 147.734 124.163 147.376 123.482C147.036 122.802 146.535 122.283 145.872 121.925C145.21 121.567 144.404 121.388 143.455 121.388C142.47 121.388 141.656 121.603 141.011 122.032C140.385 122.462 139.892 123.053 139.534 123.805C139.194 124.539 138.952 125.389 138.809 126.356C138.666 127.323 138.594 128.343 138.594 129.417V130.438C138.594 131.512 138.737 132.488 139.024 133.365C139.328 134.243 139.758 134.994 140.313 135.621C140.886 136.23 141.566 136.704 142.354 137.044C143.16 137.385 144.073 137.555 145.093 137.555C146.329 137.555 147.546 137.322 148.746 136.856C149.945 136.391 150.975 135.621 151.834 134.547L155.943 139.435C155.352 140.276 154.511 141.091 153.418 141.878C152.344 142.666 151.055 143.311 149.551 143.812C148.047 144.295 146.364 144.537 144.502 144.537ZM169.532 121.092V144H160.481V114.942H168.968L169.532 121.092ZM168.431 128.478L166.363 128.531C166.363 126.49 166.604 124.61 167.088 122.892C167.571 121.173 168.287 119.678 169.236 118.407C170.185 117.136 171.349 116.151 172.728 115.453C174.124 114.754 175.735 114.405 177.562 114.405C178.833 114.405 179.987 114.602 181.026 114.996C182.064 115.372 182.959 115.972 183.711 116.795C184.463 117.601 185.036 118.657 185.43 119.964C185.842 121.253 186.048 122.802 186.048 124.61V144H176.998V125.765C176.998 124.53 176.854 123.599 176.568 122.972C176.299 122.346 175.905 121.925 175.386 121.71C174.867 121.495 174.231 121.388 173.479 121.388C172.692 121.388 171.985 121.567 171.358 121.925C170.731 122.283 170.194 122.784 169.747 123.429C169.317 124.055 168.986 124.798 168.753 125.658C168.538 126.517 168.431 127.457 168.431 128.478ZM185.027 128.478L182.503 128.531C182.503 126.49 182.727 124.61 183.174 122.892C183.64 121.173 184.329 119.678 185.242 118.407C186.173 117.136 187.328 116.151 188.707 115.453C190.085 114.754 191.688 114.405 193.514 114.405C194.839 114.405 196.056 114.602 197.166 114.996C198.276 115.39 199.234 116.026 200.04 116.903C200.845 117.78 201.472 118.944 201.919 120.394C202.367 121.826 202.591 123.599 202.591 125.711V144H193.514V125.711C193.514 124.512 193.37 123.608 193.084 122.999C192.815 122.372 192.422 121.952 191.902 121.737C191.383 121.504 190.765 121.388 190.049 121.388C189.19 121.388 188.447 121.567 187.82 121.925C187.194 122.283 186.666 122.784 186.236 123.429C185.824 124.055 185.52 124.798 185.323 125.658C185.126 126.517 185.027 127.457 185.027 128.478ZM206.646 129.767V129.203C206.646 127.072 206.95 125.112 207.559 123.321C208.168 121.513 209.063 119.946 210.245 118.622C211.426 117.297 212.885 116.267 214.622 115.533C216.359 114.781 218.364 114.405 220.638 114.405C222.929 114.405 224.944 114.781 226.68 115.533C228.435 116.267 229.903 117.297 231.084 118.622C232.266 119.946 233.161 121.513 233.77 123.321C234.379 125.112 234.683 127.072 234.683 129.203V129.767C234.683 131.879 234.379 133.84 233.77 135.648C233.161 137.438 232.266 139.005 231.084 140.348C229.903 141.673 228.444 142.702 226.707 143.436C224.97 144.17 222.965 144.537 220.691 144.537C218.418 144.537 216.403 144.17 214.649 143.436C212.894 142.702 211.426 141.673 210.245 140.348C209.063 139.005 208.168 137.438 207.559 135.648C206.95 133.84 206.646 131.879 206.646 129.767ZM215.696 129.203V129.767C215.696 130.859 215.777 131.879 215.938 132.828C216.099 133.777 216.368 134.61 216.744 135.326C217.12 136.024 217.63 136.57 218.274 136.964C218.919 137.358 219.725 137.555 220.691 137.555C221.64 137.555 222.428 137.358 223.055 136.964C223.699 136.57 224.209 136.024 224.585 135.326C224.961 134.61 225.23 133.777 225.391 132.828C225.552 131.879 225.633 130.859 225.633 129.767V129.203C225.633 128.146 225.552 127.153 225.391 126.222C225.23 125.273 224.961 124.44 224.585 123.724C224.209 122.99 223.699 122.417 223.055 122.005C222.41 121.594 221.604 121.388 220.638 121.388C219.689 121.388 218.892 121.594 218.248 122.005C217.621 122.417 217.12 122.99 216.744 123.724C216.368 124.44 216.099 125.273 215.938 126.222C215.777 127.153 215.696 128.146 215.696 129.203ZM254.019 114.942V121.227H236.509V114.942H254.019ZM240.188 107.718H249.239V134.52C249.239 135.29 249.328 135.89 249.507 136.319C249.686 136.731 249.991 137.027 250.42 137.206C250.868 137.367 251.459 137.447 252.193 137.447C252.712 137.447 253.142 137.438 253.482 137.42C253.822 137.385 254.144 137.34 254.449 137.286V143.758C253.679 144.009 252.873 144.197 252.032 144.322C251.19 144.465 250.295 144.537 249.346 144.537C247.413 144.537 245.757 144.233 244.378 143.624C243.017 143.015 241.979 142.057 241.263 140.75C240.547 139.444 240.188 137.743 240.188 135.648V107.718ZM271.69 144.537C269.327 144.537 267.214 144.17 265.352 143.436C263.49 142.684 261.915 141.655 260.625 140.348C259.354 139.041 258.379 137.537 257.698 135.836C257.036 134.135 256.705 132.336 256.705 130.438V129.417C256.705 127.287 257 125.318 257.591 123.509C258.182 121.683 259.059 120.09 260.223 118.729C261.386 117.368 262.846 116.312 264.6 115.56C266.355 114.79 268.396 114.405 270.723 114.405C272.782 114.405 274.626 114.736 276.255 115.399C277.885 116.061 279.263 117.01 280.391 118.246C281.537 119.481 282.405 120.976 282.996 122.73C283.605 124.485 283.909 126.454 283.909 128.639V132.318H260.169V126.651H275.074V125.953C275.092 124.986 274.922 124.163 274.563 123.482C274.223 122.802 273.722 122.283 273.06 121.925C272.397 121.567 271.591 121.388 270.643 121.388C269.658 121.388 268.843 121.603 268.199 122.032C267.572 122.462 267.08 123.053 266.722 123.805C266.382 124.539 266.14 125.389 265.997 126.356C265.853 127.323 265.782 128.343 265.782 129.417V130.438C265.782 131.512 265.925 132.488 266.211 133.365C266.516 134.243 266.945 134.994 267.5 135.621C268.073 136.23 268.754 136.704 269.542 137.044C270.347 137.385 271.26 137.555 272.281 137.555C273.516 137.555 274.734 137.322 275.933 136.856C277.133 136.391 278.162 135.621 279.021 134.547L283.13 139.435C282.54 140.276 281.698 141.091 280.606 141.878C279.532 142.666 278.243 143.311 276.739 143.812C275.235 144.295 273.552 144.537 271.69 144.537Z" fill="black"/>
<path d="M96.563 55.1172H100.904L107.295 73.3862L113.687 55.1172H118.028L109.039 80H105.552L96.563 55.1172ZM94.2217 55.1172H98.5454L99.3315 72.9248V80H94.2217V55.1172ZM116.045 55.1172H120.386V80H115.259V72.9248L116.045 55.1172ZM123.787 70.9424V70.5835C123.787 69.2277 123.981 67.9801 124.368 66.8408C124.756 65.6901 125.319 64.6932 126.06 63.8501C126.801 63.007 127.712 62.3519 128.794 61.8848C129.877 61.4062 131.119 61.167 132.52 61.167C133.921 61.167 135.169 61.4062 136.263 61.8848C137.356 62.3519 138.274 63.007 139.014 63.8501C139.766 64.6932 140.336 65.6901 140.723 66.8408C141.111 67.9801 141.304 69.2277 141.304 70.5835V70.9424C141.304 72.2868 141.111 73.5343 140.723 74.6851C140.336 75.8244 139.766 76.8213 139.014 77.6758C138.274 78.5189 137.362 79.174 136.28 79.6411C135.197 80.1082 133.956 80.3418 132.554 80.3418C131.153 80.3418 129.905 80.1082 128.812 79.6411C127.729 79.174 126.812 78.5189 126.06 77.6758C125.319 76.8213 124.756 75.8244 124.368 74.6851C123.981 73.5343 123.787 72.2868 123.787 70.9424ZM128.709 70.5835V70.9424C128.709 71.7171 128.777 72.4406 128.914 73.1128C129.051 73.785 129.267 74.3774 129.563 74.8901C129.871 75.3914 130.27 75.7845 130.76 76.0693C131.25 76.3542 131.848 76.4966 132.554 76.4966C133.238 76.4966 133.825 76.3542 134.314 76.0693C134.804 75.7845 135.197 75.3914 135.494 74.8901C135.79 74.3774 136.006 73.785 136.143 73.1128C136.291 72.4406 136.365 71.7171 136.365 70.9424V70.5835C136.365 69.8315 136.291 69.1252 136.143 68.4644C136.006 67.7922 135.784 67.1997 135.477 66.687C135.18 66.1629 134.787 65.7528 134.297 65.4565C133.807 65.1603 133.215 65.0122 132.52 65.0122C131.825 65.0122 131.233 65.1603 130.743 65.4565C130.264 65.7528 129.871 66.1629 129.563 66.687C129.267 67.1997 129.051 67.7922 128.914 68.4644C128.777 69.1252 128.709 69.8315 128.709 70.5835ZM149.131 53.75V80H144.209V53.75H149.131ZM148.431 70.105H147.081C147.092 68.8175 147.263 67.6326 147.593 66.5503C147.924 65.4565 148.396 64.5109 149.012 63.7134C149.627 62.9045 150.362 62.2778 151.216 61.8335C152.082 61.3892 153.039 61.167 154.087 61.167C154.999 61.167 155.825 61.298 156.565 61.5601C157.317 61.8107 157.961 62.2209 158.497 62.7905C159.043 63.3488 159.465 64.0837 159.761 64.9951C160.057 65.9066 160.206 67.0117 160.206 68.3105V80H155.25V68.2764C155.25 67.4561 155.13 66.8123 154.891 66.3452C154.663 65.8667 154.327 65.5306 153.882 65.3369C153.449 65.1318 152.914 65.0293 152.276 65.0293C151.569 65.0293 150.966 65.1603 150.464 65.4224C149.974 65.6844 149.581 66.049 149.285 66.5161C148.989 66.9718 148.772 67.5073 148.636 68.1226C148.499 68.7378 148.431 69.3986 148.431 70.105ZM173.929 75.8301V67.5928C173.929 67.0003 173.832 66.4933 173.638 66.0718C173.444 65.6388 173.143 65.3027 172.732 65.0635C172.334 64.8242 171.815 64.7046 171.177 64.7046C170.63 64.7046 170.158 64.8014 169.759 64.9951C169.36 65.1774 169.052 65.4451 168.836 65.7983C168.619 66.1401 168.511 66.5446 168.511 67.0117H163.589C163.589 66.2256 163.772 65.4793 164.136 64.7729C164.501 64.0666 165.031 63.4456 165.726 62.9102C166.421 62.3633 167.247 61.936 168.204 61.6284C169.172 61.3208 170.254 61.167 171.451 61.167C172.886 61.167 174.162 61.4062 175.279 61.8848C176.395 62.3633 177.273 63.0811 177.911 64.0381C178.56 64.9951 178.885 66.1914 178.885 67.627V75.5396C178.885 76.5535 178.947 77.3853 179.073 78.0347C179.198 78.6727 179.38 79.231 179.62 79.7095V80H174.646C174.407 79.4987 174.225 78.8721 174.1 78.1201C173.986 77.3568 173.929 76.5934 173.929 75.8301ZM174.578 68.7378L174.612 71.5234H171.861C171.211 71.5234 170.647 71.5975 170.169 71.7456C169.69 71.8937 169.297 72.1045 168.99 72.3779C168.682 72.64 168.454 72.9476 168.306 73.3008C168.169 73.654 168.101 74.0413 168.101 74.4629C168.101 74.8844 168.198 75.2661 168.392 75.6079C168.585 75.9383 168.864 76.2004 169.229 76.394C169.594 76.5763 170.021 76.6675 170.511 76.6675C171.251 76.6675 171.895 76.5194 172.442 76.2231C172.989 75.9269 173.41 75.5623 173.707 75.1294C174.014 74.6965 174.174 74.2863 174.185 73.8989L175.484 75.9839C175.302 76.451 175.051 76.9352 174.732 77.4365C174.424 77.9378 174.031 78.4106 173.553 78.855C173.074 79.2879 172.499 79.6468 171.827 79.9316C171.154 80.2051 170.357 80.3418 169.434 80.3418C168.261 80.3418 167.195 80.1082 166.238 79.6411C165.293 79.1626 164.541 78.5075 163.982 77.6758C163.436 76.8327 163.162 75.8757 163.162 74.8047C163.162 73.8363 163.344 72.9761 163.709 72.2241C164.074 71.4722 164.609 70.8398 165.315 70.3271C166.033 69.8031 166.928 69.41 167.999 69.1479C169.069 68.8745 170.311 68.7378 171.724 68.7378H174.578ZM187.601 65.3369V80H182.662V61.5088H187.293L187.601 65.3369ZM186.917 70.105H185.55C185.55 68.8175 185.704 67.6326 186.011 66.5503C186.33 65.4565 186.792 64.5109 187.396 63.7134C188.011 62.9045 188.768 62.2778 189.668 61.8335C190.569 61.3892 191.611 61.167 192.796 61.167C193.616 61.167 194.368 61.2923 195.052 61.543C195.735 61.7822 196.322 62.1639 196.812 62.688C197.313 63.2007 197.701 63.8729 197.974 64.7046C198.248 65.5249 198.384 66.5104 198.384 67.6611V80H193.462V68.208C193.462 67.3649 193.348 66.7155 193.121 66.2598C192.893 65.804 192.568 65.485 192.146 65.3027C191.736 65.1204 191.241 65.0293 190.66 65.0293C190.022 65.0293 189.463 65.1603 188.985 65.4224C188.518 65.6844 188.13 66.049 187.823 66.5161C187.515 66.9718 187.287 67.5073 187.139 68.1226C186.991 68.7378 186.917 69.3986 186.917 70.105ZM197.923 69.541L196.163 69.7632C196.163 68.5555 196.311 67.4333 196.607 66.3965C196.915 65.3597 197.365 64.4482 197.957 63.6621C198.561 62.876 199.307 62.2664 200.196 61.8335C201.084 61.3892 202.11 61.167 203.272 61.167C204.161 61.167 204.97 61.298 205.699 61.5601C206.428 61.8107 207.049 62.2152 207.562 62.7734C208.086 63.3203 208.484 64.0381 208.758 64.9268C209.043 65.8154 209.185 66.9035 209.185 68.1909V80H204.246V68.1909C204.246 67.3364 204.132 66.687 203.904 66.2427C203.688 65.7869 203.369 65.4736 202.947 65.3027C202.537 65.1204 202.047 65.0293 201.478 65.0293C200.885 65.0293 200.367 65.1489 199.922 65.3882C199.478 65.616 199.108 65.9351 198.812 66.3452C198.515 66.7554 198.293 67.2339 198.145 67.7808C197.997 68.3162 197.923 68.903 197.923 69.541ZM222.977 75.8301V67.5928C222.977 67.0003 222.88 66.4933 222.686 66.0718C222.492 65.6388 222.19 65.3027 221.78 65.0635C221.382 64.8242 220.863 64.7046 220.225 64.7046C219.678 64.7046 219.205 64.8014 218.807 64.9951C218.408 65.1774 218.1 65.4451 217.884 65.7983C217.667 66.1401 217.559 66.5446 217.559 67.0117H212.637C212.637 66.2256 212.819 65.4793 213.184 64.7729C213.549 64.0666 214.078 63.4456 214.773 62.9102C215.468 62.3633 216.294 61.936 217.251 61.6284C218.22 61.3208 219.302 61.167 220.499 61.167C221.934 61.167 223.21 61.4062 224.327 61.8848C225.443 62.3633 226.32 63.0811 226.958 64.0381C227.608 64.9951 227.933 66.1914 227.933 67.627V75.5396C227.933 76.5535 227.995 77.3853 228.121 78.0347C228.246 78.6727 228.428 79.231 228.667 79.7095V80H223.694C223.455 79.4987 223.273 78.8721 223.147 78.1201C223.034 77.3568 222.977 76.5934 222.977 75.8301ZM223.626 68.7378L223.66 71.5234H220.909C220.259 71.5234 219.695 71.5975 219.217 71.7456C218.738 71.8937 218.345 72.1045 218.038 72.3779C217.73 72.64 217.502 72.9476 217.354 73.3008C217.217 73.654 217.149 74.0413 217.149 74.4629C217.149 74.8844 217.246 75.2661 217.439 75.6079C217.633 75.9383 217.912 76.2004 218.277 76.394C218.641 76.5763 219.069 76.6675 219.559 76.6675C220.299 76.6675 220.943 76.5194 221.49 76.2231C222.037 75.9269 222.458 75.5623 222.754 75.1294C223.062 74.6965 223.222 74.2863 223.233 73.8989L224.532 75.9839C224.349 76.451 224.099 76.9352 223.78 77.4365C223.472 77.9378 223.079 78.4106 222.601 78.855C222.122 79.2879 221.547 79.6468 220.875 79.9316C220.202 80.2051 219.405 80.3418 218.482 80.3418C217.308 80.3418 216.243 80.1082 215.286 79.6411C214.34 79.1626 213.589 78.5075 213.03 77.6758C212.483 76.8327 212.21 75.8757 212.21 74.8047C212.21 73.8363 212.392 72.9761 212.757 72.2241C213.121 71.4722 213.657 70.8398 214.363 70.3271C215.081 69.8031 215.975 69.41 217.046 69.1479C218.117 68.8745 219.359 68.7378 220.772 68.7378H223.626ZM242.647 75.9668V53.75H247.603V80H243.143L242.647 75.9668ZM230.958 70.9766V70.6177C230.958 69.2049 231.117 67.9232 231.436 66.7725C231.755 65.6104 232.222 64.6134 232.837 63.7817C233.453 62.95 234.21 62.3063 235.11 61.8506C236.01 61.3949 237.036 61.167 238.187 61.167C239.269 61.167 240.215 61.3949 241.023 61.8506C241.844 62.3063 242.539 62.9557 243.108 63.7988C243.689 64.6305 244.157 65.616 244.51 66.7554C244.863 67.8833 245.119 69.1195 245.279 70.4639V71.25C245.119 72.5374 244.863 73.7337 244.51 74.8389C244.157 75.944 243.689 76.9124 243.108 77.7441C242.539 78.5645 241.844 79.2025 241.023 79.6582C240.203 80.1139 239.246 80.3418 238.152 80.3418C237.002 80.3418 235.976 80.1082 235.076 79.6411C234.188 79.174 233.436 78.5189 232.82 77.6758C232.216 76.8327 231.755 75.8415 231.436 74.7021C231.117 73.5628 230.958 72.321 230.958 70.9766ZM235.879 70.6177V70.9766C235.879 71.7399 235.936 72.452 236.05 73.1128C236.176 73.7736 236.375 74.3604 236.648 74.873C236.933 75.3743 237.298 75.7674 237.742 76.0522C238.198 76.3257 238.75 76.4624 239.4 76.4624C240.243 76.4624 240.938 76.2744 241.485 75.8984C242.032 75.5111 242.448 74.9813 242.732 74.3091C243.029 73.6369 243.2 72.8621 243.245 71.9849V69.7461C243.211 69.0283 243.108 68.3846 242.938 67.8149C242.778 67.2339 242.539 66.7383 242.22 66.3281C241.912 65.918 241.525 65.599 241.058 65.3711C240.602 65.1432 240.061 65.0293 239.434 65.0293C238.796 65.0293 238.249 65.1774 237.793 65.4736C237.338 65.7585 236.967 66.1515 236.683 66.6528C236.409 67.1541 236.204 67.7466 236.067 68.4302C235.942 69.1024 235.879 69.8315 235.879 70.6177ZM270.674 55.1172V80H265.564V55.1172H270.674ZM278.331 55.1172V59.1333H258.028V55.1172H278.331ZM288.328 75.8301V67.5928C288.328 67.0003 288.231 66.4933 288.038 66.0718C287.844 65.6388 287.542 65.3027 287.132 65.0635C286.733 64.8242 286.215 64.7046 285.577 64.7046C285.03 64.7046 284.557 64.8014 284.158 64.9951C283.759 65.1774 283.452 65.4451 283.235 65.7983C283.019 66.1401 282.911 66.5446 282.911 67.0117H277.989C277.989 66.2256 278.171 65.4793 278.536 64.7729C278.9 64.0666 279.43 63.4456 280.125 62.9102C280.82 62.3633 281.646 61.936 282.603 61.6284C283.571 61.3208 284.654 61.167 285.85 61.167C287.286 61.167 288.562 61.4062 289.678 61.8848C290.795 62.3633 291.672 63.0811 292.31 64.0381C292.959 64.9951 293.284 66.1914 293.284 67.627V75.5396C293.284 76.5535 293.347 77.3853 293.472 78.0347C293.597 78.6727 293.78 79.231 294.019 79.7095V80H289.046C288.807 79.4987 288.624 78.8721 288.499 78.1201C288.385 77.3568 288.328 76.5934 288.328 75.8301ZM288.978 68.7378L289.012 71.5234H286.26C285.611 71.5234 285.047 71.5975 284.568 71.7456C284.09 71.8937 283.697 72.1045 283.389 72.3779C283.082 72.64 282.854 72.9476 282.706 73.3008C282.569 73.654 282.5 74.0413 282.5 74.4629C282.5 74.8844 282.597 75.2661 282.791 75.6079C282.985 75.9383 283.264 76.2004 283.628 76.394C283.993 76.5763 284.42 76.6675 284.91 76.6675C285.651 76.6675 286.294 76.5194 286.841 76.2231C287.388 75.9269 287.81 75.5623 288.106 75.1294C288.414 74.6965 288.573 74.2863 288.584 73.8989L289.883 75.9839C289.701 76.451 289.45 76.9352 289.131 77.4365C288.824 77.9378 288.431 78.4106 287.952 78.855C287.474 79.2879 286.898 79.6468 286.226 79.9316C285.554 80.2051 284.756 80.3418 283.833 80.3418C282.66 80.3418 281.595 80.1082 280.638 79.6411C279.692 79.1626 278.94 78.5075 278.382 77.6758C277.835 76.8327 277.562 75.8757 277.562 74.8047C277.562 73.8363 277.744 72.9761 278.108 72.2241C278.473 71.4722 279.008 70.8398 279.715 70.3271C280.433 69.8031 281.327 69.41 282.398 69.1479C283.469 68.8745 284.711 68.7378 286.124 68.7378H288.978ZM301.88 53.75V80H296.958V53.75H301.88ZM301.18 70.105H299.83C299.841 68.8175 300.012 67.6326 300.342 66.5503C300.673 65.4565 301.146 64.5109 301.761 63.7134C302.376 62.9045 303.111 62.2778 303.965 61.8335C304.831 61.3892 305.788 61.167 306.836 61.167C307.748 61.167 308.574 61.298 309.314 61.5601C310.066 61.8107 310.71 62.2209 311.246 62.7905C311.792 63.3488 312.214 64.0837 312.51 64.9951C312.806 65.9066 312.955 67.0117 312.955 68.3105V80H307.999V68.2764C307.999 67.4561 307.879 66.8123 307.64 66.3452C307.412 65.8667 307.076 65.5306 306.631 65.3369C306.198 65.1318 305.663 65.0293 305.025 65.0293C304.319 65.0293 303.715 65.1603 303.213 65.4224C302.723 65.6844 302.33 66.049 302.034 66.5161C301.738 66.9718 301.521 67.5073 301.385 68.1226C301.248 68.7378 301.18 69.3986 301.18 70.105ZM326.678 75.8301V67.5928C326.678 67.0003 326.581 66.4933 326.387 66.0718C326.194 65.6388 325.892 65.3027 325.481 65.0635C325.083 64.8242 324.564 64.7046 323.926 64.7046C323.379 64.7046 322.907 64.8014 322.508 64.9951C322.109 65.1774 321.801 65.4451 321.585 65.7983C321.368 66.1401 321.26 66.5446 321.26 67.0117H316.338C316.338 66.2256 316.521 65.4793 316.885 64.7729C317.25 64.0666 317.78 63.4456 318.475 62.9102C319.17 62.3633 319.996 61.936 320.953 61.6284C321.921 61.3208 323.003 61.167 324.2 61.167C325.635 61.167 326.911 61.4062 328.028 61.8848C329.144 62.3633 330.022 63.0811 330.66 64.0381C331.309 64.9951 331.634 66.1914 331.634 67.627V75.5396C331.634 76.5535 331.696 77.3853 331.822 78.0347C331.947 78.6727 332.129 79.231 332.369 79.7095V80H327.396C327.156 79.4987 326.974 78.8721 326.849 78.1201C326.735 77.3568 326.678 76.5934 326.678 75.8301ZM327.327 68.7378L327.361 71.5234H324.61C323.96 71.5234 323.396 71.5975 322.918 71.7456C322.439 71.8937 322.046 72.1045 321.739 72.3779C321.431 72.64 321.203 72.9476 321.055 73.3008C320.918 73.654 320.85 74.0413 320.85 74.4629C320.85 74.8844 320.947 75.2661 321.141 75.6079C321.334 75.9383 321.613 76.2004 321.978 76.394C322.343 76.5763 322.77 76.6675 323.26 76.6675C324 76.6675 324.644 76.5194 325.191 76.2231C325.738 75.9269 326.159 75.5623 326.456 75.1294C326.763 74.6965 326.923 74.2863 326.934 73.8989L328.233 75.9839C328.051 76.451 327.8 76.9352 327.481 77.4365C327.173 77.9378 326.78 78.4106 326.302 78.855C325.823 79.2879 325.248 79.6468 324.576 79.9316C323.903 80.2051 323.106 80.3418 322.183 80.3418C321.01 80.3418 319.944 80.1082 318.987 79.6411C318.042 79.1626 317.29 78.5075 316.731 77.6758C316.185 76.8327 315.911 75.8757 315.911 74.8047C315.911 73.8363 316.093 72.9761 316.458 72.2241C316.823 71.4722 317.358 70.8398 318.064 70.3271C318.782 69.8031 319.677 69.41 320.748 69.1479C321.819 68.8745 323.06 68.7378 324.473 68.7378H327.327ZM340.247 65.4565V80H335.325V61.5088H339.939L340.247 65.4565ZM339.529 70.105H338.196C338.196 68.7378 338.373 67.5073 338.726 66.4136C339.079 65.3084 339.575 64.3685 340.213 63.5938C340.851 62.8076 341.609 62.2095 342.486 61.7993C343.375 61.3778 344.366 61.167 345.459 61.167C346.325 61.167 347.117 61.2923 347.835 61.543C348.553 61.7936 349.168 62.1924 349.681 62.7393C350.205 63.2861 350.604 64.0096 350.877 64.9097C351.162 65.8097 351.304 66.9092 351.304 68.208V80H346.348V68.1909C346.348 67.3706 346.234 66.7326 346.006 66.2769C345.778 65.8211 345.442 65.5021 344.998 65.3198C344.565 65.1261 344.03 65.0293 343.392 65.0293C342.731 65.0293 342.155 65.1603 341.666 65.4224C341.187 65.6844 340.788 66.049 340.469 66.5161C340.162 66.9718 339.928 67.5073 339.769 68.1226C339.609 68.7378 339.529 69.3986 339.529 70.105Z" fill="#888888"/>
<rect x="92" y="181" width="1179" height="80" rx="13.3333" fill="#CCCCCC"/>
<rect x="107" y="196.333" width="208" height="49.3333" rx="4.66667" fill="#888888" stroke="#888888" stroke-width="4"/>
<path d="M166.656 213.167H169.635L173.021 223.719L176.406 213.167H179.385L174.229 228.333H171.813L166.656 213.167ZM164.844 213.167H167.927L168.5 224.792V228.333H164.844V213.167ZM178.115 213.167H181.208V228.333H177.542V224.792L178.115 213.167ZM182.948 222.812V222.594C182.948 221.767 183.066 221.007 183.302 220.312C183.538 219.611 183.885 219.003 184.344 218.49C184.802 217.976 185.368 217.576 186.042 217.292C186.715 217 187.493 216.854 188.375 216.854C189.264 216.854 190.045 217 190.719 217.292C191.399 217.576 191.969 217.976 192.427 218.49C192.885 219.003 193.233 219.611 193.469 220.312C193.705 221.007 193.823 221.767 193.823 222.594V222.812C193.823 223.632 193.705 224.392 193.469 225.094C193.233 225.788 192.885 226.396 192.427 226.917C191.969 227.431 191.403 227.83 190.729 228.115C190.056 228.399 189.278 228.542 188.396 228.542C187.514 228.542 186.733 228.399 186.052 228.115C185.372 227.83 184.802 227.431 184.344 226.917C183.885 226.396 183.538 225.788 183.302 225.094C183.066 224.392 182.948 223.632 182.948 222.812ZM186.458 222.594V222.812C186.458 223.236 186.49 223.632 186.552 224C186.615 224.368 186.719 224.691 186.865 224.969C187.01 225.24 187.208 225.451 187.458 225.604C187.708 225.757 188.021 225.833 188.396 225.833C188.764 225.833 189.069 225.757 189.313 225.604C189.563 225.451 189.76 225.24 189.906 224.969C190.052 224.691 190.156 224.368 190.219 224C190.281 223.632 190.313 223.236 190.313 222.812V222.594C190.313 222.184 190.281 221.799 190.219 221.437C190.156 221.069 190.052 220.747 189.906 220.469C189.76 220.184 189.563 219.962 189.313 219.802C189.063 219.642 188.75 219.562 188.375 219.562C188.007 219.562 187.698 219.642 187.448 219.802C187.205 219.962 187.01 220.184 186.865 220.469C186.719 220.747 186.615 221.069 186.552 221.437C186.49 221.799 186.458 222.184 186.458 222.594ZM198.833 219.469V228.333H195.323V217.062H198.615L198.833 219.469ZM198.417 222.312L197.594 222.333C197.594 221.472 197.698 220.705 197.906 220.031C198.115 219.351 198.41 218.774 198.792 218.302C199.174 217.83 199.628 217.472 200.156 217.229C200.691 216.979 201.285 216.854 201.938 216.854C202.458 216.854 202.934 216.931 203.365 217.083C203.802 217.236 204.177 217.483 204.49 217.823C204.809 218.163 205.052 218.615 205.219 219.177C205.392 219.733 205.479 220.42 205.479 221.24V228.333H201.948V221.229C201.948 220.778 201.885 220.434 201.76 220.198C201.635 219.955 201.455 219.788 201.219 219.698C200.983 219.608 200.694 219.562 200.354 219.562C199.993 219.562 199.688 219.632 199.438 219.771C199.188 219.91 198.986 220.104 198.833 220.354C198.688 220.597 198.58 220.885 198.51 221.219C198.448 221.552 198.417 221.917 198.417 222.312ZM214.51 217.062H217.698V227.896C217.698 228.937 217.458 229.819 216.979 230.542C216.5 231.271 215.83 231.823 214.969 232.198C214.115 232.58 213.115 232.771 211.969 232.771C211.462 232.771 210.944 232.705 210.417 232.573C209.889 232.448 209.396 232.26 208.938 232.01C208.479 231.76 208.094 231.451 207.781 231.083L209.25 229.021C209.535 229.34 209.892 229.611 210.323 229.833C210.753 230.062 211.26 230.177 211.844 230.177C212.351 230.177 212.774 230.087 213.115 229.906C213.462 229.726 213.726 229.462 213.906 229.115C214.087 228.774 214.177 228.361 214.177 227.875V219.729L214.51 217.062ZM207.021 222.833V222.615C207.021 221.76 207.125 220.983 207.333 220.281C207.549 219.573 207.854 218.965 208.25 218.458C208.653 217.944 209.139 217.549 209.708 217.271C210.278 216.993 210.92 216.854 211.635 216.854C212.406 216.854 213.038 217.003 213.531 217.302C214.031 217.594 214.431 218.003 214.729 218.531C215.035 219.059 215.271 219.677 215.438 220.385C215.611 221.087 215.757 221.844 215.875 222.656V222.917C215.757 223.681 215.594 224.403 215.385 225.083C215.184 225.757 214.92 226.354 214.594 226.875C214.267 227.396 213.858 227.806 213.365 228.104C212.878 228.396 212.295 228.542 211.615 228.542C210.906 228.542 210.267 228.399 209.698 228.115C209.135 227.83 208.653 227.431 208.25 226.917C207.854 226.403 207.549 225.799 207.333 225.104C207.125 224.41 207.021 223.653 207.021 222.833ZM210.531 222.615V222.833C210.531 223.257 210.569 223.649 210.646 224.01C210.729 224.372 210.854 224.691 211.021 224.969C211.188 225.24 211.392 225.451 211.635 225.604C211.885 225.757 212.177 225.833 212.51 225.833C213.017 225.833 213.427 225.726 213.74 225.51C214.052 225.295 214.278 224.99 214.417 224.594C214.556 224.198 214.615 223.733 214.594 223.198V222.375C214.608 221.917 214.576 221.514 214.5 221.167C214.424 220.812 214.302 220.517 214.135 220.281C213.976 220.045 213.76 219.868 213.49 219.75C213.226 219.625 212.906 219.562 212.531 219.562C212.205 219.562 211.917 219.639 211.667 219.792C211.417 219.944 211.208 220.16 211.042 220.437C210.875 220.708 210.747 221.031 210.656 221.406C210.573 221.774 210.531 222.177 210.531 222.615ZM219.281 222.812V222.594C219.281 221.767 219.399 221.007 219.635 220.312C219.872 219.611 220.219 219.003 220.677 218.49C221.135 217.976 221.701 217.576 222.375 217.292C223.049 217 223.826 216.854 224.708 216.854C225.597 216.854 226.378 217 227.052 217.292C227.733 217.576 228.302 217.976 228.76 218.49C229.219 219.003 229.566 219.611 229.802 220.312C230.038 221.007 230.156 221.767 230.156 222.594V222.812C230.156 223.632 230.038 224.392 229.802 225.094C229.566 225.788 229.219 226.396 228.76 226.917C228.302 227.431 227.736 227.83 227.063 228.115C226.389 228.399 225.611 228.542 224.729 228.542C223.847 228.542 223.066 228.399 222.385 228.115C221.705 227.83 221.135 227.431 220.677 226.917C220.219 226.396 219.872 225.788 219.635 225.094C219.399 224.392 219.281 223.632 219.281 222.812ZM222.792 222.594V222.812C222.792 223.236 222.823 223.632 222.885 224C222.948 224.368 223.052 224.691 223.198 224.969C223.344 225.24 223.542 225.451 223.792 225.604C224.042 225.757 224.354 225.833 224.729 225.833C225.097 225.833 225.403 225.757 225.646 225.604C225.896 225.451 226.094 225.24 226.24 224.969C226.385 224.691 226.49 224.368 226.552 224C226.615 223.632 226.646 223.236 226.646 222.812V222.594C226.646 222.184 226.615 221.799 226.552 221.437C226.49 221.069 226.385 220.747 226.24 220.469C226.094 220.184 225.896 219.962 225.646 219.802C225.396 219.642 225.083 219.562 224.708 219.562C224.34 219.562 224.031 219.642 223.781 219.802C223.538 219.962 223.344 220.184 223.198 220.469C223.052 220.747 222.948 221.069 222.885 221.437C222.823 221.799 222.792 222.184 222.792 222.594ZM236.813 228.333H233.448L233.469 225.521H236.813C237.507 225.521 238.094 225.354 238.573 225.021C239.059 224.687 239.427 224.191 239.677 223.531C239.934 222.865 240.063 222.045 240.063 221.073V220.417C240.063 219.687 239.99 219.049 239.844 218.5C239.705 217.944 239.497 217.483 239.219 217.115C238.941 216.74 238.594 216.458 238.177 216.271C237.767 216.083 237.295 215.99 236.76 215.99H233.385V213.167H236.76C237.788 213.167 238.729 213.344 239.583 213.698C240.444 214.045 241.188 214.545 241.813 215.198C242.444 215.844 242.931 216.611 243.271 217.5C243.618 218.382 243.792 219.361 243.792 220.437V221.073C243.792 222.142 243.618 223.122 243.271 224.01C242.931 224.899 242.448 225.667 241.823 226.312C241.198 226.958 240.458 227.458 239.604 227.812C238.757 228.16 237.826 228.333 236.813 228.333ZM235.542 213.167V228.333H231.885V213.167H235.542ZM251.885 221.885H247.979L247.958 219.49H251.125C251.694 219.49 252.149 219.427 252.49 219.302C252.83 219.17 253.076 218.979 253.229 218.729C253.389 218.479 253.469 218.167 253.469 217.792C253.469 217.361 253.389 217.014 253.229 216.75C253.069 216.486 252.816 216.295 252.469 216.177C252.128 216.052 251.688 215.99 251.146 215.99H249.354V228.333H245.698V213.167H251.146C252.083 213.167 252.92 213.253 253.656 213.427C254.392 213.594 255.017 213.851 255.531 214.198C256.052 214.545 256.448 214.983 256.719 215.51C256.99 216.031 257.125 216.646 257.125 217.354C257.125 217.972 256.993 218.552 256.729 219.094C256.465 219.635 256.024 220.076 255.406 220.417C254.795 220.75 253.958 220.924 252.896 220.937L251.885 221.885ZM251.74 228.333H247.094L248.344 225.521H251.74C252.24 225.521 252.639 225.444 252.938 225.292C253.243 225.132 253.462 224.924 253.594 224.667C253.733 224.403 253.802 224.111 253.802 223.792C253.802 223.403 253.736 223.066 253.604 222.781C253.479 222.497 253.278 222.278 253 222.125C252.722 221.965 252.351 221.885 251.885 221.885H248.813L248.833 219.49H252.51L253.365 220.448C254.378 220.406 255.181 220.549 255.771 220.875C256.368 221.201 256.795 221.632 257.052 222.167C257.309 222.701 257.438 223.26 257.438 223.844C257.438 224.837 257.222 225.667 256.792 226.333C256.368 227 255.733 227.5 254.885 227.833C254.038 228.167 252.99 228.333 251.74 228.333Z" fill="white"/>
<rect x="339" y="196.333" width="208" height="49.3333" rx="4.66667" fill="#888888" stroke="#888888" stroke-width="4"/>
<path d="M403.75 225.521V228.333H395.667V225.521H403.75ZM396.969 213.167V228.333H393.313V213.167H396.969ZM402.708 219.187V221.906H395.667V219.187H402.708ZM403.781 213.167V215.99H395.667V213.167H403.781ZM408.063 217.062L409.646 220.167L411.281 217.062H414.927L411.969 222.552L415.083 228.333H411.406L409.646 225L407.896 228.333H404.219L407.333 222.552L404.385 217.062H408.063ZM419.625 219.229V232.667H416.115V217.062H419.385L419.625 219.229ZM426.542 222.562V222.781C426.542 223.601 426.448 224.361 426.26 225.062C426.073 225.764 425.795 226.375 425.427 226.896C425.059 227.417 424.601 227.823 424.052 228.115C423.51 228.399 422.882 228.542 422.167 228.542C421.493 228.542 420.913 228.392 420.427 228.094C419.941 227.795 419.535 227.382 419.208 226.854C418.882 226.326 418.618 225.722 418.417 225.042C418.215 224.361 418.056 223.642 417.938 222.885V222.604C418.056 221.792 418.215 221.038 418.417 220.344C418.618 219.642 418.882 219.031 419.208 218.51C419.535 217.99 419.938 217.583 420.417 217.292C420.903 217 421.483 216.854 422.156 216.854C422.872 216.854 423.5 216.99 424.042 217.26C424.59 217.531 425.049 217.92 425.417 218.427C425.792 218.927 426.073 219.528 426.26 220.229C426.448 220.931 426.542 221.708 426.542 222.562ZM423.031 222.781V222.562C423.031 222.125 423 221.726 422.938 221.365C422.875 220.997 422.774 220.677 422.635 220.406C422.503 220.135 422.326 219.927 422.104 219.781C421.882 219.635 421.608 219.562 421.281 219.562C420.906 219.562 420.59 219.622 420.333 219.74C420.083 219.851 419.882 220.024 419.729 220.26C419.583 220.49 419.479 220.778 419.417 221.125C419.361 221.465 419.337 221.865 419.344 222.323V223.177C419.33 223.705 419.382 224.17 419.5 224.573C419.618 224.969 419.823 225.278 420.115 225.5C420.406 225.722 420.802 225.833 421.302 225.833C421.635 225.833 421.913 225.757 422.135 225.604C422.358 225.444 422.535 225.226 422.667 224.948C422.799 224.663 422.892 224.337 422.948 223.969C423.003 223.601 423.031 223.205 423.031 222.781ZM431.646 219.854V228.333H428.135V217.062H431.417L431.646 219.854ZM434.979 216.979L434.917 220.24C434.778 220.226 434.59 220.208 434.354 220.187C434.118 220.167 433.92 220.156 433.76 220.156C433.351 220.156 432.997 220.205 432.698 220.302C432.406 220.392 432.163 220.531 431.969 220.719C431.781 220.899 431.642 221.128 431.552 221.406C431.469 221.684 431.431 222.007 431.438 222.375L430.802 221.958C430.802 221.201 430.875 220.514 431.021 219.896C431.174 219.271 431.389 218.733 431.667 218.281C431.944 217.823 432.281 217.472 432.677 217.229C433.073 216.979 433.517 216.854 434.01 216.854C434.184 216.854 434.354 216.865 434.521 216.885C434.694 216.906 434.847 216.937 434.979 216.979ZM441.438 228.542C440.521 228.542 439.701 228.399 438.979 228.115C438.257 227.823 437.646 227.424 437.146 226.917C436.653 226.41 436.274 225.826 436.01 225.167C435.753 224.507 435.625 223.809 435.625 223.073V222.677C435.625 221.851 435.74 221.087 435.969 220.385C436.198 219.677 436.538 219.059 436.99 218.531C437.441 218.003 438.007 217.594 438.688 217.302C439.368 217.003 440.16 216.854 441.063 216.854C441.861 216.854 442.576 216.983 443.208 217.24C443.84 217.497 444.375 217.865 444.813 218.344C445.257 218.823 445.594 219.403 445.823 220.083C446.059 220.764 446.177 221.528 446.177 222.375V223.802H436.969V221.604H442.75V221.333C442.757 220.958 442.691 220.639 442.552 220.375C442.42 220.111 442.226 219.91 441.969 219.771C441.712 219.632 441.399 219.562 441.031 219.562C440.649 219.562 440.333 219.646 440.083 219.812C439.84 219.979 439.649 220.208 439.51 220.5C439.378 220.785 439.285 221.115 439.229 221.49C439.174 221.865 439.146 222.26 439.146 222.677V223.073C439.146 223.49 439.201 223.868 439.313 224.208C439.431 224.549 439.597 224.84 439.813 225.083C440.035 225.319 440.299 225.503 440.604 225.635C440.917 225.767 441.271 225.833 441.667 225.833C442.146 225.833 442.618 225.743 443.083 225.562C443.549 225.382 443.948 225.083 444.281 224.667L445.875 226.562C445.646 226.889 445.319 227.205 444.896 227.51C444.479 227.816 443.979 228.066 443.396 228.26C442.813 228.448 442.16 228.542 441.438 228.542ZM453.51 225.167C453.51 224.972 453.444 224.806 453.313 224.667C453.188 224.521 452.965 224.389 452.646 224.271C452.326 224.146 451.878 224.021 451.302 223.896C450.753 223.778 450.236 223.622 449.75 223.427C449.271 223.233 448.851 222.997 448.49 222.719C448.128 222.441 447.844 222.111 447.635 221.729C447.434 221.347 447.333 220.91 447.333 220.417C447.333 219.937 447.434 219.486 447.635 219.062C447.844 218.632 448.146 218.253 448.542 217.927C448.944 217.594 449.434 217.333 450.01 217.146C450.587 216.951 451.243 216.854 451.979 216.854C452.993 216.854 453.868 217.01 454.604 217.323C455.34 217.628 455.906 218.059 456.302 218.615C456.705 219.163 456.906 219.799 456.906 220.521H453.396C453.396 220.236 453.347 219.993 453.25 219.792C453.16 219.59 453.01 219.437 452.802 219.333C452.594 219.222 452.316 219.167 451.969 219.167C451.726 219.167 451.503 219.212 451.302 219.302C451.108 219.392 450.951 219.517 450.833 219.677C450.715 219.837 450.656 220.024 450.656 220.24C450.656 220.392 450.691 220.531 450.76 220.656C450.837 220.774 450.951 220.885 451.104 220.99C451.257 221.087 451.451 221.177 451.688 221.26C451.924 221.337 452.208 221.406 452.542 221.469C453.299 221.608 454.007 221.806 454.667 222.062C455.326 222.319 455.861 222.684 456.271 223.156C456.688 223.628 456.896 224.264 456.896 225.062C456.896 225.562 456.781 226.024 456.552 226.448C456.323 226.865 455.993 227.233 455.563 227.552C455.132 227.865 454.615 228.108 454.01 228.281C453.406 228.455 452.726 228.542 451.969 228.542C450.892 228.542 449.983 228.351 449.24 227.969C448.497 227.58 447.934 227.094 447.552 226.51C447.177 225.92 446.99 225.323 446.99 224.719H450.26C450.274 225.066 450.358 225.351 450.51 225.573C450.67 225.795 450.882 225.958 451.146 226.062C451.41 226.167 451.715 226.219 452.063 226.219C452.382 226.219 452.646 226.174 452.854 226.083C453.069 225.993 453.233 225.872 453.344 225.719C453.455 225.559 453.51 225.375 453.51 225.167ZM464.448 225.167C464.448 224.972 464.382 224.806 464.25 224.667C464.125 224.521 463.903 224.389 463.583 224.271C463.264 224.146 462.816 224.021 462.24 223.896C461.691 223.778 461.174 223.622 460.688 223.427C460.208 223.233 459.788 222.997 459.427 222.719C459.066 222.441 458.781 222.111 458.573 221.729C458.372 221.347 458.271 220.91 458.271 220.417C458.271 219.937 458.372 219.486 458.573 219.062C458.781 218.632 459.083 218.253 459.479 217.927C459.882 217.594 460.372 217.333 460.948 217.146C461.524 216.951 462.181 216.854 462.917 216.854C463.931 216.854 464.806 217.01 465.542 217.323C466.278 217.628 466.844 218.059 467.24 218.615C467.642 219.163 467.844 219.799 467.844 220.521H464.333C464.333 220.236 464.285 219.993 464.188 219.792C464.097 219.59 463.948 219.437 463.74 219.333C463.531 219.222 463.253 219.167 462.906 219.167C462.663 219.167 462.441 219.212 462.24 219.302C462.045 219.392 461.889 219.517 461.771 219.677C461.653 219.837 461.594 220.024 461.594 220.24C461.594 220.392 461.628 220.531 461.698 220.656C461.774 220.774 461.889 220.885 462.042 220.99C462.194 221.087 462.389 221.177 462.625 221.26C462.861 221.337 463.146 221.406 463.479 221.469C464.236 221.608 464.944 221.806 465.604 222.062C466.264 222.319 466.799 222.684 467.208 223.156C467.625 223.628 467.833 224.264 467.833 225.062C467.833 225.562 467.719 226.024 467.49 226.448C467.26 226.865 466.931 227.233 466.5 227.552C466.069 227.865 465.552 228.108 464.948 228.281C464.344 228.455 463.663 228.542 462.906 228.542C461.83 228.542 460.92 228.351 460.177 227.969C459.434 227.58 458.872 227.094 458.49 226.51C458.115 225.92 457.927 225.323 457.927 224.719H461.198C461.212 225.066 461.295 225.351 461.448 225.573C461.608 225.795 461.819 225.958 462.083 226.062C462.347 226.167 462.653 226.219 463 226.219C463.319 226.219 463.583 226.174 463.792 226.083C464.007 225.993 464.17 225.872 464.281 225.719C464.392 225.559 464.448 225.375 464.448 225.167ZM475.677 223.573V213.167H479.323V223.573C479.323 224.587 479.09 225.465 478.625 226.208C478.167 226.951 477.542 227.528 476.75 227.937C475.965 228.34 475.083 228.542 474.104 228.542C473.09 228.542 472.188 228.372 471.396 228.031C470.611 227.691 469.993 227.167 469.542 226.458C469.097 225.75 468.875 224.847 468.875 223.75H472.542C472.542 224.264 472.601 224.667 472.719 224.958C472.837 225.243 473.01 225.444 473.24 225.562C473.476 225.674 473.764 225.729 474.104 225.729C474.438 225.729 474.719 225.646 474.948 225.479C475.184 225.306 475.365 225.059 475.49 224.74C475.615 224.413 475.677 224.024 475.677 223.573ZM489.458 224.302C489.458 224.066 489.424 223.854 489.354 223.667C489.285 223.472 489.156 223.292 488.969 223.125C488.781 222.958 488.51 222.792 488.156 222.625C487.809 222.451 487.351 222.271 486.781 222.083C486.115 221.861 485.472 221.611 484.854 221.333C484.236 221.049 483.684 220.719 483.198 220.344C482.712 219.962 482.326 219.517 482.042 219.01C481.757 218.497 481.615 217.899 481.615 217.219C481.615 216.566 481.76 215.979 482.052 215.458C482.344 214.931 482.75 214.483 483.271 214.115C483.799 213.74 484.417 213.455 485.125 213.26C485.833 213.059 486.608 212.958 487.448 212.958C488.559 212.958 489.538 213.153 490.385 213.542C491.24 213.924 491.906 214.469 492.385 215.177C492.872 215.878 493.115 216.708 493.115 217.667H489.479C489.479 217.285 489.399 216.948 489.24 216.656C489.087 216.365 488.854 216.135 488.542 215.969C488.229 215.802 487.837 215.719 487.365 215.719C486.906 215.719 486.521 215.788 486.208 215.927C485.896 216.066 485.66 216.253 485.5 216.49C485.34 216.719 485.26 216.972 485.26 217.25C485.26 217.479 485.323 217.687 485.448 217.875C485.58 218.056 485.764 218.226 486 218.385C486.243 218.545 486.535 218.698 486.875 218.844C487.222 218.99 487.611 219.132 488.042 219.271C488.847 219.528 489.563 219.816 490.188 220.135C490.819 220.448 491.351 220.806 491.781 221.208C492.219 221.604 492.549 222.056 492.771 222.562C493 223.069 493.115 223.642 493.115 224.281C493.115 224.962 492.983 225.566 492.719 226.094C492.455 226.622 492.076 227.069 491.583 227.437C491.09 227.799 490.5 228.073 489.813 228.26C489.125 228.448 488.358 228.542 487.51 228.542C486.733 228.542 485.965 228.444 485.208 228.25C484.458 228.049 483.778 227.743 483.167 227.333C482.556 226.917 482.066 226.385 481.698 225.74C481.337 225.087 481.156 224.312 481.156 223.417H484.823C484.823 223.861 484.882 224.236 485 224.542C485.118 224.847 485.292 225.094 485.521 225.281C485.75 225.462 486.031 225.594 486.365 225.677C486.698 225.753 487.08 225.792 487.51 225.792C487.976 225.792 488.351 225.726 488.635 225.594C488.92 225.455 489.128 225.274 489.26 225.052C489.392 224.823 489.458 224.573 489.458 224.302Z" fill="white"/>
<rect x="571" y="196.333" width="208" height="49.3333" rx="4.66667" fill="#888888" stroke="#888888" stroke-width="4"/>
<path d="M635.823 213.167H641.792C642.958 213.167 643.972 213.34 644.833 213.687C645.694 214.035 646.358 214.549 646.823 215.229C647.295 215.91 647.531 216.75 647.531 217.75C647.531 218.618 647.396 219.344 647.125 219.927C646.854 220.51 646.476 220.993 645.99 221.375C645.51 221.75 644.951 222.059 644.312 222.302L643.115 222.979H638.104L638.083 220.156H641.792C642.257 220.156 642.642 220.073 642.948 219.906C643.253 219.74 643.483 219.503 643.635 219.198C643.795 218.885 643.875 218.514 643.875 218.083C643.875 217.646 643.795 217.271 643.635 216.958C643.476 216.646 643.24 216.406 642.927 216.24C642.622 216.073 642.243 215.99 641.792 215.99H639.479V228.333H635.823V213.167ZM644.125 228.333L640.771 221.625L644.646 221.604L648.042 228.177V228.333H644.125ZM655.031 228.542C654.115 228.542 653.295 228.399 652.573 228.115C651.851 227.823 651.24 227.424 650.74 226.917C650.247 226.41 649.868 225.826 649.604 225.167C649.347 224.507 649.219 223.809 649.219 223.073V222.677C649.219 221.851 649.333 221.087 649.562 220.385C649.792 219.677 650.132 219.059 650.583 218.531C651.035 218.003 651.601 217.594 652.281 217.302C652.962 217.003 653.753 216.854 654.656 216.854C655.455 216.854 656.17 216.983 656.802 217.24C657.434 217.497 657.969 217.865 658.406 218.344C658.851 218.823 659.187 219.403 659.417 220.083C659.653 220.764 659.771 221.528 659.771 222.375V223.802H650.562V221.604H656.344V221.333C656.351 220.958 656.285 220.639 656.146 220.375C656.014 220.111 655.819 219.91 655.562 219.771C655.306 219.632 654.993 219.562 654.625 219.562C654.243 219.562 653.927 219.646 653.677 219.812C653.434 219.979 653.243 220.208 653.104 220.5C652.972 220.785 652.878 221.115 652.823 221.49C652.767 221.865 652.74 222.26 652.74 222.677V223.073C652.74 223.49 652.795 223.868 652.906 224.208C653.024 224.549 653.191 224.84 653.406 225.083C653.628 225.319 653.892 225.503 654.198 225.635C654.51 225.767 654.865 225.833 655.26 225.833C655.74 225.833 656.212 225.743 656.677 225.562C657.142 225.382 657.542 225.083 657.875 224.667L659.469 226.562C659.24 226.889 658.913 227.205 658.49 227.51C658.073 227.816 657.573 228.066 656.99 228.26C656.406 228.448 655.753 228.542 655.031 228.542ZM667.052 225.5V220.854C667.052 220.535 667.007 220.26 666.917 220.031C666.826 219.802 666.684 219.625 666.49 219.5C666.295 219.368 666.035 219.302 665.708 219.302C665.444 219.302 665.219 219.347 665.031 219.437C664.844 219.528 664.701 219.663 664.604 219.844C664.507 220.024 664.458 220.253 664.458 220.531H660.948C660.948 220.01 661.062 219.528 661.292 219.083C661.528 218.632 661.861 218.24 662.292 217.906C662.729 217.573 663.25 217.316 663.854 217.135C664.465 216.948 665.146 216.854 665.896 216.854C666.792 216.854 667.59 217.003 668.292 217.302C669 217.601 669.559 218.049 669.969 218.646C670.378 219.236 670.583 219.979 670.583 220.875V225.49C670.583 226.226 670.625 226.785 670.708 227.167C670.792 227.542 670.91 227.872 671.062 228.156V228.333H667.542C667.375 227.986 667.25 227.562 667.167 227.062C667.09 226.556 667.052 226.035 667.052 225.5ZM667.479 221.448L667.5 223.323H665.948C665.622 223.323 665.344 223.368 665.115 223.458C664.892 223.549 664.712 223.674 664.573 223.833C664.441 223.986 664.344 224.16 664.281 224.354C664.226 224.549 664.198 224.753 664.198 224.969C664.198 225.177 664.247 225.365 664.344 225.531C664.448 225.691 664.587 225.816 664.76 225.906C664.934 225.997 665.128 226.042 665.344 226.042C665.733 226.042 666.062 225.969 666.333 225.823C666.611 225.67 666.823 225.486 666.969 225.271C667.115 225.056 667.187 224.854 667.187 224.667L667.958 226.104C667.819 226.382 667.66 226.663 667.479 226.948C667.306 227.233 667.087 227.497 666.823 227.74C666.566 227.976 666.25 228.17 665.875 228.323C665.5 228.469 665.045 228.542 664.51 228.542C663.816 228.542 663.177 228.399 662.594 228.115C662.017 227.83 661.556 227.434 661.208 226.927C660.861 226.413 660.687 225.823 660.687 225.156C660.687 224.573 660.792 224.052 661 223.594C661.215 223.135 661.538 222.747 661.969 222.427C662.399 222.108 662.948 221.865 663.615 221.698C664.281 221.531 665.066 221.448 665.969 221.448H667.479ZM677.292 225.833C677.618 225.833 677.896 225.774 678.125 225.656C678.361 225.531 678.538 225.358 678.656 225.135C678.781 224.906 678.84 224.632 678.833 224.312H682.135C682.142 225.16 681.934 225.903 681.51 226.542C681.094 227.174 680.524 227.667 679.802 228.021C679.087 228.368 678.278 228.542 677.375 228.542C676.493 228.542 675.722 228.399 675.062 228.115C674.403 227.823 673.851 227.42 673.406 226.906C672.969 226.385 672.639 225.778 672.417 225.083C672.201 224.389 672.094 223.635 672.094 222.823V222.583C672.094 221.771 672.201 221.017 672.417 220.323C672.639 219.622 672.969 219.014 673.406 218.5C673.851 217.979 674.399 217.576 675.052 217.292C675.712 217 676.479 216.854 677.354 216.854C678.292 216.854 679.118 217.031 679.833 217.385C680.556 217.74 681.122 218.253 681.531 218.927C681.941 219.601 682.142 220.417 682.135 221.375H678.833C678.84 221.035 678.788 220.729 678.677 220.458C678.566 220.187 678.392 219.972 678.156 219.812C677.927 219.646 677.632 219.562 677.271 219.562C676.91 219.562 676.618 219.642 676.396 219.802C676.174 219.962 676.003 220.184 675.885 220.469C675.774 220.747 675.698 221.066 675.656 221.427C675.622 221.788 675.604 222.174 675.604 222.583V222.823C675.604 223.24 675.622 223.632 675.656 224C675.698 224.361 675.778 224.681 675.896 224.958C676.014 225.229 676.184 225.444 676.406 225.604C676.628 225.757 676.924 225.833 677.292 225.833ZM689.573 217.062V219.5H682.781V217.062H689.573ZM684.208 214.26H687.719V224.656C687.719 224.955 687.753 225.187 687.823 225.354C687.892 225.514 688.01 225.628 688.177 225.698C688.351 225.76 688.58 225.792 688.865 225.792C689.066 225.792 689.233 225.788 689.365 225.781C689.497 225.767 689.622 225.75 689.74 225.729V228.24C689.441 228.337 689.128 228.41 688.802 228.458C688.476 228.514 688.128 228.542 687.76 228.542C687.01 228.542 686.368 228.424 685.833 228.187C685.306 227.951 684.903 227.58 684.625 227.073C684.347 226.566 684.208 225.906 684.208 225.094V214.26ZM697.167 223.573V213.167H700.812V223.573C700.812 224.587 700.58 225.465 700.115 226.208C699.656 226.951 699.031 227.528 698.24 227.937C697.455 228.34 696.573 228.542 695.594 228.542C694.58 228.542 693.677 228.372 692.885 228.031C692.101 227.691 691.483 227.167 691.031 226.458C690.587 225.75 690.365 224.847 690.365 223.75H694.031C694.031 224.264 694.09 224.667 694.208 224.958C694.326 225.243 694.5 225.444 694.729 225.562C694.965 225.674 695.253 225.729 695.594 225.729C695.927 225.729 696.208 225.646 696.437 225.479C696.674 225.306 696.854 225.059 696.979 224.74C697.104 224.413 697.167 224.024 697.167 223.573ZM710.948 224.302C710.948 224.066 710.913 223.854 710.844 223.667C710.774 223.472 710.646 223.292 710.458 223.125C710.271 222.958 710 222.792 709.646 222.625C709.299 222.451 708.84 222.271 708.271 222.083C707.604 221.861 706.962 221.611 706.344 221.333C705.726 221.049 705.174 220.719 704.687 220.344C704.201 219.962 703.816 219.517 703.531 219.01C703.247 218.497 703.104 217.899 703.104 217.219C703.104 216.566 703.25 215.979 703.542 215.458C703.833 214.931 704.24 214.483 704.76 214.115C705.288 213.74 705.906 213.455 706.615 213.26C707.323 213.059 708.097 212.958 708.937 212.958C710.049 212.958 711.028 213.153 711.875 213.542C712.729 213.924 713.396 214.469 713.875 215.177C714.361 215.878 714.604 216.708 714.604 217.667H710.969C710.969 217.285 710.889 216.948 710.729 216.656C710.576 216.365 710.344 216.135 710.031 215.969C709.719 215.802 709.326 215.719 708.854 215.719C708.396 215.719 708.01 215.788 707.698 215.927C707.385 216.066 707.149 216.253 706.99 216.49C706.83 216.719 706.75 216.972 706.75 217.25C706.75 217.479 706.812 217.687 706.937 217.875C707.069 218.056 707.253 218.226 707.49 218.385C707.733 218.545 708.024 218.698 708.365 218.844C708.712 218.99 709.101 219.132 709.531 219.271C710.337 219.528 711.052 219.816 711.677 220.135C712.309 220.448 712.84 220.806 713.271 221.208C713.708 221.604 714.038 222.056 714.26 222.562C714.49 223.069 714.604 223.642 714.604 224.281C714.604 224.962 714.472 225.566 714.208 226.094C713.944 226.622 713.566 227.069 713.073 227.437C712.58 227.799 711.99 228.073 711.302 228.26C710.615 228.448 709.847 228.542 709 228.542C708.222 228.542 707.455 228.444 706.698 228.25C705.948 228.049 705.267 227.743 704.656 227.333C704.045 226.917 703.556 226.385 703.187 225.74C702.826 225.087 702.646 224.312 702.646 223.417H706.312C706.312 223.861 706.372 224.236 706.49 224.542C706.608 224.847 706.781 225.094 707.01 225.281C707.24 225.462 707.521 225.594 707.854 225.677C708.187 225.753 708.569 225.792 709 225.792C709.465 225.792 709.84 225.726 710.125 225.594C710.41 225.455 710.618 225.274 710.75 225.052C710.882 224.823 710.948 224.573 710.948 224.302Z" fill="white"/>
<rect x="803" y="196.333" width="208" height="49.3333" rx="4.66667" fill="#888888" stroke="#888888" stroke-width="4"/>
<path d="M882.844 213.167V228.333H879.198L873.833 218.896V228.333H870.177V213.167H873.833L879.198 222.604V213.167H882.844ZM884.552 222.812V222.594C884.552 221.767 884.67 221.007 884.906 220.312C885.142 219.611 885.49 219.003 885.948 218.49C886.406 217.976 886.972 217.576 887.646 217.292C888.319 217 889.097 216.854 889.979 216.854C890.868 216.854 891.649 217 892.323 217.292C893.003 217.576 893.573 217.976 894.031 218.49C894.49 219.003 894.837 219.611 895.073 220.312C895.309 221.007 895.427 221.767 895.427 222.594V222.812C895.427 223.632 895.309 224.392 895.073 225.094C894.837 225.788 894.49 226.396 894.031 226.917C893.573 227.431 893.007 227.83 892.333 228.115C891.66 228.399 890.882 228.542 890 228.542C889.118 228.542 888.337 228.399 887.656 228.115C886.976 227.83 886.406 227.431 885.948 226.917C885.49 226.396 885.142 225.788 884.906 225.094C884.67 224.392 884.552 223.632 884.552 222.812ZM888.062 222.594V222.812C888.062 223.236 888.094 223.632 888.156 224C888.219 224.368 888.323 224.691 888.469 224.969C888.615 225.24 888.812 225.451 889.062 225.604C889.312 225.757 889.625 225.833 890 225.833C890.368 225.833 890.674 225.757 890.917 225.604C891.167 225.451 891.365 225.24 891.51 224.969C891.656 224.691 891.76 224.368 891.823 224C891.885 223.632 891.917 223.236 891.917 222.812V222.594C891.917 222.184 891.885 221.799 891.823 221.437C891.76 221.069 891.656 220.747 891.51 220.469C891.365 220.184 891.167 219.962 890.917 219.802C890.667 219.642 890.354 219.562 889.979 219.562C889.611 219.562 889.302 219.642 889.052 219.802C888.809 219.962 888.615 220.184 888.469 220.469C888.323 220.747 888.219 221.069 888.156 221.437C888.094 221.799 888.062 222.184 888.062 222.594ZM903.469 225.75V212.333H907V228.333H903.833L903.469 225.75ZM896.552 222.833V222.615C896.552 221.76 896.646 220.983 896.833 220.281C897.021 219.573 897.299 218.965 897.667 218.458C898.035 217.944 898.493 217.549 899.042 217.271C899.59 216.993 900.222 216.854 900.938 216.854C901.576 216.854 902.135 217.003 902.615 217.302C903.094 217.594 903.503 218.003 903.844 218.531C904.184 219.059 904.462 219.677 904.677 220.385C904.892 221.087 905.056 221.844 905.167 222.656V222.917C905.056 223.681 904.892 224.403 904.677 225.083C904.462 225.757 904.184 226.354 903.844 226.875C903.503 227.396 903.09 227.806 902.604 228.104C902.125 228.396 901.563 228.542 900.917 228.542C900.201 228.542 899.569 228.399 899.021 228.115C898.479 227.83 898.024 227.431 897.656 226.917C897.295 226.403 897.021 225.799 896.833 225.104C896.646 224.41 896.552 223.653 896.552 222.833ZM900.063 222.615V222.833C900.063 223.257 900.09 223.649 900.146 224.01C900.201 224.372 900.295 224.691 900.427 224.969C900.566 225.24 900.747 225.451 900.969 225.604C901.198 225.757 901.479 225.833 901.813 225.833C902.264 225.833 902.635 225.726 902.927 225.51C903.226 225.295 903.444 224.99 903.583 224.594C903.729 224.198 903.792 223.733 903.771 223.198V222.375C903.785 221.917 903.753 221.514 903.677 221.167C903.601 220.812 903.479 220.517 903.313 220.281C903.153 220.045 902.948 219.868 902.698 219.75C902.455 219.625 902.167 219.562 901.833 219.562C901.507 219.562 901.229 219.639 901 219.792C900.778 219.944 900.597 220.16 900.458 220.437C900.319 220.708 900.219 221.031 900.156 221.406C900.094 221.774 900.063 222.177 900.063 222.615ZM914.448 228.542C913.531 228.542 912.712 228.399 911.99 228.115C911.267 227.823 910.656 227.424 910.156 226.917C909.663 226.41 909.285 225.826 909.021 225.167C908.764 224.507 908.635 223.809 908.635 223.073V222.677C908.635 221.851 908.75 221.087 908.979 220.385C909.208 219.677 909.549 219.059 910 218.531C910.451 218.003 911.017 217.594 911.698 217.302C912.378 217.003 913.17 216.854 914.073 216.854C914.872 216.854 915.587 216.983 916.219 217.24C916.851 217.497 917.385 217.865 917.823 218.344C918.267 218.823 918.604 219.403 918.833 220.083C919.069 220.764 919.188 221.528 919.188 222.375V223.802H909.979V221.604H915.76V221.333C915.767 220.958 915.701 220.639 915.563 220.375C915.431 220.111 915.236 219.91 914.979 219.771C914.722 219.632 914.41 219.562 914.042 219.562C913.66 219.562 913.344 219.646 913.094 219.812C912.851 219.979 912.66 220.208 912.521 220.5C912.389 220.785 912.295 221.115 912.24 221.49C912.184 221.865 912.156 222.26 912.156 222.677V223.073C912.156 223.49 912.212 223.868 912.323 224.208C912.441 224.549 912.608 224.84 912.823 225.083C913.045 225.319 913.309 225.503 913.615 225.635C913.927 225.767 914.281 225.833 914.677 225.833C915.156 225.833 915.628 225.743 916.094 225.562C916.559 225.382 916.958 225.083 917.292 224.667L918.885 226.562C918.656 226.889 918.33 227.205 917.906 227.51C917.49 227.816 916.99 228.066 916.406 228.26C915.823 228.448 915.17 228.542 914.448 228.542ZM926.813 223.573V213.167H930.458V223.573C930.458 224.587 930.226 225.465 929.76 226.208C929.302 226.951 928.677 227.528 927.885 227.937C927.101 228.34 926.219 228.542 925.24 228.542C924.226 228.542 923.323 228.372 922.531 228.031C921.747 227.691 921.128 227.167 920.677 226.458C920.233 225.75 920.01 224.847 920.01 223.75H923.677C923.677 224.264 923.736 224.667 923.854 224.958C923.972 225.243 924.146 225.444 924.375 225.562C924.611 225.674 924.899 225.729 925.24 225.729C925.573 225.729 925.854 225.646 926.083 225.479C926.319 225.306 926.5 225.059 926.625 224.74C926.75 224.413 926.813 224.024 926.813 223.573ZM940.594 224.302C940.594 224.066 940.559 223.854 940.49 223.667C940.42 223.472 940.292 223.292 940.104 223.125C939.917 222.958 939.646 222.792 939.292 222.625C938.944 222.451 938.486 222.271 937.917 222.083C937.25 221.861 936.608 221.611 935.99 221.333C935.372 221.049 934.819 220.719 934.333 220.344C933.847 219.962 933.462 219.517 933.177 219.01C932.892 218.497 932.75 217.899 932.75 217.219C932.75 216.566 932.896 215.979 933.188 215.458C933.479 214.931 933.885 214.483 934.406 214.115C934.934 213.74 935.552 213.455 936.26 213.26C936.969 213.059 937.743 212.958 938.583 212.958C939.694 212.958 940.674 213.153 941.521 213.542C942.375 213.924 943.042 214.469 943.521 215.177C944.007 215.878 944.25 216.708 944.25 217.667H940.615C940.615 217.285 940.535 216.948 940.375 216.656C940.222 216.365 939.99 216.135 939.677 215.969C939.365 215.802 938.972 215.719 938.5 215.719C938.042 215.719 937.656 215.788 937.344 215.927C937.031 216.066 936.795 216.253 936.635 216.49C936.476 216.719 936.396 216.972 936.396 217.25C936.396 217.479 936.458 217.687 936.583 217.875C936.715 218.056 936.899 218.226 937.135 218.385C937.378 218.545 937.67 218.698 938.01 218.844C938.358 218.99 938.747 219.132 939.177 219.271C939.983 219.528 940.698 219.816 941.323 220.135C941.955 220.448 942.486 220.806 942.917 221.208C943.354 221.604 943.684 222.056 943.906 222.562C944.135 223.069 944.25 223.642 944.25 224.281C944.25 224.962 944.118 225.566 943.854 226.094C943.59 226.622 943.212 227.069 942.719 227.437C942.226 227.799 941.635 228.073 940.948 228.26C940.26 228.448 939.493 228.542 938.646 228.542C937.868 228.542 937.101 228.444 936.344 228.25C935.594 228.049 934.913 227.743 934.302 227.333C933.691 226.917 933.201 226.385 932.833 225.74C932.472 225.087 932.292 224.312 932.292 223.417H935.958C935.958 223.861 936.017 224.236 936.135 224.542C936.253 224.847 936.427 225.094 936.656 225.281C936.885 225.462 937.167 225.594 937.5 225.677C937.833 225.753 938.215 225.792 938.646 225.792C939.111 225.792 939.486 225.726 939.771 225.594C940.056 225.455 940.264 225.274 940.396 225.052C940.528 224.823 940.594 224.573 940.594 224.302Z" fill="white"/>
<defs>
<linearGradient id="paint0_linear_3_60" x1="18.5" y1="0" x2="18.5" y2="301" gradientUnits="userSpaceOnUse">
<stop stop-color="#AD00FF"/>
<stop offset="1" stop-color="#1400FC"/>
</linearGradient>
</defs>
</svg>
